<?xml version="1.0" encoding="UTF-8" standalone="no"?>
<!DOCTYPE svg PUBLIC "-//W3C//DTD SVG 1.1//EN"
 "http://www.w3.org/Graphics/SVG/1.1/DTD/svg11.dtd">
<!-- Generated by graphviz version 2.40.1 (0)
 -->
<!-- Title: %3 Pages: 1 -->
<svg width="474pt" height="98pt"
 viewBox="0.00 0.00 474.19 98.00" xmlns="http://www.w3.org/2000/svg" xmlns:xlink="http://www.w3.org/1999/xlink">
<g id="graph0" class="graph" transform="scale(1 1) rotate(0) translate(4 94)">
<title>%3</title>
<polygon fill="#ffffff" stroke="transparent" points="-4,4 -4,-94 470.1915,-94 470.1915,4 -4,4"/>
<!-- injector -->
<g id="node1" class="node">
<title>injector</title>
<ellipse fill="#848484" stroke="#585858" cx="48.0957" cy="-45" rx="48.1917" ry="18"/>
<text text-anchor="middle" x="48.0957" y="-41.3" font-family="Times,serif" font-size="14.00" fill="#ffffff">Injector</text>
</g>
<!-- server -->
<g id="node2" class="node">
<title>server</title>
<path fill="#782b90" stroke="#585858" d="M296.1915,-63C296.1915,-63 187.1915,-63 187.1915,-63 181.1915,-63 175.1915,-57 175.1915,-51 175.1915,-51 175.1915,-39 175.1915,-39 175.1915,-33 181.1915,-27 187.1915,-27 187.1915,-27 296.1915,-27 296.1915,-27 302.1915,-27 308.1915,-33 308.1915,-39 308.1915,-39 308.1915,-51 308.1915,-51 308.1915,-57 302.1915,-63 296.1915,-63"/>
<text text-anchor="middle" x="241.6915" y="-41.3" font-family="Times,serif" font-size="14.00" fill="#ffffff">GraphQL server</text>
</g>
<!-- injector&#45;&gt;server -->
<g id="edge1" class="edge">
<title>injector&#45;&gt;server</title>
<path fill="none" stroke="#000000" d="M96.4487,-45C117.1311,-45 141.7892,-45 164.8643,-45"/>
<polygon fill="#000000" stroke="#000000" points="164.9864,-48.5001 174.9863,-45 164.9863,-41.5001 164.9864,-48.5001"/>
<text text-anchor="middle" x="135.6915" y="-48.8" font-family="Times,serif" font-size="14.00" fill="#000000">HTTP</text>
</g>
<!-- backend -->
<g id="node3" class="node">
<title>backend</title>
<path fill="#f26522" stroke="#585858" d="M454.1915,-90C454.1915,-90 399.1915,-90 399.1915,-90 393.1915,-90 387.1915,-84 387.1915,-78 387.1915,-78 387.1915,-66 387.1915,-66 387.1915,-60 393.1915,-54 399.1915,-54 399.1915,-54 454.1915,-54 454.1915,-54 460.1915,-54 466.1915,-60 466.1915,-66 466.1915,-66 466.1915,-78 466.1915,-78 466.1915,-84 460.1915,-90 454.1915,-90"/>
<text text-anchor="middle" x="426.6915" y="-68.3" font-family="Times,serif" font-size="14.00" fill="#ffffff">Backend</text>
</g>
<!-- server&#45;&gt;backend -->
<g id="edge3" class="edge">
<title>server&#45;&gt;backend</title>
<path fill="none" stroke="#000000" d="M308.2193,-54.7095C330.9199,-58.0225 355.8915,-61.667 377.0315,-64.7523"/>
<polygon fill="#000000" stroke="#000000" points="376.6742,-68.2372 387.0748,-66.2181 377.6852,-61.3106 376.6742,-68.2372"/>
<text text-anchor="middle" x="347.6915" y="-66.8" font-family="Times,serif" font-size="14.00" fill="#000000">HTTP</text>
</g>
<!-- postgres -->
<g id="node4" class="node">
<title>postgres</title>
<path fill="#008bb9" stroke="#585858" d="M466.1915,-32.7273C466.1915,-34.5331 448.4869,-36 426.6915,-36 404.896,-36 387.1915,-34.5331 387.1915,-32.7273 387.1915,-32.7273 387.1915,-3.2727 387.1915,-3.2727 387.1915,-1.4669 404.896,0 426.6915,0 448.4869,0 466.1915,-1.4669 466.1915,-3.2727 466.1915,-3.2727 466.1915,-32.7273 466.1915,-32.7273"/>
<path fill="none" stroke="#585858" d="M466.1915,-32.7273C466.1915,-30.9214 448.4869,-29.4545 426.6915,-29.4545 404.896,-29.4545 387.1915,-30.9214 387.1915,-32.7273"/>
<text text-anchor="middle" x="426.6915" y="-14.3" font-family="Times,serif" font-size="14.00" fill="#ffffff">Postgres</text>
</g>
<!-- server&#45;&gt;postgres -->
<g id="edge2" class="edge">
<title>server&#45;&gt;postgres</title>
<path fill="none" stroke="#000000" d="M308.2193,-35.2905C330.9199,-31.9775 355.8915,-28.333 377.0315,-25.2477"/>
<polygon fill="#000000" stroke="#000000" points="377.6852,-28.6894 387.0748,-23.7819 376.6742,-21.7628 377.6852,-28.6894"/>
</g>
</g>
</svg>
