<svg version="1.1" viewBox="0.0 0.0 600.0 371.0" fill="none" stroke="none" stroke-linecap="square" stroke-miterlimit="10" width="600" height="371" xmlns:xlink="http://www.w3.org/1999/xlink" xmlns="http://www.w3.org/2000/svg"><path fill="#ffffff" d="M0 0L600.0 0L600.0 371.0L0 371.0L0 0Z" fill-rule="nonzero"/><path stroke="#333333" stroke-width="1.0" stroke-linecap="butt" d="M62.5 300.5L581.5 300.5" fill-rule="nonzero"/><path stroke="#cccccc" stroke-width="1.0" stroke-linecap="butt" d="M62.5 229.5L581.5 229.5" fill-rule="nonzero"/><path stroke="#cccccc" stroke-width="1.0" stroke-linecap="butt" d="M62.5 159.5L581.5 159.5" fill-rule="nonzero"/><path stroke="#cccccc" stroke-width="1.0" stroke-linecap="butt" d="M62.5 88.5L581.5 88.5" fill-rule="nonzero"/><clipPath id="id_0"><path d="M62.55 88.28333L581.45 88.28333L581.45 300.45L62.55 300.45L62.55 88.28333Z" clip-rule="nonzero"/></clipPath><path stroke="#000000" stroke-width="0.0" stroke-linecap="butt" stroke-opacity="0.0" clip-path="url(#id_0)" d="M117.0 300.0L91.0 300.0L91.0 257.0C91.0 255.89543 91.89543 255.0 93.0 255.0L115.0 255.0C116.10457 255.0 117.0 255.89543 117.0 257.0Z" fill-rule="nonzero"/><path fill="#6db33f" clip-path="url(#id_0)" d="M117.0 300.0L91.0 300.0L91.0 257.0C91.0 255.89543 91.89543 255.0 93.0 255.0L115.0 255.0C116.10457 255.0 117.0 255.89543 117.0 257.0Z" fill-rule="nonzero"/><path stroke="#000000" stroke-width="0.0" stroke-linecap="butt" stroke-opacity="0.0" clip-path="url(#id_0)" d="M198.0 300.0L172.0 300.0L172.0 259.0C172.0 257.89542 172.89543 257.0 174.0 257.0L196.0 257.0C197.10457 257.0 198.0 257.89542 198.0 259.0Z" fill-rule="nonzero"/><path fill="#6db33f" clip-path="url(#id_0)" d="M198.0 300.0L172.0 300.0L172.0 259.0C172.0 257.89542 172.89543 257.0 174.0 257.0L196.0 257.0C197.10457 257.0 198.0 257.89542 198.0 259.0Z" fill-rule="nonzero"/><path stroke="#000000" stroke-width="0.0" stroke-linecap="butt" stroke-opacity="0.0" clip-path="url(#id_0)" d="M280.0 300.0L254.0 300.0L254.0 248.0C254.0 246.89543 254.89543 246.0 256.0 246.0L278.0 246.0C279.10458 246.0 280.0 246.89543 280.0 248.0Z" fill-rule="nonzero"/><path fill="#6db33f" clip-path="url(#id_0)" d="M280.0 300.0L254.0 300.0L254.0 248.0C254.0 246.89543 254.89543 246.0 256.0 246.0L278.0 246.0C279.10458 246.0 280.0 246.89543 280.0 248.0Z" fill-rule="nonzero"/><path stroke="#000000" stroke-width="0.0" stroke-linecap="butt" stroke-opacity="0.0" clip-path="url(#id_0)" d="M362.0 300.0L336.0 300.0L336.0 228.0C336.0 226.89543 336.89542 226.0 338.0 226.0L360.0 226.0C361.10458 226.0 362.0 226.89543 362.0 228.0Z" fill-rule="nonzero"/><path fill="#6db33f" clip-path="url(#id_0)" d="M362.0 300.0L336.0 300.0L336.0 228.0C336.0 226.89543 336.89542 226.0 338.0 226.0L360.0 226.0C361.10458 226.0 362.0 226.89543 362.0 228.0Z" fill-rule="nonzero"/><path stroke="#000000" stroke-width="0.0" stroke-linecap="butt" stroke-opacity="0.0" clip-path="url(#id_0)" d="M444.0 300.0L418.0 300.0L418.0 186.0C418.0 184.89543 418.89542 184.0 420.0 184.0L442.0 184.0C443.10458 184.0 444.0 184.89543 444.0 186.0Z" fill-rule="nonzero"/><path fill="#6db33f" clip-path="url(#id_0)" d="M444.0 300.0L418.0 300.0L418.0 186.0C418.0 184.89543 418.89542 184.0 420.0 184.0L442.0 184.0C443.10458 184.0 444.0 184.89543 444.0 186.0Z" fill-rule="nonzero"/><path stroke="#000000" stroke-width="0.0" stroke-linecap="butt" stroke-opacity="0.0" clip-path="url(#id_0)" d="M525.0 300.0L499.0 300.0L499.0 102.0C499.0 100.89543 499.89542 100.0 501.0 100.0L523.0 100.0C524.10455 100.0 525.0 100.89543 525.0 102.0Z" fill-rule="nonzero"/><path fill="#6db33f" clip-path="url(#id_0)" d="M525.0 300.0L499.0 300.0L499.0 102.0C499.0 100.89543 499.89542 100.0 501.0 100.0L523.0 100.0C524.10455 100.0 525.0 100.89543 525.0 102.0Z" fill-rule="nonzero"/><path stroke="#000000" stroke-width="0.0" stroke-linecap="butt" stroke-opacity="0.0" clip-path="url(#id_0)" d="M144.0 300.0L118.0 300.0L118.0 260.0C118.0 258.89542 118.89543 258.0 120.0 258.0L142.0 258.0C143.10457 258.0 144.0 258.89542 144.0 260.0Z" fill-rule="nonzero"/><path fill="#782b90" clip-path="url(#id_0)" d="M144.0 300.0L118.0 300.0L118.0 260.0C118.0 258.89542 118.89543 258.0 120.0 258.0L142.0 258.0C143.10457 258.0 144.0 258.89542 144.0 260.0Z" fill-rule="nonzero"/><path stroke="#000000" stroke-width="0.0" stroke-linecap="butt" stroke-opacity="0.0" clip-path="url(#id_0)" d="M225.0 300.0L199.0 300.0L199.0 257.0C199.0 255.89543 199.89543 255.0 201.0 255.0L223.0 255.0C224.10457 255.0 225.0 255.89543 225.0 257.0Z" fill-rule="nonzero"/><path fill="#782b90" clip-path="url(#id_0)" d="M225.0 300.0L199.0 300.0L199.0 257.0C199.0 255.89543 199.89543 255.0 201.0 255.0L223.0 255.0C224.10457 255.0 225.0 255.89543 225.0 257.0Z" fill-rule="nonzero"/><path stroke="#000000" stroke-width="0.0" stroke-linecap="butt" stroke-opacity="0.0" clip-path="url(#id_0)" d="M307.0 300.0L281.0 300.0L281.0 250.0C281.0 248.89543 281.89542 248.0 283.0 248.0L305.0 248.0C306.10458 248.0 307.0 248.89543 307.0 250.0Z" fill-rule="nonzero"/><path fill="#782b90" clip-path="url(#id_0)" d="M307.0 300.0L281.0 300.0L281.0 250.0C281.0 248.89543 281.89542 248.0 283.0 248.0L305.0 248.0C306.10458 248.0 307.0 248.89543 307.0 250.0Z" fill-rule="nonzero"/><path stroke="#000000" stroke-width="0.0" stroke-linecap="butt" stroke-opacity="0.0" clip-path="url(#id_0)" d="M389.0 300.0L363.0 300.0L363.0 237.0C363.0 235.89543 363.89542 235.0 365.0 235.0L387.0 235.0C388.10458 235.0 389.0 235.89543 389.0 237.0Z" fill-rule="nonzero"/><path fill="#782b90" clip-path="url(#id_0)" d="M389.0 300.0L363.0 300.0L363.0 237.0C363.0 235.89543 363.89542 235.0 365.0 235.0L387.0 235.0C388.10458 235.0 389.0 235.89543 389.0 237.0Z" fill-rule="nonzero"/><path stroke="#000000" stroke-width="0.0" stroke-linecap="butt" stroke-opacity="0.0" clip-path="url(#id_0)" d="M471.0 300.0L445.0 300.0L445.0 203.0C445.0 201.89543 445.89542 201.0 447.0 201.0L469.0 201.0C470.10458 201.0 471.0 201.89543 471.0 203.0Z" fill-rule="nonzero"/><path fill="#782b90" clip-path="url(#id_0)" d="M471.0 300.0L445.0 300.0L445.0 203.0C445.0 201.89543 445.89542 201.0 447.0 201.0L469.0 201.0C470.10458 201.0 471.0 201.89543 471.0 203.0Z" fill-rule="nonzero"/><path stroke="#000000" stroke-width="0.0" stroke-linecap="butt" stroke-opacity="0.0" clip-path="url(#id_0)" d="M552.0 300.0L526.0 300.0L526.0 110.0C526.0 108.89543 526.89545 108.0 528.0 108.0L550.0 108.0C551.10455 108.0 552.0 108.89543 552.0 110.0Z" fill-rule="nonzero"/><path fill="#782b90" clip-path="url(#id_0)" d="M552.0 300.0L526.0 300.0L526.0 110.0C526.0 108.89543 526.89545 108.0 528.0 108.0L550.0 108.0C551.10455 108.0 552.0 108.89543 552.0 110.0Z" fill-rule="nonzero"/><path fill="#000000" d="M294.5625 346.4344L295.6875 346.73126Q295.32812 348.1219 294.40625 348.85626Q293.48438 349.59064 292.14062 349.59064Q290.75 349.59064 289.875 349.02814Q289.0 348.46564 288.54688 347.40314Q288.09375 346.325 288.09375 345.09064Q288.09375 343.7469 288.60938 342.7469Q289.125 341.7469 290.0625 341.23126Q291.01562 340.71564 292.15625 340.71564Q293.4375 340.71564 294.3125 341.3719Q295.20312 342.02814 295.54688 343.21564L294.42188 343.48126Q294.125 342.54376 293.54688 342.1219Q292.98438 341.6844 292.125 341.6844Q291.14062 341.6844 290.46875 342.16876Q289.8125 342.6375 289.53125 343.4344Q289.26562 344.23126 289.26562 345.09064Q289.26562 346.1844 289.57812 346.9969Q289.90625 347.8094 290.57812 348.21564Q291.25 348.6219 292.04688 348.6219Q293.0 348.6219 293.65625 348.075Q294.32812 347.52814 294.5625 346.4344ZM296.90625 346.34064Q296.90625 344.60626 297.85938 343.77814Q298.65625 343.09064 299.8125 343.09064Q301.09375 343.09064 301.90625 343.9344Q302.73438 344.7625 302.73438 346.2469Q302.73438 347.45 302.375 348.1375Q302.01562 348.825 301.3125 349.21564Q300.625 349.59064 299.8125 349.59064Q298.51562 349.59064 297.70312 348.7625Q296.90625 347.91876 296.90625 346.34064ZM297.98438 346.34064Q297.98438 347.52814 298.5 348.1219Q299.03125 348.71564 299.8125 348.71564Q300.60938 348.71564 301.125 348.1219Q301.64062 347.52814 301.64062 346.3094Q301.64062 345.15314 301.10938 344.5594Q300.59375 343.96564 299.8125 343.96564Q299.03125 343.96564 298.5 344.5594Q297.98438 345.1375 297.98438 346.34064ZM304.29688 349.45L304.29688 343.23126L305.23438 343.23126L305.23438 344.10626Q305.92188 343.09064 307.21875 343.09064Q307.78125 343.09064 308.25 343.29376Q308.73438 343.4969 308.96875 343.825Q309.20312 344.15314 309.29688 344.59064Q309.34375 344.8875 309.34375 345.6219L309.34375 349.45L308.29688 349.45L308.29688 345.66876Q308.29688 345.0125 308.17188 344.7Q308.04688 344.3875 307.73438 344.2Q307.42188 343.9969 307.0 343.9969Q306.32812 343.9969 305.82812 344.4344Q305.34375 344.85626 305.34375 346.04376L305.34375 349.45L304.29688 349.45ZM311.29688 349.45L311.29688 343.23126L312.23438 343.23126L312.23438 344.10626Q312.92188 343.09064 314.21875 343.09064Q314.78125 343.09064 315.25 343.29376Q315.73438 343.4969 315.96875 343.825Q316.20312 344.15314 316.29688 344.59064Q316.34375 344.8875 316.34375 345.6219L316.34375 349.45L315.29688 349.45L315.29688 345.66876Q315.29688 345.0125 315.17188 344.7Q315.04688 344.3875 314.73438 344.2Q314.42188 343.9969 314.0 343.9969Q313.32812 343.9969 312.82812 344.4344Q312.34375 344.85626 312.34375 346.04376L312.34375 349.45L311.29688 349.45ZM322.54688 347.45L323.64062 347.575Q323.39062 348.52814 322.6875 349.0594Q321.98438 349.59064 320.90625 349.59064Q319.54688 349.59064 318.73438 348.7469Q317.9375 347.90314 317.9375 346.3875Q317.9375 344.825 318.75 343.96564Q319.5625 343.09064 320.84375 343.09064Q322.09375 343.09064 322.875 343.9344Q323.67188 344.77814 323.67188 346.325Q323.67188 346.41876 323.67188 346.60626L319.03125 346.60626Q319.09375 347.6375 319.60938 348.1844Q320.125 348.71564 320.90625 348.71564Q321.48438 348.71564 321.89062 348.41876Q322.3125 348.10626 322.54688 347.45ZM319.09375 345.7469L322.5625 345.7469Q322.5 344.95 322.17188 344.5594Q321.65625 343.95 320.85938 343.95Q320.125 343.95 319.625 344.4344Q319.14062 344.91876 319.09375 345.7469ZM329.35938 347.16876L330.39062 347.3094Q330.21875 348.3719 329.51562 348.98126Q328.8125 349.59064 327.79688 349.59064Q326.51562 349.59064 325.73438 348.7625Q324.96875 347.91876 324.96875 346.35626Q324.96875 345.35626 325.29688 344.60626Q325.64062 343.84064 326.3125 343.46564Q327.0 343.09064 327.8125 343.09064Q328.8125 343.09064 329.45312 343.60626Q330.10938 344.10626 330.29688 345.0594L329.26562 345.21564Q329.125 344.59064 328.75 344.27814Q328.375 343.95 327.84375 343.95Q327.04688 343.95 326.54688 344.52814Q326.04688 345.09064 326.04688 346.325Q326.04688 347.59064 326.53125 348.15314Q327.01562 348.71564 327.78125 348.71564Q328.40625 348.71564 328.8125 348.34064Q329.23438 347.96564 329.35938 347.16876ZM333.59375 348.5125L333.75 349.4344Q333.29688 349.52814 332.95312 349.52814Q332.375 349.52814 332.0625 349.35626Q331.75 349.16876 331.60938 348.8719Q331.48438 348.575 331.48438 347.6219L331.48438 344.04376L330.71875 344.04376L330.71875 343.23126L331.48438 343.23126L331.48438 341.6844L332.53125 341.0594L332.53125 343.23126L333.59375 343.23126L333.59375 344.04376L332.53125 344.04376L332.53125 347.6844Q332.53125 348.1375 332.57812 348.2625Q332.64062 348.3875 332.76562 348.46564Q332.89062 348.54376 333.125 348.54376Q333.3125 348.54376 333.59375 348.5125ZM334.29688 342.075L334.29688 340.85626L335.35938 340.85626L335.35938 342.075L334.29688 342.075ZM334.29688 349.45L334.29688 343.23126L335.35938 343.23126L335.35938 349.45L334.29688 349.45ZM336.90625 346.34064Q336.90625 344.60626 337.85938 343.77814Q338.65625 343.09064 339.8125 343.09064Q341.09375 343.09064 341.90625 343.9344Q342.73438 344.7625 342.73438 346.2469Q342.73438 347.45 342.375 348.1375Q342.01562 348.825 341.3125 349.21564Q340.625 349.59064 339.8125 349.59064Q338.51562 349.59064 337.70312 348.7625Q336.90625 347.91876 336.90625 346.34064ZM337.98438 346.34064Q337.98438 347.52814 338.5 348.1219Q339.03125 348.71564 339.8125 348.71564Q340.60938 348.71564 341.125 348.1219Q341.64062 347.52814 341.64062 346.3094Q341.64062 345.15314 341.10938 344.5594Q340.59375 343.96564 339.8125 343.96564Q339.03125 343.96564 338.5 344.5594Q337.98438 345.1375 337.98438 346.34064ZM344.29688 349.45L344.29688 343.23126L345.23438 343.23126L345.23438 344.10626Q345.92188 343.09064 347.21875 343.09064Q347.78125 343.09064 348.25 343.29376Q348.73438 343.4969 348.96875 343.825Q349.20312 344.15314 349.29688 344.59064Q349.34375 344.8875 349.34375 345.6219L349.34375 349.45L348.29688 349.45L348.29688 345.66876Q348.29688 345.0125 348.17188 344.7Q348.04688 344.3875 347.73438 344.2Q347.42188 343.9969 347.0 343.9969Q346.32812 343.9969 345.82812 344.4344Q345.34375 344.85626 345.34375 346.04376L345.34375 349.45L344.29688 349.45ZM350.875 347.59064L351.90625 347.4344Q352.0 348.0594 352.39062 348.3875Q352.79688 348.71564 353.53125 348.71564Q354.25 348.71564 354.59375 348.4344Q354.95312 348.1375 354.95312 347.73126Q354.95312 347.3719 354.64062 347.16876Q354.42188 347.02814 353.5625 346.8094Q352.40625 346.5125 351.95312 346.3094Q351.51562 346.09064 351.28125 345.71564Q351.04688 345.34064 351.04688 344.8719Q351.04688 344.46564 351.23438 344.10626Q351.42188 343.7469 351.75 343.5125Q352.0 343.34064 352.42188 343.21564Q352.84375 343.09064 353.34375 343.09064Q354.0625 343.09064 354.60938 343.3094Q355.17188 343.5125 355.4375 343.8719Q355.70312 344.23126 355.79688 344.825L354.76562 344.96564Q354.70312 344.4969 354.35938 344.23126Q354.03125 343.95 353.40625 343.95Q352.6875 343.95 352.375 344.2Q352.0625 344.4344 352.0625 344.7625Q352.0625 344.96564 352.1875 345.1219Q352.32812 345.29376 352.59375 345.40314Q352.75 345.46564 353.53125 345.66876Q354.65625 345.98126 355.09375 346.16876Q355.53125 346.35626 355.78125 346.71564Q356.03125 347.075 356.03125 347.6219Q356.03125 348.15314 355.71875 348.6219Q355.42188 349.075 354.84375 349.34064Q354.26562 349.59064 353.53125 349.59064Q352.3125 349.59064 351.67188 349.09064Q351.04688 348.575 350.875 347.59064Z" fill-rule="nonzero"/><path fill="#000000" d="M33.05 300.21564Q33.05 298.6844 33.3625 297.7625Q33.675 296.825 34.284374 296.325Q34.909374 295.825 35.846874 295.825Q36.534374 295.825 37.05 296.10626Q37.58125 296.3875 37.925 296.91876Q38.26875 297.4344 38.45625 298.1844Q38.64375 298.9344 38.64375 300.21564Q38.64375 301.73126 38.33125 302.65314Q38.034374 303.575 37.409374 304.09064Q36.8 304.59064 35.846874 304.59064Q34.6125 304.59064 33.89375 303.7Q33.05 302.6375 33.05 300.21564ZM34.128124 300.21564Q34.128124 302.325 34.628124 303.02814Q35.128124 303.73126 35.846874 303.73126Q36.58125 303.73126 37.065624 303.02814Q37.565624 302.325 37.565624 300.21564Q37.565624 298.09064 37.065624 297.40314Q36.58125 296.7 35.83125 296.7Q35.1125 296.7 34.675 297.3094Q34.128124 298.09064 34.128124 300.21564ZM40.6125 304.45L40.6125 303.2469L41.815624 303.2469L41.815624 304.45Q41.815624 305.10626 41.58125 305.5125Q41.346874 305.9344 40.846874 306.15314L40.55 305.7Q40.878124 305.5594 41.034374 305.2625Q41.190624 304.98126 41.221874 304.45L40.6125 304.45ZM43.05 300.21564Q43.05 298.6844 43.3625 297.7625Q43.675 296.825 44.284374 296.325Q44.909374 295.825 45.846874 295.825Q46.534374 295.825 47.05 296.10626Q47.58125 296.3875 47.925 296.91876Q48.26875 297.4344 48.45625 298.1844Q48.64375 298.9344 48.64375 300.21564Q48.64375 301.73126 48.33125 302.65314Q48.034374 303.575 47.409374 304.09064Q46.8 304.59064 45.846874 304.59064Q44.6125 304.59064 43.89375 303.7Q43.05 302.6375 43.05 300.21564ZM44.128124 300.21564Q44.128124 302.325 44.628124 303.02814Q45.128124 303.73126 45.846874 303.73126Q46.58125 303.73126 47.065624 303.02814Q47.565624 302.325 47.565624 300.21564Q47.565624 298.09064 47.065624 297.40314Q46.58125 296.7 45.83125 296.7Q45.1125 296.7 44.675 297.3094Q44.128124 298.09064 44.128124 300.21564ZM50.05 300.21564Q50.05 298.6844 50.3625 297.7625Q50.675 296.825 51.284374 296.325Q51.909374 295.825 52.846874 295.825Q53.534374 295.825 54.05 296.10626Q54.58125 296.3875 54.925 296.91876Q55.26875 297.4344 55.45625 298.1844Q55.64375 298.9344 55.64375 300.21564Q55.64375 301.73126 55.33125 302.65314Q55.034374 303.575 54.409374 304.09064Q53.8 304.59064 52.846874 304.59064Q51.6125 304.59064 50.89375 303.7Q50.05 302.6375 50.05 300.21564ZM51.128124 300.21564Q51.128124 302.325 51.628124 303.02814Q52.128124 303.73126 52.846874 303.73126Q53.58125 303.73126 54.065624 303.02814Q54.565624 302.325 54.565624 300.21564Q54.565624 298.09064 54.065624 297.40314Q53.58125 296.7 52.83125 296.7Q52.1125 296.7 51.675 297.3094Q51.128124 298.09064 51.128124 300.21564Z" fill-rule="nonzero"/><path fill="#000000" d="M23.01875 233.72778L21.971874 233.72778L21.971874 227.00903Q21.58125 227.36841 20.95625 227.74341Q20.346874 228.10278 19.8625 228.27466L19.8625 227.25903Q20.7375 226.83716 21.39375 226.25903Q22.065624 225.66528 22.346874 225.10278L23.01875 225.10278L23.01875 233.72778ZM26.05 229.49341Q26.05 227.96216 26.3625 227.04028Q26.675 226.10278 27.284374 225.60278Q27.909374 225.10278 28.846874 225.10278Q29.534374 225.10278 30.05 225.38403Q30.58125 225.66528 30.925 226.19653Q31.26875 226.71216 31.45625 227.46216Q31.64375 228.21216 31.64375 229.49341Q31.64375 231.00903 31.33125 231.93091Q31.034374 232.85278 30.409374 233.36841Q29.8 233.86841 28.846874 233.86841Q27.6125 233.86841 26.89375 232.97778Q26.05 231.91528 26.05 229.49341ZM27.128124 229.49341Q27.128124 231.60278 27.628124 232.30591Q28.128124 233.00903 28.846874 233.00903Q29.58125 233.00903 30.065624 232.30591Q30.565624 231.60278 30.565624 229.49341Q30.565624 227.36841 30.065624 226.68091Q29.58125 225.97778 28.83125 225.97778Q28.1125 225.97778 27.675 226.58716Q27.128124 227.36841 27.128124 229.49341ZM33.05 229.49341Q33.05 227.96216 33.3625 227.04028Q33.675 226.10278 34.284374 225.60278Q34.909374 225.10278 35.846874 225.10278Q36.534374 225.10278 37.05 225.38403Q37.58125 225.66528 37.925 226.19653Q38.26875 226.71216 38.45625 227.46216Q38.64375 228.21216 38.64375 229.49341Q38.64375 231.00903 38.33125 231.93091Q38.034374 232.85278 37.409374 233.36841Q36.8 233.86841 35.846874 233.86841Q34.6125 233.86841 33.89375 232.97778Q33.05 231.91528 33.05 229.49341ZM34.128124 229.49341Q34.128124 231.60278 34.628124 232.30591Q35.128124 233.00903 35.846874 233.00903Q36.58125 233.00903 37.065624 232.30591Q37.565624 231.60278 37.565624 229.49341Q37.565624 227.36841 37.065624 226.68091Q36.58125 225.97778 35.83125 225.97778Q35.1125 225.97778 34.675 226.58716Q34.128124 227.36841 34.128124 229.49341ZM40.6125 233.72778L40.6125 232.52466L41.815624 232.52466L41.815624 233.72778Q41.815624 234.38403 41.58125 234.79028Q41.346874 235.21216 40.846874 235.43091L40.55 234.97778Q40.878124 234.83716 41.034374 234.54028Q41.190624 234.25903 41.221874 233.72778L40.6125 233.72778ZM43.05 229.49341Q43.05 227.96216 43.3625 227.04028Q43.675 226.10278 44.284374 225.60278Q44.909374 225.10278 45.846874 225.10278Q46.534374 225.10278 47.05 225.38403Q47.58125 225.66528 47.925 226.19653Q48.26875 226.71216 48.45625 227.46216Q48.64375 228.21216 48.64375 229.49341Q48.64375 231.00903 48.33125 231.93091Q48.034374 232.85278 47.409374 233.36841Q46.8 233.86841 45.846874 233.86841Q44.6125 233.86841 43.89375 232.97778Q43.05 231.91528 43.05 229.49341ZM44.128124 229.49341Q44.128124 231.60278 44.628124 232.30591Q45.128124 233.00903 45.846874 233.00903Q46.58125 233.00903 47.065624 232.30591Q47.565624 231.60278 47.565624 229.49341Q47.565624 227.36841 47.065624 226.68091Q46.58125 225.97778 45.83125 225.97778Q45.1125 225.97778 44.675 226.58716Q44.128124 227.36841 44.128124 229.49341ZM50.05 229.49341Q50.05 227.96216 50.3625 227.04028Q50.675 226.10278 51.284374 225.60278Q51.909374 225.10278 52.846874 225.10278Q53.534374 225.10278 54.05 225.38403Q54.58125 225.66528 54.925 226.19653Q55.26875 226.71216 55.45625 227.46216Q55.64375 228.21216 55.64375 229.49341Q55.64375 231.00903 55.33125 231.93091Q55.034374 232.85278 54.409374 233.36841Q53.8 233.86841 52.846874 233.86841Q51.6125 233.86841 50.89375 232.97778Q50.05 231.91528 50.05 229.49341ZM51.128124 229.49341Q51.128124 231.60278 51.628124 232.30591Q52.128124 233.00903 52.846874 233.00903Q53.58125 233.00903 54.065624 232.30591Q54.565624 231.60278 54.565624 229.49341Q54.565624 227.36841 54.065624 226.68091Q53.58125 225.97778 52.83125 225.97778Q52.1125 225.97778 51.675 226.58716Q51.128124 227.36841 51.128124 229.49341Z" fill-rule="nonzero"/><path fill="#000000" d="M24.596874 161.98993L24.596874 163.00555L18.909374 163.00555Q18.909374 162.63055 19.034374 162.27118Q19.253124 161.69305 19.721874 161.13055Q20.20625 160.56805 21.1125 159.83368Q22.51875 158.67743 23.003124 158.00555Q23.503124 157.33368 23.503124 156.73993Q23.503124 156.11493 23.05 155.69305Q22.596874 155.25555 21.878124 155.25555Q21.1125 155.25555 20.659374 155.70868Q20.20625 156.1618 20.190624 156.9743L19.1125 156.86493Q19.221874 155.64618 19.940624 155.02118Q20.675 154.38055 21.909374 154.38055Q23.14375 154.38055 23.8625 155.06805Q24.58125 155.75555 24.58125 156.77118Q24.58125 157.2868 24.3625 157.7868Q24.159374 158.27118 23.659374 158.83368Q23.175 159.38055 22.05 160.33368Q21.096874 161.13055 20.815624 161.42743Q20.55 161.70868 20.378124 161.98993L24.596874 161.98993ZM26.05 158.77118Q26.05 157.23993 26.3625 156.31805Q26.675 155.38055 27.284374 154.88055Q27.909374 154.38055 28.846874 154.38055Q29.534374 154.38055 30.05 154.6618Q30.58125 154.94305 30.925 155.4743Q31.26875 155.98993 31.45625 156.73993Q31.64375 157.48993 31.64375 158.77118Q31.64375 160.2868 31.33125 161.20868Q31.034374 162.13055 30.409374 162.64618Q29.8 163.14618 28.846874 163.14618Q27.6125 163.14618 26.89375 162.25555Q26.05 161.19305 26.05 158.77118ZM27.128124 158.77118Q27.128124 160.88055 27.628124 161.58368Q28.128124 162.2868 28.846874 162.2868Q29.58125 162.2868 30.065624 161.58368Q30.565624 160.88055 30.565624 158.77118Q30.565624 156.64618 30.065624 155.95868Q29.58125 155.25555 28.83125 155.25555Q28.1125 155.25555 27.675 155.86493Q27.128124 156.64618 27.128124 158.77118ZM33.05 158.77118Q33.05 157.23993 33.3625 156.31805Q33.675 155.38055 34.284374 154.88055Q34.909374 154.38055 35.846874 154.38055Q36.534374 154.38055 37.05 154.6618Q37.58125 154.94305 37.925 155.4743Q38.26875 155.98993 38.45625 156.73993Q38.64375 157.48993 38.64375 158.77118Q38.64375 160.2868 38.33125 161.20868Q38.034374 162.13055 37.409374 162.64618Q36.8 163.14618 35.846874 163.14618Q34.6125 163.14618 33.89375 162.25555Q33.05 161.19305 33.05 158.77118ZM34.128124 158.77118Q34.128124 160.88055 34.628124 161.58368Q35.128124 162.2868 35.846874 162.2868Q36.58125 162.2868 37.065624 161.58368Q37.565624 160.88055 37.565624 158.77118Q37.565624 156.64618 37.065624 155.95868Q36.58125 155.25555 35.83125 155.25555Q35.1125 155.25555 34.675 155.86493Q34.128124 156.64618 34.128124 158.77118ZM40.6125 163.00555L40.6125 161.80243L41.815624 161.80243L41.815624 163.00555Q41.815624 163.6618 41.58125 164.06805Q41.346874 164.48993 40.846874 164.70868L40.55 164.25555Q40.878124 164.11493 41.034374 163.81805Q41.190624 163.5368 41.221874 163.00555L40.6125 163.00555ZM43.05 158.77118Q43.05 157.23993 43.3625 156.31805Q43.675 155.38055 44.284374 154.88055Q44.909374 154.38055 45.846874 154.38055Q46.534374 154.38055 47.05 154.6618Q47.58125 154.94305 47.925 155.4743Q48.26875 155.98993 48.45625 156.73993Q48.64375 157.48993 48.64375 158.77118Q48.64375 160.2868 48.33125 161.20868Q48.034374 162.13055 47.409374 162.64618Q46.8 163.14618 45.846874 163.14618Q44.6125 163.14618 43.89375 162.25555Q43.05 161.19305 43.05 158.77118ZM44.128124 158.77118Q44.128124 160.88055 44.628124 161.58368Q45.128124 162.2868 45.846874 162.2868Q46.58125 162.2868 47.065624 161.58368Q47.565624 160.88055 47.565624 158.77118Q47.565624 156.64618 47.065624 155.95868Q46.58125 155.25555 45.83125 155.25555Q45.1125 155.25555 44.675 155.86493Q44.128124 156.64618 44.128124 158.77118ZM50.05 158.77118Q50.05 157.23993 50.3625 156.31805Q50.675 155.38055 51.284374 154.88055Q51.909374 154.38055 52.846874 154.38055Q53.534374 154.38055 54.05 154.6618Q54.58125 154.94305 54.925 155.4743Q55.26875 155.98993 55.45625 156.73993Q55.64375 157.48993 55.64375 158.77118Q55.64375 160.2868 55.33125 161.20868Q55.034374 162.13055 54.409374 162.64618Q53.8 163.14618 52.846874 163.14618Q51.6125 163.14618 50.89375 162.25555Q50.05 161.19305 50.05 158.77118ZM51.128124 158.77118Q51.128124 160.88055 51.628124 161.58368Q52.128124 162.2868 52.846874 162.2868Q53.58125 162.2868 54.065624 161.58368Q54.565624 160.88055 54.565624 158.77118Q54.565624 156.64618 54.065624 155.95868Q53.58125 155.25555 52.83125 155.25555Q52.1125 155.25555 51.675 155.86493Q51.128124 156.64618 51.128124 158.77118Z" fill-rule="nonzero"/><path fill="#000000" d="M19.05 90.01771L20.1125 89.87708Q20.284374 90.76771 20.721874 91.17396Q21.159374 91.56458 21.784374 91.56458Q22.534374 91.56458 23.05 91.04896Q23.565624 90.53333 23.565624 89.76771Q23.565624 89.04896 23.08125 88.58021Q22.6125 88.09583 21.878124 88.09583Q21.58125 88.09583 21.128124 88.22083L21.253124 87.28333Q21.3625 87.29896 21.425 87.29896Q22.096874 87.29896 22.628124 86.95521Q23.175 86.59583 23.175 85.86146Q23.175 85.28333 22.784374 84.90833Q22.39375 84.51771 21.76875 84.51771Q21.159374 84.51771 20.7375 84.90833Q20.33125 85.29896 20.221874 86.06458L19.159374 85.87708Q19.346874 84.83021 20.034374 84.25208Q20.721874 83.65833 21.7375 83.65833Q22.440624 83.65833 23.034374 83.97083Q23.628124 84.26771 23.940624 84.78333Q24.253124 85.29896 24.253124 85.89271Q24.253124 86.43958 23.95625 86.90833Q23.659374 87.36146 23.08125 87.62708Q23.83125 87.79896 24.253124 88.36146Q24.675 88.90833 24.675 89.75208Q24.675 90.87708 23.846874 91.65833Q23.034374 92.43958 21.784374 92.43958Q20.659374 92.43958 19.909374 91.76771Q19.159374 91.08021 19.05 90.01771ZM26.05 88.04896Q26.05 86.51771 26.3625 85.59583Q26.675 84.65833 27.284374 84.15833Q27.909374 83.65833 28.846874 83.65833Q29.534374 83.65833 30.05 83.93958Q30.58125 84.22083 30.925 84.75208Q31.26875 85.26771 31.45625 86.01771Q31.64375 86.76771 31.64375 88.04896Q31.64375 89.56458 31.33125 90.48646Q31.034374 91.40833 30.409374 91.92396Q29.8 92.42396 28.846874 92.42396Q27.6125 92.42396 26.89375 91.53333Q26.05 90.47083 26.05 88.04896ZM27.128124 88.04896Q27.128124 90.15833 27.628124 90.86146Q28.128124 91.56458 28.846874 91.56458Q29.58125 91.56458 30.065624 90.86146Q30.565624 90.15833 30.565624 88.04896Q30.565624 85.92396 30.065624 85.23646Q29.58125 84.53333 28.83125 84.53333Q28.1125 84.53333 27.675 85.14271Q27.128124 85.92396 27.128124 88.04896ZM33.05 88.04896Q33.05 86.51771 33.3625 85.59583Q33.675 84.65833 34.284374 84.15833Q34.909374 83.65833 35.846874 83.65833Q36.534374 83.65833 37.05 83.93958Q37.58125 84.22083 37.925 84.75208Q38.26875 85.26771 38.45625 86.01771Q38.64375 86.76771 38.64375 88.04896Q38.64375 89.56458 38.33125 90.48646Q38.034374 91.40833 37.409374 91.92396Q36.8 92.42396 35.846874 92.42396Q34.6125 92.42396 33.89375 91.53333Q33.05 90.47083 33.05 88.04896ZM34.128124 88.04896Q34.128124 90.15833 34.628124 90.86146Q35.128124 91.56458 35.846874 91.56458Q36.58125 91.56458 37.065624 90.86146Q37.565624 90.15833 37.565624 88.04896Q37.565624 85.92396 37.065624 85.23646Q36.58125 84.53333 35.83125 84.53333Q35.1125 84.53333 34.675 85.14271Q34.128124 85.92396 34.128124 88.04896ZM40.6125 92.28333L40.6125 91.08021L41.815624 91.08021L41.815624 92.28333Q41.815624 92.93958 41.58125 93.34583Q41.346874 93.76771 40.846874 93.98646L40.55 93.53333Q40.878124 93.39271 41.034374 93.09583Q41.190624 92.81458 41.221874 92.28333L40.6125 92.28333ZM43.05 88.04896Q43.05 86.51771 43.3625 85.59583Q43.675 84.65833 44.284374 84.15833Q44.909374 83.65833 45.846874 83.65833Q46.534374 83.65833 47.05 83.93958Q47.58125 84.22083 47.925 84.75208Q48.26875 85.26771 48.45625 86.01771Q48.64375 86.76771 48.64375 88.04896Q48.64375 89.56458 48.33125 90.48646Q48.034374 91.40833 47.409374 91.92396Q46.8 92.42396 45.846874 92.42396Q44.6125 92.42396 43.89375 91.53333Q43.05 90.47083 43.05 88.04896ZM44.128124 88.04896Q44.128124 90.15833 44.628124 90.86146Q45.128124 91.56458 45.846874 91.56458Q46.58125 91.56458 47.065624 90.86146Q47.565624 90.15833 47.565624 88.04896Q47.565624 85.92396 47.065624 85.23646Q46.58125 84.53333 45.83125 84.53333Q45.1125 84.53333 44.675 85.14271Q44.128124 85.92396 44.128124 88.04896ZM50.05 88.04896Q50.05 86.51771 50.3625 85.59583Q50.675 84.65833 51.284374 84.15833Q51.909374 83.65833 52.846874 83.65833Q53.534374 83.65833 54.05 83.93958Q54.58125 84.22083 54.925 84.75208Q55.26875 85.26771 55.45625 86.01771Q55.64375 86.76771 55.64375 88.04896Q55.64375 89.56458 55.33125 90.48646Q55.034374 91.40833 54.409374 91.92396Q53.8 92.42396 52.846874 92.42396Q51.6125 92.42396 50.89375 91.53333Q50.05 90.47083 50.05 88.04896ZM51.128124 88.04896Q51.128124 90.15833 51.628124 90.86146Q52.128124 91.56458 52.846874 91.56458Q53.58125 91.56458 54.065624 90.86146Q54.565624 90.15833 54.565624 88.04896Q54.565624 85.92396 54.065624 85.23646Q53.58125 84.53333 52.83125 84.53333Q52.1125 84.53333 51.675 85.14271Q51.128124 85.92396 51.128124 88.04896Z" fill-rule="nonzero"/><path fill="#000000" d="M116.333664 312.79376Q115.677414 312.54376 115.34929 312.10626Q115.03679 311.65314 115.03679 311.04376Q115.03679 310.10626 115.708664 309.46564Q116.396164 308.825 117.50554 308.825Q118.63054 308.825 119.31804 309.48126Q120.00554 310.1375 120.00554 311.075Q120.00554 311.66876 119.69304 312.10626Q119.38054 312.54376 118.739914 312.79376Q119.53679 313.04376 119.94304 313.6219Q120.34929 314.2 120.34929 314.9969Q120.34929 316.09064 119.56804 316.84064Q118.802414 317.59064 117.521164 317.59064Q116.25554 317.59064 115.47429 316.84064Q114.69304 316.09064 114.69304 314.96564Q114.69304 314.1219 115.114914 313.5594Q115.552414 312.9969 116.333664 312.79376ZM116.114914 310.9969Q116.114914 311.60626 116.50554 311.9969Q116.91179 312.3875 117.53679 312.3875Q118.146164 312.3875 118.53679 312.0125Q118.927414 311.6219 118.927414 311.0594Q118.927414 310.48126 118.521164 310.09064Q118.114914 309.6844 117.521164 309.6844Q116.91179 309.6844 116.50554 310.075Q116.114914 310.46564 116.114914 310.9969ZM115.78679 314.96564Q115.78679 315.41876 115.989914 315.84064Q116.208664 316.2625 116.63054 316.4969Q117.052414 316.73126 117.53679 316.73126Q118.28679 316.73126 118.771164 316.2469Q119.271164 315.7625 119.271164 315.0125Q119.271164 314.2469 118.771164 313.7469Q118.271164 313.2469 117.50554 313.2469Q116.75554 313.2469 116.271164 313.7469Q115.78679 314.23126 115.78679 314.96564Z" fill-rule="nonzero"/><path fill="#000000" d="M196.89395 317.45L195.84708 317.45L195.84708 310.73126Q195.45645 311.09064 194.83145 311.46564Q194.22208 311.825 193.7377 311.9969L193.7377 310.98126Q194.6127 310.5594 195.26895 309.98126Q195.94083 309.3875 196.22208 308.825L196.89395 308.825L196.89395 317.45ZM205.39395 310.96564L204.34708 311.04376Q204.20645 310.41876 203.95645 310.1375Q203.51895 309.6844 202.89395 309.6844Q202.39395 309.6844 202.00333 309.96564Q201.51895 310.34064 201.22208 311.04376Q200.94083 311.73126 200.9252 313.0125Q201.3002 312.4344 201.84708 312.15314Q202.40958 311.8719 203.01895 311.8719Q204.06583 311.8719 204.8002 312.65314Q205.5502 313.4344 205.5502 314.65314Q205.5502 315.46564 205.19083 316.16876Q204.84708 316.85626 204.2377 317.23126Q203.62833 317.59064 202.8627 317.59064Q201.53458 317.59064 200.70645 316.6219Q199.87833 315.65314 199.87833 313.4344Q199.87833 310.9344 200.8002 309.8094Q201.59708 308.825 202.95645 308.825Q203.97208 308.825 204.6127 309.40314Q205.26895 309.96564 205.39395 310.96564ZM201.09708 314.66876Q201.09708 315.21564 201.31583 315.71564Q201.5502 316.2 201.95645 316.46564Q202.37833 316.73126 202.84708 316.73126Q203.50333 316.73126 203.9877 316.2Q204.47208 315.65314 204.47208 314.73126Q204.47208 313.84064 203.9877 313.325Q203.51895 312.8094 202.8002 312.8094Q202.08145 312.8094 201.58145 313.325Q201.09708 313.84064 201.09708 314.66876Z" fill-rule="nonzero"/><path fill="#000000" d="M274.64172 315.1844L275.70422 315.04376Q275.8761 315.9344 276.3136 316.34064Q276.7511 316.73126 277.3761 316.73126Q278.1261 316.73126 278.64172 316.21564Q279.15735 315.7 279.15735 314.9344Q279.15735 314.21564 278.67297 313.7469Q278.20422 313.2625 277.46985 313.2625Q277.17297 313.2625 276.71985 313.3875L276.84485 312.45Q276.95422 312.46564 277.01672 312.46564Q277.6886 312.46564 278.21985 312.1219Q278.76672 311.7625 278.76672 311.02814Q278.76672 310.45 278.3761 310.075Q277.98547 309.6844 277.36047 309.6844Q276.7511 309.6844 276.32922 310.075Q275.92297 310.46564 275.8136 311.23126L274.7511 311.04376Q274.9386 309.9969 275.6261 309.41876Q276.3136 308.825 277.32922 308.825Q278.03235 308.825 278.6261 309.1375Q279.21985 309.4344 279.53235 309.95Q279.84485 310.46564 279.84485 311.0594Q279.84485 311.60626 279.54797 312.075Q279.2511 312.52814 278.67297 312.79376Q279.42297 312.96564 279.84485 313.52814Q280.26672 314.075 280.26672 314.91876Q280.26672 316.04376 279.4386 316.825Q278.6261 317.60626 277.3761 317.60626Q276.2511 317.60626 275.5011 316.9344Q274.7511 316.2469 274.64172 315.1844ZM287.1886 316.4344L287.1886 317.45L281.5011 317.45Q281.5011 317.075 281.6261 316.71564Q281.84485 316.1375 282.3136 315.575Q282.79797 315.0125 283.70422 314.27814Q285.11047 313.1219 285.59485 312.45Q286.09485 311.77814 286.09485 311.1844Q286.09485 310.5594 285.64172 310.1375Q285.1886 309.7 284.46985 309.7Q283.70422 309.7 283.2511 310.15314Q282.79797 310.60626 282.78235 311.41876L281.70422 311.3094Q281.8136 310.09064 282.53235 309.46564Q283.26672 308.825 284.5011 308.825Q285.73547 308.825 286.45422 309.5125Q287.17297 310.2 287.17297 311.21564Q287.17297 311.73126 286.95422 312.23126Q286.7511 312.71564 286.2511 313.27814Q285.76672 313.825 284.64172 314.77814Q283.6886 315.575 283.40735 315.8719Q283.14172 316.15314 282.96985 316.4344L287.1886 316.4344Z" fill-rule="nonzero"/><path fill="#000000" d="M361.82703 310.96564L360.78015 311.04376Q360.63953 310.41876 360.38953 310.1375Q359.95203 309.6844 359.32703 309.6844Q358.82703 309.6844 358.4364 309.96564Q357.95203 310.34064 357.65515 311.04376Q357.3739 311.73126 357.35828 313.0125Q357.73328 312.4344 358.28015 312.15314Q358.84265 311.8719 359.45203 311.8719Q360.4989 311.8719 361.23328 312.65314Q361.98328 313.4344 361.98328 314.65314Q361.98328 315.46564 361.6239 316.16876Q361.28015 316.85626 360.67078 317.23126Q360.0614 317.59064 359.29578 317.59064Q357.96765 317.59064 357.13953 316.6219Q356.3114 315.65314 356.3114 313.4344Q356.3114 310.9344 357.23328 309.8094Q358.03015 308.825 359.38953 308.825Q360.40515 308.825 361.04578 309.40314Q361.70203 309.96564 361.82703 310.96564ZM357.53015 314.66876Q357.53015 315.21564 357.7489 315.71564Q357.98328 316.2 358.38953 316.46564Q358.8114 316.73126 359.28015 316.73126Q359.9364 316.73126 360.42078 316.2Q360.90515 315.65314 360.90515 314.73126Q360.90515 313.84064 360.42078 313.325Q359.95203 312.8094 359.23328 312.8094Q358.51453 312.8094 358.01453 313.325Q357.53015 313.84064 357.53015 314.66876ZM366.73328 317.45L366.73328 315.3875L363.01453 315.3875L363.01453 314.41876L366.9364 308.85626L367.79578 308.85626L367.79578 314.41876L368.95203 314.41876L368.95203 315.3875L367.79578 315.3875L367.79578 317.45L366.73328 317.45ZM366.73328 314.41876L366.73328 310.5594L364.04578 314.41876L366.73328 314.41876Z" fill-rule="nonzero"/><path fill="#000000" d="M438.54355 317.45L437.49667 317.45L437.49667 310.73126Q437.10605 311.09064 436.48105 311.46564Q435.87167 311.825 435.3873 311.9969L435.3873 310.98126Q436.2623 310.5594 436.91855 309.98126Q437.59042 309.3875 437.87167 308.825L438.54355 308.825L438.54355 317.45ZM447.12167 316.4344L447.12167 317.45L441.43417 317.45Q441.43417 317.075 441.55917 316.71564Q441.77792 316.1375 442.24667 315.575Q442.73105 315.0125 443.6373 314.27814Q445.04355 313.1219 445.52792 312.45Q446.02792 311.77814 446.02792 311.1844Q446.02792 310.5594 445.5748 310.1375Q445.12167 309.7 444.40292 309.7Q443.6373 309.7 443.18417 310.15314Q442.73105 310.60626 442.71542 311.41876L441.6373 311.3094Q441.74667 310.09064 442.46542 309.46564Q443.1998 308.825 444.43417 308.825Q445.66855 308.825 446.3873 309.5125Q447.10605 310.2 447.10605 311.21564Q447.10605 311.73126 446.8873 312.23126Q446.68417 312.71564 446.18417 313.27814Q445.6998 313.825 444.5748 314.77814Q443.62167 315.575 443.34042 315.8719Q443.0748 316.15314 442.90292 316.4344L447.12167 316.4344ZM450.1998 312.79376Q449.54355 312.54376 449.21542 312.10626Q448.90292 311.65314 448.90292 311.04376Q448.90292 310.10626 449.5748 309.46564Q450.2623 308.825 451.37167 308.825Q452.49667 308.825 453.18417 309.48126Q453.87167 310.1375 453.87167 311.075Q453.87167 311.66876 453.55917 312.10626Q453.24667 312.54376 452.60605 312.79376Q453.40292 313.04376 453.80917 313.6219Q454.21542 314.2 454.21542 314.9969Q454.21542 316.09064 453.43417 316.84064Q452.66855 317.59064 451.3873 317.59064Q450.12167 317.59064 449.34042 316.84064Q448.55917 316.09064 448.55917 314.96564Q448.55917 314.1219 448.98105 313.5594Q449.41855 312.9969 450.1998 312.79376ZM449.98105 310.9969Q449.98105 311.60626 450.37167 311.9969Q450.77792 312.3875 451.40292 312.3875Q452.0123 312.3875 452.40292 312.0125Q452.79355 311.6219 452.79355 311.0594Q452.79355 310.48126 452.3873 310.09064Q451.98105 309.6844 451.3873 309.6844Q450.77792 309.6844 450.37167 310.075Q449.98105 310.46564 449.98105 310.9969ZM449.65292 314.96564Q449.65292 315.41876 449.85605 315.84064Q450.0748 316.2625 450.49667 316.4969Q450.91855 316.73126 451.40292 316.73126Q452.15292 316.73126 452.6373 316.2469Q453.1373 315.7625 453.1373 315.0125Q453.1373 314.2469 452.6373 313.7469Q452.1373 313.2469 451.37167 313.2469Q450.62167 313.2469 450.1373 313.7469Q449.65292 314.23126 449.65292 314.96564Z" fill-rule="nonzero"/><path fill="#000000" d="M521.8382 316.4344L521.8382 317.45L516.1507 317.45Q516.1507 317.075 516.2757 316.71564Q516.49445 316.1375 516.9632 315.575Q517.4476 315.0125 518.3538 314.27814Q519.7601 313.1219 520.24445 312.45Q520.74445 311.77814 520.74445 311.1844Q520.74445 310.5594 520.2913 310.1375Q519.8382 309.7 519.11945 309.7Q518.3538 309.7 517.9007 310.15314Q517.4476 310.60626 517.43195 311.41876L516.3538 311.3094Q516.4632 310.09064 517.18195 309.46564Q517.9163 308.825 519.1507 308.825Q520.3851 308.825 521.1038 309.5125Q521.8226 310.2 521.8226 311.21564Q521.8226 311.73126 521.6038 312.23126Q521.4007 312.71564 520.9007 313.27814Q520.4163 313.825 519.2913 314.77814Q518.3382 315.575 518.05695 315.8719Q517.7913 316.15314 517.61945 316.4344L521.8382 316.4344ZM523.2913 315.2L524.4007 315.10626Q524.5257 315.91876 524.9632 316.325Q525.4163 316.73126 526.05695 316.73126Q526.80695 316.73126 527.3382 316.15314Q527.86945 315.575 527.86945 314.6375Q527.86945 313.73126 527.3538 313.21564Q526.8538 312.6844 526.0257 312.6844Q525.5257 312.6844 525.1038 312.91876Q524.6976 313.15314 524.4632 313.5125L523.4788 313.3875L524.30695 308.98126L528.5882 308.98126L528.5882 309.98126L525.1507 309.98126L524.6976 312.29376Q525.4632 311.7469 526.30695 311.7469Q527.43195 311.7469 528.1976 312.52814Q528.9788 313.3094 528.9788 314.54376Q528.9788 315.7 528.30695 316.5594Q527.4788 317.59064 526.05695 317.59064Q524.8851 317.59064 524.1351 316.9344Q523.4007 316.27814 523.2913 315.2ZM535.7601 310.96564L534.7132 311.04376Q534.5726 310.41876 534.3226 310.1375Q533.8851 309.6844 533.2601 309.6844Q532.7601 309.6844 532.36945 309.96564Q531.8851 310.34064 531.5882 311.04376Q531.30695 311.73126 531.2913 313.0125Q531.6663 312.4344 532.2132 312.15314Q532.7757 311.8719 533.3851 311.8719Q534.43195 311.8719 535.1663 312.65314Q535.9163 313.4344 535.9163 314.65314Q535.9163 315.46564 535.55695 316.16876Q535.2132 316.85626 534.6038 317.23126Q533.99445 317.59064 533.2288 317.59064Q531.9007 317.59064 531.0726 316.6219Q530.24445 315.65314 530.24445 313.4344Q530.24445 310.9344 531.1663 309.8094Q531.9632 308.825 533.3226 308.825Q534.3382 308.825 534.9788 309.40314Q535.6351 309.96564 535.7601 310.96564ZM531.4632 314.66876Q531.4632 315.21564 531.68195 315.71564Q531.9163 316.2 532.3226 316.46564Q532.74445 316.73126 533.2132 316.73126Q533.86945 316.73126 534.3538 316.2Q534.8382 315.65314 534.8382 314.73126Q534.8382 313.84064 534.3538 313.325Q533.8851 312.8094 533.1663 312.8094Q532.4476 312.8094 531.9476 313.325Q531.4632 313.84064 531.4632 314.66876Z" fill-rule="nonzero"/><path fill="#6db33f" d="M142.5 56.916668C142.5 56.364384 142.94771 55.916668 143.5 55.916668L153.5 55.916668C154.05229 55.916668 154.5 56.364384 154.5 56.916668L154.5 66.916664C154.5 67.46895 154.05229 67.916664 153.5 67.916664L143.5 67.916664C142.94771 67.916664 142.5 67.46895 142.5 66.916664Z" fill-rule="nonzero"/><path fill="#1a1a1a" d="M163.04688 63.15104L164.10938 63.05729Q164.1875 63.71354 164.46875 64.11979Q164.75 64.52604 165.32812 64.791664Q165.92188 65.041664 166.65625 65.041664Q167.29688 65.041664 167.79688 64.854164Q168.29688 64.65104 168.53125 64.322914Q168.78125 63.979164 168.78125 63.58854Q168.78125 63.18229 168.54688 62.885414Q168.3125 62.572914 167.78125 62.36979Q167.42188 62.229164 166.23438 61.947914Q165.0625 61.666664 164.59375 61.416664Q163.96875 61.08854 163.67188 60.61979Q163.375 60.135414 163.375 59.541664Q163.375 58.90104 163.73438 58.33854Q164.10938 57.760414 164.8125 57.479164Q165.53125 57.18229 166.39062 57.18229Q167.34375 57.18229 168.07812 57.49479Q168.8125 57.791664 169.20312 58.40104Q169.59375 58.99479 169.625 59.74479L168.53125 59.822914Q168.4375 59.010414 167.92188 58.604164Q167.42188 58.18229 166.4375 58.18229Q165.40625 58.18229 164.9375 58.55729Q164.46875 58.93229 164.46875 59.46354Q164.46875 59.93229 164.79688 60.229164Q165.125 60.52604 166.5 60.83854Q167.89062 61.15104 168.40625 61.385414Q169.15625 61.74479 169.51562 62.27604Q169.875 62.791664 169.875 63.49479Q169.875 64.18229 169.48438 64.791664Q169.09375 65.385414 168.35938 65.729164Q167.625 66.05729 166.70312 66.05729Q165.53125 66.05729 164.73438 65.729164Q163.95312 65.385414 163.5 64.697914Q163.0625 64.010414 163.04688 63.15104ZM171.29688 68.30729L171.29688 59.697914L172.25 59.697914L172.25 60.49479Q172.59375 60.02604 173.01562 59.791664Q173.45312 59.55729 174.0625 59.55729Q174.85938 59.55729 175.46875 59.96354Q176.07812 60.36979 176.375 61.11979Q176.6875 61.86979 176.6875 62.760414Q176.6875 63.71354 176.34375 64.479164Q176.01562 65.24479 175.35938 65.65104Q174.70312 66.05729 173.98438 66.05729Q173.45312 66.05729 173.03125 65.83854Q172.60938 65.604164 172.34375 65.27604L172.34375 68.30729L171.29688 68.30729ZM172.25 62.83854Q172.25 64.041664 172.73438 64.61979Q173.21875 65.18229 173.90625 65.18229Q174.60938 65.18229 175.10938 64.58854Q175.60938 63.99479 175.60938 62.74479Q175.60938 61.55729 175.125 60.979164Q174.64062 60.385414 173.95312 60.385414Q173.28125 60.385414 172.76562 61.010414Q172.25 61.635414 172.25 62.83854ZM178.28125 65.916664L178.28125 59.697914L179.23438 59.697914L179.23438 60.635414Q179.59375 59.979164 179.89062 59.77604Q180.20312 59.55729 180.57812 59.55729Q181.10938 59.55729 181.65625 59.885414L181.29688 60.86979Q180.90625 60.635414 180.53125 60.635414Q180.17188 60.635414 179.89062 60.854164Q179.625 61.05729 179.51562 61.43229Q179.32812 61.99479 179.32812 62.65104L179.32812 65.916664L178.28125 65.916664ZM182.29688 58.541664L182.29688 57.322914L183.35938 57.322914L183.35938 58.541664L182.29688 58.541664ZM182.29688 65.916664L182.29688 59.697914L183.35938 59.697914L183.35938 65.916664L182.29688 65.916664ZM185.29688 65.916664L185.29688 59.697914L186.23438 59.697914L186.23438 60.572914Q186.92188 59.55729 188.21875 59.55729Q188.78125 59.55729 189.25 59.760414Q189.73438 59.96354 189.96875 60.291664Q190.20312 60.61979 190.29688 61.05729Q190.34375 61.354164 190.34375 62.08854L190.34375 65.916664L189.29688 65.916664L189.29688 62.135414Q189.29688 61.479164 189.17188 61.166664Q189.04688 60.854164 188.73438 60.666664Q188.42188 60.46354 188.0 60.46354Q187.32812 60.46354 186.82812 60.90104Q186.34375 61.322914 186.34375 62.510414L186.34375 65.916664L185.29688 65.916664ZM192.09375 66.43229L193.125 66.58854Q193.1875 67.05729 193.48438 67.27604Q193.875 67.572914 194.54688 67.572914Q195.28125 67.572914 195.67188 67.27604Q196.07812 66.979164 196.21875 66.46354Q196.3125 66.135414 196.29688 65.104164Q195.60938 65.916664 194.57812 65.916664Q193.29688 65.916664 192.59375 64.99479Q191.89062 64.05729 191.89062 62.77604Q191.89062 61.885414 192.20312 61.135414Q192.53125 60.36979 193.14062 59.96354Q193.75 59.55729 194.57812 59.55729Q195.6875 59.55729 196.40625 60.447914L196.40625 59.697914L197.375 59.697914L197.375 65.072914Q197.375 66.52604 197.07812 67.135414Q196.78125 67.74479 196.14062 68.08854Q195.5 68.447914 194.5625 68.447914Q193.45312 68.447914 192.76562 67.947914Q192.07812 67.447914 192.09375 66.43229ZM192.96875 62.697914Q192.96875 63.916664 193.45312 64.479164Q193.9375 65.041664 194.67188 65.041664Q195.40625 65.041664 195.89062 64.479164Q196.39062 63.916664 196.39062 62.729164Q196.39062 61.58854 195.875 61.010414Q195.375 60.43229 194.65625 60.43229Q193.95312 60.43229 193.45312 61.010414Q192.96875 61.572914 192.96875 62.697914ZM202.375 65.916664L202.375 57.322914L205.60938 57.322914Q206.59375 57.322914 207.1875 57.58854Q207.78125 57.854164 208.10938 58.40104Q208.45312 58.93229 208.45312 59.52604Q208.45312 60.072914 208.15625 60.55729Q207.85938 61.041664 207.25 61.33854Q208.03125 61.572914 208.4375 62.135414Q208.85938 62.68229 208.85938 63.43229Q208.85938 64.02604 208.60938 64.55729Q208.35938 65.072914 207.98438 65.354164Q207.60938 65.635414 207.03125 65.77604Q206.46875 65.916664 205.65625 65.916664L202.375 65.916664ZM203.51562 60.93229L205.375 60.93229Q206.125 60.93229 206.45312 60.83854Q206.89062 60.71354 207.10938 60.416664Q207.32812 60.104164 207.32812 59.65104Q207.32812 59.229164 207.125 58.90104Q206.92188 58.572914 206.53125 58.46354Q206.15625 58.33854 205.23438 58.33854L203.51562 58.33854L203.51562 60.93229ZM203.51562 64.90104L205.65625 64.90104Q206.20312 64.90104 206.42188 64.854164Q206.82812 64.791664 207.07812 64.635414Q207.34375 64.46354 207.51562 64.15104Q207.6875 63.83854 207.6875 63.43229Q207.6875 62.947914 207.4375 62.58854Q207.20312 62.229164 206.76562 62.08854Q206.32812 61.947914 205.5 61.947914L203.51562 61.947914L203.51562 64.90104ZM209.90625 62.80729Q209.90625 61.072914 210.85938 60.24479Q211.65625 59.55729 212.8125 59.55729Q214.09375 59.55729 214.90625 60.40104Q215.73438 61.229164 215.73438 62.71354Q215.73438 63.916664 215.375 64.604164Q215.01562 65.291664 214.3125 65.68229Q213.625 66.05729 212.8125 66.05729Q211.51562 66.05729 210.70312 65.229164Q209.90625 64.385414 209.90625 62.80729ZM210.98438 62.80729Q210.98438 63.99479 211.5 64.58854Q212.03125 65.18229 212.8125 65.18229Q213.60938 65.18229 214.125 64.58854Q214.64062 63.99479 214.64062 62.77604Q214.64062 61.61979 214.10938 61.02604Q213.59375 60.43229 212.8125 60.43229Q212.03125 60.43229 211.5 61.02604Q210.98438 61.604164 210.98438 62.80729ZM216.90625 62.80729Q216.90625 61.072914 217.85938 60.24479Q218.65625 59.55729 219.8125 59.55729Q221.09375 59.55729 221.90625 60.40104Q222.73438 61.229164 222.73438 62.71354Q222.73438 63.916664 222.375 64.604164Q222.01562 65.291664 221.3125 65.68229Q220.625 66.05729 219.8125 66.05729Q218.51562 66.05729 217.70312 65.229164Q216.90625 64.385414 216.90625 62.80729ZM217.98438 62.80729Q217.98438 63.99479 218.5 64.58854Q219.03125 65.18229 219.8125 65.18229Q220.60938 65.18229 221.125 64.58854Q221.64062 63.99479 221.64062 62.77604Q221.64062 61.61979 221.10938 61.02604Q220.59375 60.43229 219.8125 60.43229Q219.03125 60.43229 218.5 61.02604Q217.98438 61.604164 217.98438 62.80729ZM226.59375 64.979164L226.75 65.90104Q226.29688 65.99479 225.95312 65.99479Q225.375 65.99479 225.0625 65.822914Q224.75 65.635414 224.60938 65.33854Q224.48438 65.041664 224.48438 64.08854L224.48438 60.510414L223.71875 60.510414L223.71875 59.697914L224.48438 59.697914L224.48438 58.15104L225.53125 57.52604L225.53125 59.697914L226.59375 59.697914L226.59375 60.510414L225.53125 60.510414L225.53125 64.15104Q225.53125 64.604164 225.57812 64.729164Q225.64062 64.854164 225.76562 64.93229Q225.89062 65.010414 226.125 65.010414Q226.3125 65.010414 226.59375 64.979164ZM234.45312 62.541664L234.45312 61.541664L238.07812 61.52604L238.07812 64.71354Q237.25 65.385414 236.35938 65.729164Q235.46875 66.05729 234.53125 66.05729Q233.26562 66.05729 232.21875 65.52604Q231.1875 64.979164 230.65625 63.96354Q230.14062 62.93229 230.14062 61.666664Q230.14062 60.40104 230.65625 59.322914Q231.1875 58.229164 232.17188 57.71354Q233.15625 57.18229 234.4375 57.18229Q235.375 57.18229 236.125 57.479164Q236.875 57.77604 237.29688 58.322914Q237.73438 58.854164 237.95312 59.729164L236.9375 60.010414Q236.73438 59.354164 236.4375 58.979164Q236.15625 58.604164 235.625 58.385414Q235.09375 58.15104 234.45312 58.15104Q233.67188 58.15104 233.09375 58.385414Q232.53125 58.61979 232.17188 59.010414Q231.82812 59.40104 231.64062 59.86979Q231.3125 60.666664 231.3125 61.58854Q231.3125 62.74479 231.70312 63.52604Q232.10938 64.291664 232.85938 64.666664Q233.60938 65.041664 234.46875 65.041664Q235.20312 65.041664 235.90625 64.760414Q236.60938 64.46354 236.96875 64.15104L236.96875 62.541664L234.45312 62.541664ZM239.28125 65.916664L239.28125 59.697914L240.23438 59.697914L240.23438 60.635414Q240.59375 59.979164 240.89062 59.77604Q241.20312 59.55729 241.57812 59.55729Q242.10938 59.55729 242.65625 59.885414L242.29688 60.86979Q241.90625 60.635414 241.53125 60.635414Q241.17188 60.635414 240.89062 60.854164Q240.625 61.05729 240.51562 61.43229Q240.32812 61.99479 240.32812 62.65104L240.32812 65.916664L239.28125 65.916664ZM247.35938 65.15104Q246.76562 65.65104 246.21875 65.854164Q245.6875 66.05729 245.0625 66.05729Q244.03125 66.05729 243.48438 65.55729Q242.9375 65.05729 242.9375 64.27604Q242.9375 63.822914 243.14062 63.447914Q243.34375 63.05729 243.6875 62.83854Q244.03125 62.604164 244.45312 62.49479Q244.75 62.40104 245.39062 62.322914Q246.65625 62.18229 247.26562 61.96354Q247.26562 61.74479 247.26562 61.697914Q247.26562 61.041664 246.96875 60.77604Q246.5625 60.43229 245.76562 60.43229Q245.03125 60.43229 244.67188 60.697914Q244.3125 60.947914 244.14062 61.604164L243.10938 61.46354Q243.25 60.80729 243.57812 60.40104Q243.90625 59.99479 244.51562 59.77604Q245.125 59.55729 245.92188 59.55729Q246.71875 59.55729 247.21875 59.74479Q247.71875 59.93229 247.95312 60.21354Q248.1875 60.49479 248.28125 60.93229Q248.32812 61.197914 248.32812 61.90104L248.32812 63.30729Q248.32812 64.77604 248.39062 65.166664Q248.46875 65.55729 248.67188 65.916664L247.5625 65.916664Q247.40625 65.58854 247.35938 65.15104ZM247.26562 62.791664Q246.6875 63.02604 245.54688 63.197914Q244.89062 63.291664 244.625 63.416664Q244.35938 63.52604 244.20312 63.74479Q244.0625 63.96354 244.0625 64.24479Q244.0625 64.666664 244.375 64.947914Q244.70312 65.229164 245.3125 65.229164Q245.92188 65.229164 246.39062 64.96354Q246.875 64.697914 247.09375 64.229164Q247.26562 63.86979 247.26562 63.18229L247.26562 62.791664ZM250.29688 68.30729L250.29688 59.697914L251.25 59.697914L251.25 60.49479Q251.59375 60.02604 252.01562 59.791664Q252.45312 59.55729 253.0625 59.55729Q253.85938 59.55729 254.46875 59.96354Q255.07812 60.36979 255.375 61.11979Q255.6875 61.86979 255.6875 62.760414Q255.6875 63.71354 255.34375 64.479164Q255.01562 65.24479 254.35938 65.65104Q253.70312 66.05729 252.98438 66.05729Q252.45312 66.05729 252.03125 65.83854Q251.60938 65.604164 251.34375 65.27604L251.34375 68.30729L250.29688 68.30729ZM251.25 62.83854Q251.25 64.041664 251.73438 64.61979Q252.21875 65.18229 252.90625 65.18229Q253.60938 65.18229 254.10938 64.58854Q254.60938 63.99479 254.60938 62.74479Q254.60938 61.55729 254.125 60.979164Q253.64062 60.385414 252.95312 60.385414Q252.28125 60.385414 251.76562 61.010414Q251.25 61.635414 251.25 62.83854ZM257.29688 65.916664L257.29688 57.322914L258.34375 57.322914L258.34375 60.40104Q259.07812 59.55729 260.20312 59.55729Q260.90625 59.55729 261.40625 59.83854Q261.92188 60.104164 262.14062 60.58854Q262.35938 61.05729 262.35938 61.979164L262.35938 65.916664L261.3125 65.916664L261.3125 61.979164Q261.3125 61.18229 260.96875 60.822914Q260.625 60.46354 260.0 60.46354Q259.53125 60.46354 259.10938 60.71354Q258.70312 60.947914 258.51562 61.36979Q258.34375 61.77604 258.34375 62.510414L258.34375 65.916664L257.29688 65.916664ZM270.9375 64.99479Q271.73438 65.541664 272.39062 65.791664L272.0625 66.58854Q271.14062 66.24479 270.21875 65.52604Q269.26562 66.05729 268.10938 66.05729Q266.9375 66.05729 265.98438 65.49479Q265.04688 64.93229 264.53125 63.916664Q264.01562 62.90104 264.01562 61.61979Q264.01562 60.354164 264.53125 59.30729Q265.04688 58.260414 266.0 57.71354Q266.95312 57.166664 268.125 57.166664Q269.3125 57.166664 270.26562 57.74479Q271.23438 58.30729 271.73438 59.322914Q272.23438 60.33854 272.23438 61.61979Q272.23438 62.68229 271.90625 63.52604Q271.59375 64.36979 270.9375 64.99479ZM268.4375 63.541664Q269.42188 63.822914 270.0625 64.36979Q271.0625 63.447914 271.0625 61.61979Q271.0625 60.572914 270.70312 59.791664Q270.34375 59.010414 269.65625 58.58854Q268.98438 58.15104 268.14062 58.15104Q266.85938 58.15104 266.01562 59.02604Q265.1875 59.885414 265.1875 61.61979Q265.1875 63.291664 266.01562 64.197914Q266.84375 65.08854 268.14062 65.08854Q268.75 65.08854 269.28125 64.854164Q268.75 64.510414 268.15625 64.36979L268.4375 63.541664ZM273.375 65.916664L273.375 57.322914L274.51562 57.322914L274.51562 64.90104L278.75 64.90104L278.75 65.916664L273.375 65.916664ZM282.84375 63.479164L283.875 63.33854Q283.90625 64.322914 284.23438 64.68229Q284.5625 65.041664 285.15625 65.041664Q285.57812 65.041664 285.89062 64.854164Q286.20312 64.65104 286.3125 64.322914Q286.4375 63.979164 286.4375 63.24479L286.4375 57.322914L287.5625 57.322914L287.5625 63.18229Q287.5625 64.260414 287.29688 64.854164Q287.04688 65.447914 286.48438 65.760414Q285.92188 66.05729 285.15625 66.05729Q284.03125 66.05729 283.42188 65.416664Q282.82812 64.760414 282.84375 63.479164ZM293.35938 65.15104Q292.76562 65.65104 292.21875 65.854164Q291.6875 66.05729 291.0625 66.05729Q290.03125 66.05729 289.48438 65.55729Q288.9375 65.05729 288.9375 64.27604Q288.9375 63.822914 289.14062 63.447914Q289.34375 63.05729 289.6875 62.83854Q290.03125 62.604164 290.45312 62.49479Q290.75 62.40104 291.39062 62.322914Q292.65625 62.18229 293.26562 61.96354Q293.26562 61.74479 293.26562 61.697914Q293.26562 61.041664 292.96875 60.77604Q292.5625 60.43229 291.76562 60.43229Q291.03125 60.43229 290.67188 60.697914Q290.3125 60.947914 290.14062 61.604164L289.10938 61.46354Q289.25 60.80729 289.57812 60.40104Q289.90625 59.99479 290.51562 59.77604Q291.125 59.55729 291.92188 59.55729Q292.71875 59.55729 293.21875 59.74479Q293.71875 59.93229 293.95312 60.21354Q294.1875 60.49479 294.28125 60.93229Q294.32812 61.197914 294.32812 61.90104L294.32812 63.30729Q294.32812 64.77604 294.39062 65.166664Q294.46875 65.55729 294.67188 65.916664L293.5625 65.916664Q293.40625 65.58854 293.35938 65.15104ZM293.26562 62.791664Q292.6875 63.02604 291.54688 63.197914Q290.89062 63.291664 290.625 63.416664Q290.35938 63.52604 290.20312 63.74479Q290.0625 63.96354 290.0625 64.24479Q290.0625 64.666664 290.375 64.947914Q290.70312 65.229164 291.3125 65.229164Q291.92188 65.229164 292.39062 64.96354Q292.875 64.697914 293.09375 64.229164Q293.26562 63.86979 293.26562 63.18229L293.26562 62.791664ZM298.01562 65.916664L295.65625 59.697914L296.76562 59.697914L298.10938 63.416664Q298.3125 64.02604 298.5 64.666664Q298.64062 64.18229 298.89062 63.49479L300.28125 59.697914L301.35938 59.697914L299.0 65.916664L298.01562 65.916664ZM306.35938 65.15104Q305.76562 65.65104 305.21875 65.854164Q304.6875 66.05729 304.0625 66.05729Q303.03125 66.05729 302.48438 65.55729Q301.9375 65.05729 301.9375 64.27604Q301.9375 63.822914 302.14062 63.447914Q302.34375 63.05729 302.6875 62.83854Q303.03125 62.604164 303.45312 62.49479Q303.75 62.40104 304.39062 62.322914Q305.65625 62.18229 306.26562 61.96354Q306.26562 61.74479 306.26562 61.697914Q306.26562 61.041664 305.96875 60.77604Q305.5625 60.43229 304.76562 60.43229Q304.03125 60.43229 303.67188 60.697914Q303.3125 60.947914 303.14062 61.604164L302.10938 61.46354Q302.25 60.80729 302.57812 60.40104Q302.90625 59.99479 303.51562 59.77604Q304.125 59.55729 304.92188 59.55729Q305.71875 59.55729 306.21875 59.74479Q306.71875 59.93229 306.95312 60.21354Q307.1875 60.49479 307.28125 60.93229Q307.32812 61.197914 307.32812 61.90104L307.32812 63.30729Q307.32812 64.77604 307.39062 65.166664Q307.46875 65.55729 307.67188 65.916664L306.5625 65.916664Q306.40625 65.58854 306.35938 65.15104ZM306.26562 62.791664Q305.6875 63.02604 304.54688 63.197914Q303.89062 63.291664 303.625 63.416664Q303.35938 63.52604 303.20312 63.74479Q303.0625 63.96354 303.0625 64.24479Q303.0625 64.666664 303.375 64.947914Q303.70312 65.229164 304.3125 65.229164Q304.92188 65.229164 305.39062 64.96354Q305.875 64.697914 306.09375 64.229164Q306.26562 63.86979 306.26562 63.18229L306.26562 62.791664Z" fill-rule="nonzero"/><path fill="#782b90" d="M324.5 56.916668C324.5 56.364384 324.94772 55.916668 325.5 55.916668L335.5 55.916668C336.05228 55.916668 336.5 56.364384 336.5 56.916668L336.5 66.916664C336.5 67.46895 336.05228 67.916664 335.5 67.916664L325.5 67.916664C324.94772 67.916664 324.5 67.46895 324.5 66.916664Z" fill-rule="nonzero"/><path fill="#1a1a1a" d="M347.875 65.916664L344.54688 57.322914L345.78125 57.322914L348.01562 63.572914Q348.28125 64.322914 348.46875 64.979164Q348.67188 64.27604 348.9375 63.572914L351.25 57.322914L352.40625 57.322914L349.04688 65.916664L347.875 65.916664ZM357.54688 63.916664L358.64062 64.041664Q358.39062 64.99479 357.6875 65.52604Q356.98438 66.05729 355.90625 66.05729Q354.54688 66.05729 353.73438 65.21354Q352.9375 64.36979 352.9375 62.854164Q352.9375 61.291664 353.75 60.43229Q354.5625 59.55729 355.84375 59.55729Q357.09375 59.55729 357.875 60.40104Q358.67188 61.24479 358.67188 62.791664Q358.67188 62.885414 358.67188 63.072914L354.03125 63.072914Q354.09375 64.104164 354.60938 64.65104Q355.125 65.18229 355.90625 65.18229Q356.48438 65.18229 356.89062 64.885414Q357.3125 64.572914 357.54688 63.916664ZM354.09375 62.21354L357.5625 62.21354Q357.5 61.416664 357.17188 61.02604Q356.65625 60.416664 355.85938 60.416664Q355.125 60.416664 354.625 60.90104Q354.14062 61.385414 354.09375 62.21354ZM360.28125 65.916664L360.28125 59.697914L361.23438 59.697914L361.23438 60.635414Q361.59375 59.979164 361.89062 59.77604Q362.20312 59.55729 362.57812 59.55729Q363.10938 59.55729 363.65625 59.885414L363.29688 60.86979Q362.90625 60.635414 362.53125 60.635414Q362.17188 60.635414 361.89062 60.854164Q361.625 61.05729 361.51562 61.43229Q361.32812 61.99479 361.32812 62.65104L361.32812 65.916664L360.28125 65.916664ZM366.59375 64.979164L366.75 65.90104Q366.29688 65.99479 365.95312 65.99479Q365.375 65.99479 365.0625 65.822914Q364.75 65.635414 364.60938 65.33854Q364.48438 65.041664 364.48438 64.08854L364.48438 60.510414L363.71875 60.510414L363.71875 59.697914L364.48438 59.697914L364.48438 58.15104L365.53125 57.52604L365.53125 59.697914L366.59375 59.697914L366.59375 60.510414L365.53125 60.510414L365.53125 64.15104Q365.53125 64.604164 365.57812 64.729164Q365.64062 64.854164 365.76562 64.93229Q365.89062 65.010414 366.125 65.010414Q366.3125 65.010414 366.59375 64.979164ZM367.59375 65.916664L367.59375 64.71354L368.79688 64.71354L368.79688 65.916664L367.59375 65.916664ZM369.59375 65.916664L371.85938 62.68229L369.76562 59.697914L371.07812 59.697914L372.03125 61.15104Q372.29688 61.572914 372.46875 61.854164Q372.71875 61.46354 372.9375 61.166664L373.98438 59.697914L375.25 59.697914L373.09375 62.61979L375.40625 65.916664L374.125 65.916664L372.84375 63.979164L372.5 63.46354L370.85938 65.916664L369.59375 65.916664ZM383.45312 62.541664L383.45312 61.541664L387.07812 61.52604L387.07812 64.71354Q386.25 65.385414 385.35938 65.729164Q384.46875 66.05729 383.53125 66.05729Q382.26562 66.05729 381.21875 65.52604Q380.1875 64.979164 379.65625 63.96354Q379.14062 62.93229 379.14062 61.666664Q379.14062 60.40104 379.65625 59.322914Q380.1875 58.229164 381.17188 57.71354Q382.15625 57.18229 383.4375 57.18229Q384.375 57.18229 385.125 57.479164Q385.875 57.77604 386.29688 58.322914Q386.73438 58.854164 386.95312 59.729164L385.9375 60.010414Q385.73438 59.354164 385.4375 58.979164Q385.15625 58.604164 384.625 58.385414Q384.09375 58.15104 383.45312 58.15104Q382.67188 58.15104 382.09375 58.385414Q381.53125 58.61979 381.17188 59.010414Q380.82812 59.40104 380.64062 59.86979Q380.3125 60.666664 380.3125 61.58854Q380.3125 62.74479 380.70312 63.52604Q381.10938 64.291664 381.85938 64.666664Q382.60938 65.041664 383.46875 65.041664Q384.20312 65.041664 384.90625 64.760414Q385.60938 64.46354 385.96875 64.15104L385.96875 62.541664L383.45312 62.541664ZM388.28125 65.916664L388.28125 59.697914L389.23438 59.697914L389.23438 60.635414Q389.59375 59.979164 389.89062 59.77604Q390.20312 59.55729 390.57812 59.55729Q391.10938 59.55729 391.65625 59.885414L391.29688 60.86979Q390.90625 60.635414 390.53125 60.635414Q390.17188 60.635414 389.89062 60.854164Q389.625 61.05729 389.51562 61.43229Q389.32812 61.99479 389.32812 62.65104L389.32812 65.916664L388.28125 65.916664ZM396.35938 65.15104Q395.76562 65.65104 395.21875 65.854164Q394.6875 66.05729 394.0625 66.05729Q393.03125 66.05729 392.48438 65.55729Q391.9375 65.05729 391.9375 64.27604Q391.9375 63.822914 392.14062 63.447914Q392.34375 63.05729 392.6875 62.83854Q393.03125 62.604164 393.45312 62.49479Q393.75 62.40104 394.39062 62.322914Q395.65625 62.18229 396.26562 61.96354Q396.26562 61.74479 396.26562 61.697914Q396.26562 61.041664 395.96875 60.77604Q395.5625 60.43229 394.76562 60.43229Q394.03125 60.43229 393.67188 60.697914Q393.3125 60.947914 393.14062 61.604164L392.10938 61.46354Q392.25 60.80729 392.57812 60.40104Q392.90625 59.99479 393.51562 59.77604Q394.125 59.55729 394.92188 59.55729Q395.71875 59.55729 396.21875 59.74479Q396.71875 59.93229 396.95312 60.21354Q397.1875 60.49479 397.28125 60.93229Q397.32812 61.197914 397.32812 61.90104L397.32812 63.30729Q397.32812 64.77604 397.39062 65.166664Q397.46875 65.55729 397.67188 65.916664L396.5625 65.916664Q396.40625 65.58854 396.35938 65.15104ZM396.26562 62.791664Q395.6875 63.02604 394.54688 63.197914Q393.89062 63.291664 393.625 63.416664Q393.35938 63.52604 393.20312 63.74479Q393.0625 63.96354 393.0625 64.24479Q393.0625 64.666664 393.375 64.947914Q393.70312 65.229164 394.3125 65.229164Q394.92188 65.229164 395.39062 64.96354Q395.875 64.697914 396.09375 64.229164Q396.26562 63.86979 396.26562 63.18229L396.26562 62.791664ZM399.29688 68.30729L399.29688 59.697914L400.25 59.697914L400.25 60.49479Q400.59375 60.02604 401.01562 59.791664Q401.45312 59.55729 402.0625 59.55729Q402.85938 59.55729 403.46875 59.96354Q404.07812 60.36979 404.375 61.11979Q404.6875 61.86979 404.6875 62.760414Q404.6875 63.71354 404.34375 64.479164Q404.01562 65.24479 403.35938 65.65104Q402.70312 66.05729 401.98438 66.05729Q401.45312 66.05729 401.03125 65.83854Q400.60938 65.604164 400.34375 65.27604L400.34375 68.30729L399.29688 68.30729ZM400.25 62.83854Q400.25 64.041664 400.73438 64.61979Q401.21875 65.18229 401.90625 65.18229Q402.60938 65.18229 403.10938 64.58854Q403.60938 63.99479 403.60938 62.74479Q403.60938 61.55729 403.125 60.979164Q402.64062 60.385414 401.95312 60.385414Q401.28125 60.385414 400.76562 61.010414Q400.25 61.635414 400.25 62.83854ZM406.29688 65.916664L406.29688 57.322914L407.34375 57.322914L407.34375 60.40104Q408.07812 59.55729 409.20312 59.55729Q409.90625 59.55729 410.40625 59.83854Q410.92188 60.104164 411.14062 60.58854Q411.35938 61.05729 411.35938 61.979164L411.35938 65.916664L410.3125 65.916664L410.3125 61.979164Q410.3125 61.18229 409.96875 60.822914Q409.625 60.46354 409.0 60.46354Q408.53125 60.46354 408.10938 60.71354Q407.70312 60.947914 407.51562 61.36979Q407.34375 61.77604 407.34375 62.510414L407.34375 65.916664L406.29688 65.916664ZM419.9375 64.99479Q420.73438 65.541664 421.39062 65.791664L421.0625 66.58854Q420.14062 66.24479 419.21875 65.52604Q418.26562 66.05729 417.10938 66.05729Q415.9375 66.05729 414.98438 65.49479Q414.04688 64.93229 413.53125 63.916664Q413.01562 62.90104 413.01562 61.61979Q413.01562 60.354164 413.53125 59.30729Q414.04688 58.260414 415.0 57.71354Q415.95312 57.166664 417.125 57.166664Q418.3125 57.166664 419.26562 57.74479Q420.23438 58.30729 420.73438 59.322914Q421.23438 60.33854 421.23438 61.61979Q421.23438 62.68229 420.90625 63.52604Q420.59375 64.36979 419.9375 64.99479ZM417.4375 63.541664Q418.42188 63.822914 419.0625 64.36979Q420.0625 63.447914 420.0625 61.61979Q420.0625 60.572914 419.70312 59.791664Q419.34375 59.010414 418.65625 58.58854Q417.98438 58.15104 417.14062 58.15104Q415.85938 58.15104 415.01562 59.02604Q414.1875 59.885414 414.1875 61.61979Q414.1875 63.291664 415.01562 64.197914Q415.84375 65.08854 417.14062 65.08854Q417.75 65.08854 418.28125 64.854164Q417.75 64.510414 417.15625 64.36979L417.4375 63.541664ZM422.375 65.916664L422.375 57.322914L423.51562 57.322914L423.51562 64.90104L427.75 64.90104L427.75 65.916664L422.375 65.916664ZM431.84375 63.479164L432.875 63.33854Q432.90625 64.322914 433.23438 64.68229Q433.5625 65.041664 434.15625 65.041664Q434.57812 65.041664 434.89062 64.854164Q435.20312 64.65104 435.3125 64.322914Q435.4375 63.979164 435.4375 63.24479L435.4375 57.322914L436.5625 57.322914L436.5625 63.18229Q436.5625 64.260414 436.29688 64.854164Q436.04688 65.447914 435.48438 65.760414Q434.92188 66.05729 434.15625 66.05729Q433.03125 66.05729 432.42188 65.416664Q431.82812 64.760414 431.84375 63.479164ZM442.35938 65.15104Q441.76562 65.65104 441.21875 65.854164Q440.6875 66.05729 440.0625 66.05729Q439.03125 66.05729 438.48438 65.55729Q437.9375 65.05729 437.9375 64.27604Q437.9375 63.822914 438.14062 63.447914Q438.34375 63.05729 438.6875 62.83854Q439.03125 62.604164 439.45312 62.49479Q439.75 62.40104 440.39062 62.322914Q441.65625 62.18229 442.26562 61.96354Q442.26562 61.74479 442.26562 61.697914Q442.26562 61.041664 441.96875 60.77604Q441.5625 60.43229 440.76562 60.43229Q440.03125 60.43229 439.67188 60.697914Q439.3125 60.947914 439.14062 61.604164L438.10938 61.46354Q438.25 60.80729 438.57812 60.40104Q438.90625 59.99479 439.51562 59.77604Q440.125 59.55729 440.92188 59.55729Q441.71875 59.55729 442.21875 59.74479Q442.71875 59.93229 442.95312 60.21354Q443.1875 60.49479 443.28125 60.93229Q443.32812 61.197914 443.32812 61.90104L443.32812 63.30729Q443.32812 64.77604 443.39062 65.166664Q443.46875 65.55729 443.67188 65.916664L442.5625 65.916664Q442.40625 65.58854 442.35938 65.15104ZM442.26562 62.791664Q441.6875 63.02604 440.54688 63.197914Q439.89062 63.291664 439.625 63.416664Q439.35938 63.52604 439.20312 63.74479Q439.0625 63.96354 439.0625 64.24479Q439.0625 64.666664 439.375 64.947914Q439.70312 65.229164 440.3125 65.229164Q440.92188 65.229164 441.39062 64.96354Q441.875 64.697914 442.09375 64.229164Q442.26562 63.86979 442.26562 63.18229L442.26562 62.791664ZM447.01562 65.916664L444.65625 59.697914L445.76562 59.697914L447.10938 63.416664Q447.3125 64.02604 447.5 64.666664Q447.64062 64.18229 447.89062 63.49479L449.28125 59.697914L450.35938 59.697914L448.0 65.916664L447.01562 65.916664ZM455.35938 65.15104Q454.76562 65.65104 454.21875 65.854164Q453.6875 66.05729 453.0625 66.05729Q452.03125 66.05729 451.48438 65.55729Q450.9375 65.05729 450.9375 64.27604Q450.9375 63.822914 451.14062 63.447914Q451.34375 63.05729 451.6875 62.83854Q452.03125 62.604164 452.45312 62.49479Q452.75 62.40104 453.39062 62.322914Q454.65625 62.18229 455.26562 61.96354Q455.26562 61.74479 455.26562 61.697914Q455.26562 61.041664 454.96875 60.77604Q454.5625 60.43229 453.76562 60.43229Q453.03125 60.43229 452.67188 60.697914Q452.3125 60.947914 452.14062 61.604164L451.10938 61.46354Q451.25 60.80729 451.57812 60.40104Q451.90625 59.99479 452.51562 59.77604Q453.125 59.55729 453.92188 59.55729Q454.71875 59.55729 455.21875 59.74479Q455.71875 59.93229 455.95312 60.21354Q456.1875 60.49479 456.28125 60.93229Q456.32812 61.197914 456.32812 61.90104L456.32812 63.30729Q456.32812 64.77604 456.39062 65.166664Q456.46875 65.55729 456.67188 65.916664L455.5625 65.916664Q455.40625 65.58854 455.35938 65.15104ZM455.26562 62.791664Q454.6875 63.02604 453.54688 63.197914Q452.89062 63.291664 452.625 63.416664Q452.35938 63.52604 452.20312 63.74479Q452.0625 63.96354 452.0625 64.24479Q452.0625 64.666664 452.375 64.947914Q452.70312 65.229164 453.3125 65.229164Q453.92188 65.229164 454.39062 64.96354Q454.875 64.697914 455.09375 64.229164Q455.26562 63.86979 455.26562 63.18229L455.26562 62.791664Z" fill-rule="nonzero"/><path fill="#757575" d="M18.51875 37.55L24.01875 23.2375L26.065624 23.2375L31.925 37.55L29.76875 37.55L28.096874 33.20625L22.1125 33.20625L20.534374 37.55L18.51875 37.55ZM22.659374 31.675L27.503124 31.675L26.01875 27.70625Q25.33125 25.89375 25.003124 24.7375Q24.721874 26.1125 24.221874 27.471874L22.659374 31.675ZM32.83125 37.55L32.83125 23.2375L34.58125 23.2375L34.58125 37.55L32.83125 37.55ZM36.83125 37.55L36.83125 23.2375L38.58125 23.2375L38.58125 37.55L36.83125 37.55ZM46.8625 41.51875L46.8625 27.175L48.471874 27.175L48.471874 28.51875Q49.034374 27.7375 49.7375 27.346874Q50.45625 26.940624 51.471874 26.940624Q52.8 26.940624 53.815624 27.628124Q54.83125 28.315624 55.346874 29.565624Q55.878124 30.8 55.878124 32.284374Q55.878124 33.878124 55.3 35.159374Q54.7375 36.425 53.64375 37.1125Q52.55 37.784374 51.346874 37.784374Q50.471874 37.784374 49.76875 37.409374Q49.08125 37.034374 48.628124 36.471874L48.628124 41.51875L46.8625 41.51875ZM48.45625 32.425Q48.45625 34.425 49.26875 35.378124Q50.08125 36.33125 51.2375 36.33125Q52.409374 36.33125 53.2375 35.346874Q54.08125 34.3625 54.08125 32.26875Q54.08125 30.3 53.253124 29.315624Q52.440624 28.315624 51.315624 28.315624Q50.190624 28.315624 49.315624 29.378124Q48.45625 30.425 48.45625 32.425ZM57.221874 32.3625Q57.221874 29.4875 58.815624 28.096874Q60.159374 26.940624 62.08125 26.940624Q64.22188 26.940624 65.56563 28.346874Q66.925 29.753124 66.925 32.221874Q66.925 34.221874 66.33125 35.378124Q65.7375 36.51875 64.58125 37.159374Q63.440624 37.784374 62.08125 37.784374Q59.89375 37.784374 58.55 36.39375Q57.221874 34.9875 57.221874 32.3625ZM59.01875 32.3625Q59.01875 34.3625 59.878124 35.346874Q60.753124 36.33125 62.08125 36.33125Q63.39375 36.33125 64.25313 35.346874Q65.12813 34.346874 65.12813 32.3Q65.12813 30.378124 64.25313 29.39375Q63.378124 28.39375 62.08125 28.39375Q60.753124 28.39375 59.878124 29.39375Q59.01875 30.378124 59.01875 32.3625ZM68.15938 34.45625L69.90938 34.175Q70.05 35.221874 70.72188 35.784374Q71.39375 36.33125 72.59688 36.33125Q73.8 36.33125 74.37813 35.846874Q74.97188 35.346874 74.97188 34.690624Q74.97188 34.096874 74.45625 33.753124Q74.09688 33.51875 72.65938 33.159374Q70.72188 32.659374 69.97188 32.315624Q69.2375 31.95625 68.84688 31.33125Q68.45625 30.690624 68.45625 29.925Q68.45625 29.2375 68.76875 28.64375Q69.09688 28.05 69.64375 27.659374Q70.05 27.3625 70.75313 27.159374Q71.47188 26.940624 72.28438 26.940624Q73.50313 26.940624 74.425 27.3Q75.34688 27.64375 75.78438 28.253124Q76.22188 28.846874 76.39375 29.846874L74.675 30.08125Q74.55 29.284374 73.9875 28.846874Q73.425 28.39375 72.40938 28.39375Q71.19063 28.39375 70.675 28.8Q70.15938 29.190624 70.15938 29.721874Q70.15938 30.065624 70.37813 30.346874Q70.58125 30.628124 71.05 30.815624Q71.31563 30.909374 72.59688 31.253124Q74.47188 31.753124 75.20625 32.08125Q75.94063 32.39375 76.3625 33.003124Q76.78438 33.596874 76.78438 34.503124Q76.78438 35.378124 76.26875 36.159374Q75.75313 36.940624 74.78438 37.3625Q73.81563 37.784374 72.59688 37.784374Q70.58125 37.784374 69.51875 36.940624Q68.45625 36.096874 68.15938 34.45625ZM82.70625 35.971874L82.95625 37.534374Q82.22188 37.690624 81.62813 37.690624Q80.675 37.690624 80.14375 37.39375Q79.62813 37.08125 79.40938 36.596874Q79.19063 36.096874 79.19063 34.51875L79.19063 28.55L77.90938 28.55L77.90938 27.175L79.19063 27.175L79.19063 24.6125L80.94063 23.55L80.94063 27.175L82.70625 27.175L82.70625 28.55L80.94063 28.55L80.94063 34.6125Q80.94063 35.3625 81.03438 35.58125Q81.12813 35.784374 81.33125 35.925Q81.55 36.05 81.94063 36.05Q82.22188 36.05 82.70625 35.971874ZM84.15938 34.45625L85.90938 34.175Q86.05 35.221874 86.72188 35.784374Q87.39375 36.33125 88.59688 36.33125Q89.8 36.33125 90.37813 35.846874Q90.97188 35.346874 90.97188 34.690624Q90.97188 34.096874 90.45625 33.753124Q90.09688 33.51875 88.65938 33.159374Q86.72188 32.659374 85.97188 32.315624Q85.2375 31.95625 84.84688 31.33125Q84.45625 30.690624 84.45625 29.925Q84.45625 29.2375 84.76875 28.64375Q85.09688 28.05 85.64375 27.659374Q86.05 27.3625 86.75313 27.159374Q87.47188 26.940624 88.28438 26.940624Q89.50313 26.940624 90.425 27.3Q91.34688 27.64375 91.78438 28.253124Q92.22188 28.846874 92.39375 29.846874L90.675 30.08125Q90.55 29.284374 89.9875 28.846874Q89.425 28.39375 88.40938 28.39375Q87.19063 28.39375 86.675 28.8Q86.15938 29.190624 86.15938 29.721874Q86.15938 30.065624 86.37813 30.346874Q86.58125 30.628124 87.05 30.815624Q87.31563 30.909374 88.59688 31.253124Q90.47188 31.753124 91.20625 32.08125Q91.94063 32.39375 92.3625 33.003124Q92.78438 33.596874 92.78438 34.503124Q92.78438 35.378124 92.26875 36.159374Q91.75313 36.940624 90.78438 37.3625Q89.81563 37.784374 88.59688 37.784374Q86.58125 37.784374 85.51875 36.940624Q84.45625 36.096874 84.15938 34.45625ZM100.19063 33.253124L100.19063 31.4875L105.58125 31.4875L105.58125 33.253124L100.19063 33.253124ZM114.09688 37.55L114.09688 23.2375L119.01875 23.2375Q120.69063 23.2375 121.58125 23.440624Q122.8 23.721874 123.675 24.45625Q124.8 25.425 125.3625 26.909374Q125.925 28.39375 125.925 30.315624Q125.925 31.940624 125.55 33.20625Q125.175 34.45625 124.56563 35.284374Q123.97188 36.1125 123.26875 36.596874Q122.56563 37.065624 121.56563 37.315624Q120.56563 37.55 119.25313 37.55L114.09688 37.55ZM115.9875 35.8625L119.05 35.8625Q120.45625 35.8625 121.25313 35.596874Q122.06563 35.33125 122.55 34.846874Q123.22188 34.175 123.59688 33.05Q123.97188 31.909374 123.97188 30.284374Q123.97188 28.034374 123.2375 26.83125Q122.50313 25.628124 121.44063 25.221874Q120.69063 24.925 119.00313 24.925L115.9875 24.925L115.9875 35.8625ZM134.97188 34.20625L136.78438 34.440624Q136.3625 36.01875 135.19063 36.909374Q134.03438 37.784374 132.22188 37.784374Q129.95625 37.784374 128.6125 36.39375Q127.28438 34.9875 127.28438 32.45625Q127.28438 29.83125 128.62813 28.39375Q129.97188 26.940624 132.12813 26.940624Q134.20625 26.940624 135.51875 28.3625Q136.84688 29.76875 136.84688 32.346874Q136.84688 32.503124 136.83125 32.815624L129.09688 32.815624Q129.19063 34.51875 130.06563 35.425Q130.94063 36.33125 132.2375 36.33125Q133.20625 36.33125 133.87813 35.83125Q134.56563 35.315624 134.97188 34.20625ZM129.19063 31.3625L134.9875 31.3625Q134.87813 30.065624 134.33125 29.409374Q133.4875 28.39375 132.14375 28.39375Q130.94063 28.39375 130.1125 29.20625Q129.28438 30.003124 129.19063 31.3625ZM138.15938 34.45625L139.90938 34.175Q140.05 35.221874 140.72188 35.784374Q141.39375 36.33125 142.59688 36.33125Q143.8 36.33125 144.37813 35.846874Q144.97188 35.346874 144.97188 34.690624Q144.97188 34.096874 144.45625 33.753124Q144.09688 33.51875 142.65938 33.159374Q140.72188 32.659374 139.97188 32.315624Q139.2375 31.95625 138.84688 31.33125Q138.45625 30.690624 138.45625 29.925Q138.45625 29.2375 138.76875 28.64375Q139.09688 28.05 139.64375 27.659374Q140.05 27.3625 140.75313 27.159374Q141.47188 26.940624 142.28438 26.940624Q143.50313 26.940624 144.425 27.3Q145.34688 27.64375 145.78438 28.253124Q146.22188 28.846874 146.39375 29.846874L144.675 30.08125Q144.55 29.284374 143.9875 28.846874Q143.425 28.39375 142.40938 28.39375Q141.19063 28.39375 140.675 28.8Q140.15938 29.190624 140.15938 29.721874Q140.15938 30.065624 140.37813 30.346874Q140.58125 30.628124 141.05 30.815624Q141.31563 30.909374 142.59688 31.253124Q144.47188 31.753124 145.20625 32.08125Q145.94063 32.39375 146.3625 33.003124Q146.78438 33.596874 146.78438 34.503124Q146.78438 35.378124 146.26875 36.159374Q145.75313 36.940624 144.78438 37.3625Q143.81563 37.784374 142.59688 37.784374Q140.58125 37.784374 139.51875 36.940624Q138.45625 36.096874 138.15938 34.45625ZM148.87813 37.55L148.87813 23.2375L150.64375 23.2375L150.64375 31.39375L154.8 27.175L157.06563 27.175L153.1125 31.01875L157.47188 37.55L155.3 37.55L151.87813 32.253124L150.64375 33.440624L150.64375 37.55L148.87813 37.55ZM162.70625 35.971874L162.95625 37.534374Q162.22188 37.690624 161.62813 37.690624Q160.675 37.690624 160.14375 37.39375Q159.62813 37.08125 159.40938 36.596874Q159.19063 36.096874 159.19063 34.51875L159.19063 28.55L157.90938 28.55L157.90938 27.175L159.19063 27.175L159.19063 24.6125L160.94063 23.55L160.94063 27.175L162.70625 27.175L162.70625 28.55L160.94063 28.55L160.94063 34.6125Q160.94063 35.3625 161.03438 35.58125Q161.12813 35.784374 161.33125 35.925Q161.55 36.05 161.94063 36.05Q162.22188 36.05 162.70625 35.971874ZM164.22188 32.3625Q164.22188 29.4875 165.81563 28.096874Q167.15938 26.940624 169.08125 26.940624Q171.22188 26.940624 172.56563 28.346874Q173.925 29.753124 173.925 32.221874Q173.925 34.221874 173.33125 35.378124Q172.7375 36.51875 171.58125 37.159374Q170.44063 37.784374 169.08125 37.784374Q166.89375 37.784374 165.55 36.39375Q164.22188 34.9875 164.22188 32.3625ZM166.01875 32.3625Q166.01875 34.3625 166.87813 35.346874Q167.75313 36.33125 169.08125 36.33125Q170.39375 36.33125 171.25313 35.346874Q172.12813 34.346874 172.12813 32.3Q172.12813 30.378124 171.25313 29.39375Q170.37813 28.39375 169.08125 28.39375Q167.75313 28.39375 166.87813 29.39375Q166.01875 30.378124 166.01875 32.3625ZM175.8625 41.51875L175.8625 27.175L177.47188 27.175L177.47188 28.51875Q178.03438 27.7375 178.7375 27.346874Q179.45625 26.940624 180.47188 26.940624Q181.8 26.940624 182.81563 27.628124Q183.83125 28.315624 184.34688 29.565624Q184.87813 30.8 184.87813 32.284374Q184.87813 33.878124 184.3 35.159374Q183.7375 36.425 182.64375 37.1125Q181.55 37.784374 180.34688 37.784374Q179.47188 37.784374 178.76875 37.409374Q178.08125 37.034374 177.62813 36.471874L177.62813 41.51875L175.8625 41.51875ZM177.45625 32.425Q177.45625 34.425 178.26875 35.378124Q179.08125 36.33125 180.2375 36.33125Q181.40938 36.33125 182.2375 35.346874Q183.08125 34.3625 183.08125 32.26875Q183.08125 30.3 182.25313 29.315624Q181.44063 28.315624 180.31563 28.315624Q179.19063 28.315624 178.31563 29.378124Q177.45625 30.425 177.45625 32.425ZM187.3625 29.175L187.3625 27.175L189.3625 27.175L189.3625 29.175L187.3625 29.175ZM187.3625 37.55L187.3625 35.55L189.3625 35.55L189.3625 37.55L187.3625 37.55ZM199.01875 37.55L199.01875 23.2375L200.90938 23.2375L200.90938 35.8625L207.95625 35.8625L207.95625 37.55L199.01875 37.55ZM216.64375 36.26875Q215.65938 37.096874 214.75313 37.440624Q213.84688 37.784374 212.81563 37.784374Q211.1125 37.784374 210.19063 36.95625Q209.26875 36.1125 209.26875 34.815624Q209.26875 34.05 209.6125 33.425Q209.97188 32.8 210.53438 32.425Q211.09688 32.034374 211.8 31.83125Q212.31563 31.70625 213.3625 31.565624Q215.4875 31.315624 216.4875 30.971874Q216.50313 30.6125 216.50313 30.503124Q216.50313 29.440624 216.00313 28.9875Q215.33125 28.39375 214.00313 28.39375Q212.75313 28.39375 212.15938 28.83125Q211.58125 29.26875 211.3 30.378124L209.58125 30.14375Q209.81563 29.034374 210.34688 28.3625Q210.87813 27.675 211.89375 27.315624Q212.90938 26.940624 214.25313 26.940624Q215.58125 26.940624 216.40938 27.253124Q217.2375 27.565624 217.62813 28.05Q218.01875 28.51875 218.175 29.2375Q218.26875 29.690624 218.26875 30.8625L218.26875 33.20625Q218.26875 35.659374 218.37813 36.315624Q218.4875 36.95625 218.83125 37.55L216.9875 37.55Q216.72188 37.003124 216.64375 36.26875ZM216.4875 32.346874Q215.53438 32.7375 213.6125 33.003124Q212.53438 33.159374 212.08125 33.3625Q211.64375 33.55 211.39375 33.925Q211.14375 34.3 211.14375 34.76875Q211.14375 35.471874 211.675 35.940624Q212.20625 36.409374 213.2375 36.409374Q214.25313 36.409374 215.03438 35.971874Q215.83125 35.51875 216.20625 34.753124Q216.4875 34.14375 216.4875 32.9875L216.4875 32.346874ZM224.70625 35.971874L224.95625 37.534374Q224.22188 37.690624 223.62813 37.690624Q222.675 37.690624 222.14375 37.39375Q221.62813 37.08125 221.40938 36.596874Q221.19063 36.096874 221.19063 34.51875L221.19063 28.55L219.90938 28.55L219.90938 27.175L221.19063 27.175L221.19063 24.6125L222.94063 23.55L222.94063 27.175L224.70625 27.175L224.70625 28.55L222.94063 28.55L222.94063 34.6125Q222.94063 35.3625 223.03438 35.58125Q223.12813 35.784374 223.33125 35.925Q223.55 36.05 223.94063 36.05Q224.22188 36.05 224.70625 35.971874ZM233.97188 34.20625L235.78438 34.440624Q235.3625 36.01875 234.19063 36.909374Q233.03438 37.784374 231.22188 37.784374Q228.95625 37.784374 227.6125 36.39375Q226.28438 34.9875 226.28438 32.45625Q226.28438 29.83125 227.62813 28.39375Q228.97188 26.940624 231.12813 26.940624Q233.20625 26.940624 234.51875 28.3625Q235.84688 29.76875 235.84688 32.346874Q235.84688 32.503124 235.83125 32.815624L228.09688 32.815624Q228.19063 34.51875 229.06563 35.425Q229.94063 36.33125 231.2375 36.33125Q232.20625 36.33125 232.87813 35.83125Q233.56563 35.315624 233.97188 34.20625ZM228.19063 31.3625L233.9875 31.3625Q233.87813 30.065624 233.33125 29.409374Q232.4875 28.39375 231.14375 28.39375Q229.94063 28.39375 229.1125 29.20625Q228.28438 30.003124 228.19063 31.3625ZM237.8625 37.55L237.8625 27.175L239.45625 27.175L239.45625 28.659374Q240.59688 26.940624 242.75313 26.940624Q243.69063 26.940624 244.47188 27.284374Q245.26875 27.6125 245.65938 28.159374Q246.05 28.70625 246.20625 29.45625Q246.3 29.95625 246.3 31.175L246.3 37.55L244.53438 37.55L244.53438 31.2375Q244.53438 30.159374 244.33125 29.628124Q244.12813 29.096874 243.59688 28.784374Q243.08125 28.471874 242.37813 28.471874Q241.25313 28.471874 240.44063 29.190624Q239.62813 29.89375 239.62813 31.878124L239.62813 37.55L237.8625 37.55ZM255.64375 33.753124L257.3625 33.971874Q257.08124 35.76875 255.90938 36.784374Q254.75313 37.784374 253.05 37.784374Q250.925 37.784374 249.62813 36.39375Q248.33125 35.003124 248.33125 32.409374Q248.33125 30.721874 248.87813 29.471874Q249.44063 28.20625 250.58125 27.58125Q251.72188 26.940624 253.06563 26.940624Q254.75313 26.940624 255.81563 27.8Q256.89374 28.659374 257.20624 30.221874L255.4875 30.4875Q255.25313 29.440624 254.62813 28.925Q254.00313 28.39375 253.12813 28.39375Q251.8 28.39375 250.97188 29.346874Q250.14375 30.3 250.14375 32.346874Q250.14375 34.440624 250.94063 35.39375Q251.7375 36.33125 253.03438 36.33125Q254.06563 36.33125 254.75313 35.70625Q255.45625 35.065624 255.64375 33.753124ZM258.78436 41.55L258.59686 39.89375Q259.175 40.05 259.59686 40.05Q260.1906 40.05 260.53436 39.846874Q260.89374 39.659374 261.1125 39.315624Q261.28436 39.05 261.65936 38.003124Q261.70624 37.846874 261.8156 37.565624L257.8781 27.175L259.76874 27.175L261.925 33.190624Q262.34686 34.33125 262.675 35.58125Q262.9875 34.378124 263.39374 33.221874L265.6125 27.175L267.3781 27.175L263.425 37.721874Q262.8 39.440624 262.4406 40.08125Q261.97186 40.95625 261.3625 41.346874Q260.76874 41.753124 259.925 41.753124Q259.40936 41.753124 258.78436 41.55ZM278.22186 41.753124Q276.76874 39.925 275.76874 37.471874Q274.76874 35.003124 274.76874 32.3625Q274.76874 30.034374 275.51874 27.909374Q276.39374 25.440624 278.22186 22.9875L279.4875 22.9875Q278.3 25.01875 277.925 25.89375Q277.33124 27.2375 276.9875 28.70625Q276.5656 30.534374 276.5656 32.378124Q276.5656 37.065624 279.4875 41.753124L278.22186 41.753124ZM281.8625 37.55L281.8625 27.175L283.4406 27.175L283.4406 28.628124Q283.925 27.878124 284.7375 27.409374Q285.55 26.940624 286.58124 26.940624Q287.7375 26.940624 288.47186 27.425Q289.20624 27.89375 289.51874 28.753124Q290.7531 26.940624 292.72186 26.940624Q294.26874 26.940624 295.09686 27.8Q295.925 28.659374 295.925 30.425L295.925 37.55L294.175 37.55L294.175 31.01875Q294.175 29.95625 294.0031 29.503124Q293.83124 29.034374 293.3781 28.753124Q292.9406 28.471874 292.33124 28.471874Q291.2375 28.471874 290.5031 29.20625Q289.78436 29.925 289.78436 31.51875L289.78436 37.55L288.03436 37.55L288.03436 30.815624Q288.03436 29.64375 287.59686 29.065624Q287.175 28.471874 286.1906 28.471874Q285.45624 28.471874 284.8156 28.8625Q284.1906 29.253124 283.90936 30.003124Q283.6281 30.753124 283.6281 32.175L283.6281 37.55L281.8625 37.55ZM298.15936 34.45625L299.90936 34.175Q300.05 35.221874 300.72186 35.784374Q301.39374 36.33125 302.59686 36.33125Q303.8 36.33125 304.3781 35.846874Q304.97186 35.346874 304.97186 34.690624Q304.97186 34.096874 304.45624 33.753124Q304.09686 33.51875 302.65936 33.159374Q300.72186 32.659374 299.97186 32.315624Q299.2375 31.95625 298.84686 31.33125Q298.45624 30.690624 298.45624 29.925Q298.45624 29.2375 298.76874 28.64375Q299.09686 28.05 299.64374 27.659374Q300.05 27.3625 300.7531 27.159374Q301.47186 26.940624 302.28436 26.940624Q303.5031 26.940624 304.425 27.3Q305.34686 27.64375 305.78436 28.253124Q306.22186 28.846874 306.39374 29.846874L304.675 30.08125Q304.55 29.284374 303.9875 28.846874Q303.425 28.39375 302.40936 28.39375Q301.1906 28.39375 300.675 28.8Q300.15936 29.190624 300.15936 29.721874Q300.15936 30.065624 300.3781 30.346874Q300.58124 30.628124 301.05 30.815624Q301.3156 30.909374 302.59686 31.253124Q304.47186 31.753124 305.20624 32.08125Q305.9406 32.39375 306.3625 33.003124Q306.78436 33.596874 306.78436 34.503124Q306.78436 35.378124 306.26874 36.159374Q305.7531 36.940624 304.78436 37.3625Q303.8156 37.784374 302.59686 37.784374Q300.58124 37.784374 299.51874 36.940624Q298.45624 36.096874 298.15936 34.45625ZM310.01874 41.753124L308.76874 41.753124Q311.675 37.065624 311.675 32.378124Q311.675 30.534374 311.26874 28.7375Q310.925 27.26875 310.33124 25.925Q309.95624 25.034374 308.76874 22.9875L310.01874 22.9875Q311.8625 25.440624 312.7375 27.909374Q313.4875 30.034374 313.4875 32.3625Q313.4875 35.003124 312.47186 37.471874Q311.47186 39.925 310.01874 41.753124Z" fill-rule="nonzero"/></svg>