<svg version="1.1" viewBox="0.0 0.0 600.0 371.0" fill="none" stroke="none" stroke-linecap="square" stroke-miterlimit="10" width="600" height="371" xmlns:xlink="http://www.w3.org/1999/xlink" xmlns="http://www.w3.org/2000/svg"><path fill="#ffffff" d="M0 0L600.0 0L600.0 371.0L0 371.0L0 0Z" fill-rule="nonzero"/><path stroke="#333333" stroke-width="1.0" stroke-linecap="butt" d="M71.5 300.5L581.5 300.5" fill-rule="nonzero"/><path stroke="#cccccc" stroke-width="1.0" stroke-linecap="butt" d="M71.5 247.5L581.5 247.5" fill-rule="nonzero"/><path stroke="#cccccc" stroke-width="1.0" stroke-linecap="butt" d="M71.5 194.5L581.5 194.5" fill-rule="nonzero"/><path stroke="#cccccc" stroke-width="1.0" stroke-linecap="butt" d="M71.5 141.5L581.5 141.5" fill-rule="nonzero"/><path stroke="#cccccc" stroke-width="1.0" stroke-linecap="butt" d="M71.5 88.5L581.5 88.5" fill-rule="nonzero"/><clipPath id="id_0"><path d="M71.55 88.28333L581.45 88.28333L581.45 300.45L71.55 300.45L71.55 88.28333Z" clip-rule="nonzero"/></clipPath><path stroke="#000000" stroke-width="0.0" stroke-linecap="butt" stroke-opacity="0.0" clip-path="url(#id_0)" d="M125.0 300.0L100.0 300.0L100.0 280.0C100.0 278.89542 100.89543 278.0 102.0 278.0L123.0 278.0C124.10457 278.0 125.0 278.89542 125.0 280.0Z" fill-rule="nonzero"/><path fill="#6db33f" clip-path="url(#id_0)" d="M125.0 300.0L100.0 300.0L100.0 280.0C100.0 278.89542 100.89543 278.0 102.0 278.0L123.0 278.0C124.10457 278.0 125.0 278.89542 125.0 280.0Z" fill-rule="nonzero"/><path stroke="#000000" stroke-width="0.0" stroke-linecap="butt" stroke-opacity="0.0" clip-path="url(#id_0)" d="M205.0 300.0L180.0 300.0L180.0 262.0C180.0 260.89542 180.89543 260.0 182.0 260.0L203.0 260.0C204.10457 260.0 205.0 260.89542 205.0 262.0Z" fill-rule="nonzero"/><path fill="#6db33f" clip-path="url(#id_0)" d="M205.0 300.0L180.0 300.0L180.0 262.0C180.0 260.89542 180.89543 260.0 182.0 260.0L203.0 260.0C204.10457 260.0 205.0 260.89542 205.0 262.0Z" fill-rule="nonzero"/><path stroke="#000000" stroke-width="0.0" stroke-linecap="butt" stroke-opacity="0.0" clip-path="url(#id_0)" d="M285.0 300.0L260.0 300.0L260.0 233.0C260.0 231.89543 260.89542 231.0 262.0 231.0L283.0 231.0C284.10458 231.0 285.0 231.89543 285.0 233.0Z" fill-rule="nonzero"/><path fill="#6db33f" clip-path="url(#id_0)" d="M285.0 300.0L260.0 300.0L260.0 233.0C260.0 231.89543 260.89542 231.0 262.0 231.0L283.0 231.0C284.10458 231.0 285.0 231.89543 285.0 233.0Z" fill-rule="nonzero"/><path stroke="#000000" stroke-width="0.0" stroke-linecap="butt" stroke-opacity="0.0" clip-path="url(#id_0)" d="M366.0 300.0L341.0 300.0L341.0 204.0C341.0 202.89543 341.89542 202.0 343.0 202.0L364.0 202.0C365.10458 202.0 366.0 202.89543 366.0 204.0Z" fill-rule="nonzero"/><path fill="#6db33f" clip-path="url(#id_0)" d="M366.0 300.0L341.0 300.0L341.0 204.0C341.0 202.89543 341.89542 202.0 343.0 202.0L364.0 202.0C365.10458 202.0 366.0 202.89543 366.0 204.0Z" fill-rule="nonzero"/><path stroke="#000000" stroke-width="0.0" stroke-linecap="butt" stroke-opacity="0.0" clip-path="url(#id_0)" d="M446.0 300.0L421.0 300.0L421.0 174.0C421.0 172.89543 421.89542 172.0 423.0 172.0L444.0 172.0C445.10458 172.0 446.0 172.89543 446.0 174.0Z" fill-rule="nonzero"/><path fill="#6db33f" clip-path="url(#id_0)" d="M446.0 300.0L421.0 300.0L421.0 174.0C421.0 172.89543 421.89542 172.0 423.0 172.0L444.0 172.0C445.10458 172.0 446.0 172.89543 446.0 174.0Z" fill-rule="nonzero"/><path stroke="#000000" stroke-width="0.0" stroke-linecap="butt" stroke-opacity="0.0" clip-path="url(#id_0)" d="M526.0 300.0L501.0 300.0L501.0 156.0C501.0 154.89543 501.89542 154.0 503.0 154.0L524.0 154.0C525.10455 154.0 526.0 154.89543 526.0 156.0Z" fill-rule="nonzero"/><path fill="#6db33f" clip-path="url(#id_0)" d="M526.0 300.0L501.0 300.0L501.0 156.0C501.0 154.89543 501.89542 154.0 503.0 154.0L524.0 154.0C525.10455 154.0 526.0 154.89543 526.0 156.0Z" fill-rule="nonzero"/><path stroke="#000000" stroke-width="0.0" stroke-linecap="butt" stroke-opacity="0.0" clip-path="url(#id_0)" d="M151.0 300.0L126.0 300.0L126.0 268.0C126.0 266.89542 126.89543 266.0 128.0 266.0L149.0 266.0C150.10457 266.0 151.0 266.89542 151.0 268.0Z" fill-rule="nonzero"/><path fill="#782b90" clip-path="url(#id_0)" d="M151.0 300.0L126.0 300.0L126.0 268.0C126.0 266.89542 126.89543 266.0 128.0 266.0L149.0 266.0C150.10457 266.0 151.0 266.89542 151.0 268.0Z" fill-rule="nonzero"/><path stroke="#000000" stroke-width="0.0" stroke-linecap="butt" stroke-opacity="0.0" clip-path="url(#id_0)" d="M231.0 300.0L206.0 300.0L206.0 252.0C206.0 250.89543 206.89543 250.0 208.0 250.0L229.0 250.0C230.10457 250.0 231.0 250.89543 231.0 252.0Z" fill-rule="nonzero"/><path fill="#782b90" clip-path="url(#id_0)" d="M231.0 300.0L206.0 300.0L206.0 252.0C206.0 250.89543 206.89543 250.0 208.0 250.0L229.0 250.0C230.10457 250.0 231.0 250.89543 231.0 252.0Z" fill-rule="nonzero"/><path stroke="#000000" stroke-width="0.0" stroke-linecap="butt" stroke-opacity="0.0" clip-path="url(#id_0)" d="M311.0 300.0L286.0 300.0L286.0 218.0C286.0 216.89543 286.89542 216.0 288.0 216.0L309.0 216.0C310.10458 216.0 311.0 216.89543 311.0 218.0Z" fill-rule="nonzero"/><path fill="#782b90" clip-path="url(#id_0)" d="M311.0 300.0L286.0 300.0L286.0 218.0C286.0 216.89543 286.89542 216.0 288.0 216.0L309.0 216.0C310.10458 216.0 311.0 216.89543 311.0 218.0Z" fill-rule="nonzero"/><path stroke="#000000" stroke-width="0.0" stroke-linecap="butt" stroke-opacity="0.0" clip-path="url(#id_0)" d="M392.0 300.0L367.0 300.0L367.0 182.0C367.0 180.89543 367.89542 180.0 369.0 180.0L390.0 180.0C391.10458 180.0 392.0 180.89543 392.0 182.0Z" fill-rule="nonzero"/><path fill="#782b90" clip-path="url(#id_0)" d="M392.0 300.0L367.0 300.0L367.0 182.0C367.0 180.89543 367.89542 180.0 369.0 180.0L390.0 180.0C391.10458 180.0 392.0 180.89543 392.0 182.0Z" fill-rule="nonzero"/><path stroke="#000000" stroke-width="0.0" stroke-linecap="butt" stroke-opacity="0.0" clip-path="url(#id_0)" d="M472.0 300.0L447.0 300.0L447.0 135.0C447.0 133.89543 447.89542 133.0 449.0 133.0L470.0 133.0C471.10458 133.0 472.0 133.89543 472.0 135.0Z" fill-rule="nonzero"/><path fill="#782b90" clip-path="url(#id_0)" d="M472.0 300.0L447.0 300.0L447.0 135.0C447.0 133.89543 447.89542 133.0 449.0 133.0L470.0 133.0C471.10458 133.0 472.0 133.89543 472.0 135.0Z" fill-rule="nonzero"/><path stroke="#000000" stroke-width="0.0" stroke-linecap="butt" stroke-opacity="0.0" clip-path="url(#id_0)" d="M552.0 300.0L527.0 300.0L527.0 124.0C527.0 122.89543 527.89545 122.0 529.0 122.0L550.0 122.0C551.10455 122.0 552.0 122.89543 552.0 124.0Z" fill-rule="nonzero"/><path fill="#782b90" clip-path="url(#id_0)" d="M552.0 300.0L527.0 300.0L527.0 124.0C527.0 122.89543 527.89545 122.0 529.0 122.0L550.0 122.0C551.10455 122.0 552.0 122.89543 552.0 124.0Z" fill-rule="nonzero"/><path fill="#000000" d="M299.0625 346.4344L300.1875 346.73126Q299.82812 348.1219 298.90625 348.85626Q297.98438 349.59064 296.64062 349.59064Q295.25 349.59064 294.375 349.02814Q293.5 348.46564 293.04688 347.40314Q292.59375 346.325 292.59375 345.09064Q292.59375 343.7469 293.10938 342.7469Q293.625 341.7469 294.5625 341.23126Q295.51562 340.71564 296.65625 340.71564Q297.9375 340.71564 298.8125 341.3719Q299.70312 342.02814 300.04688 343.21564L298.92188 343.48126Q298.625 342.54376 298.04688 342.1219Q297.48438 341.6844 296.625 341.6844Q295.64062 341.6844 294.96875 342.16876Q294.3125 342.6375 294.03125 343.4344Q293.76562 344.23126 293.76562 345.09064Q293.76562 346.1844 294.07812 346.9969Q294.40625 347.8094 295.07812 348.21564Q295.75 348.6219 296.54688 348.6219Q297.5 348.6219 298.15625 348.075Q298.82812 347.52814 299.0625 346.4344ZM301.40625 346.34064Q301.40625 344.60626 302.35938 343.77814Q303.15625 343.09064 304.3125 343.09064Q305.59375 343.09064 306.40625 343.9344Q307.23438 344.7625 307.23438 346.2469Q307.23438 347.45 306.875 348.1375Q306.51562 348.825 305.8125 349.21564Q305.125 349.59064 304.3125 349.59064Q303.01562 349.59064 302.20312 348.7625Q301.40625 347.91876 301.40625 346.34064ZM302.48438 346.34064Q302.48438 347.52814 303.0 348.1219Q303.53125 348.71564 304.3125 348.71564Q305.10938 348.71564 305.625 348.1219Q306.14062 347.52814 306.14062 346.3094Q306.14062 345.15314 305.60938 344.5594Q305.09375 343.96564 304.3125 343.96564Q303.53125 343.96564 303.0 344.5594Q302.48438 345.1375 302.48438 346.34064ZM308.79688 349.45L308.79688 343.23126L309.73438 343.23126L309.73438 344.10626Q310.42188 343.09064 311.71875 343.09064Q312.28125 343.09064 312.75 343.29376Q313.23438 343.4969 313.46875 343.825Q313.70312 344.15314 313.79688 344.59064Q313.84375 344.8875 313.84375 345.6219L313.84375 349.45L312.79688 349.45L312.79688 345.66876Q312.79688 345.0125 312.67188 344.7Q312.54688 344.3875 312.23438 344.2Q311.92188 343.9969 311.5 343.9969Q310.82812 343.9969 310.32812 344.4344Q309.84375 344.85626 309.84375 346.04376L309.84375 349.45L308.79688 349.45ZM315.79688 349.45L315.79688 343.23126L316.73438 343.23126L316.73438 344.10626Q317.42188 343.09064 318.71875 343.09064Q319.28125 343.09064 319.75 343.29376Q320.23438 343.4969 320.46875 343.825Q320.70312 344.15314 320.79688 344.59064Q320.84375 344.8875 320.84375 345.6219L320.84375 349.45L319.79688 349.45L319.79688 345.66876Q319.79688 345.0125 319.67188 344.7Q319.54688 344.3875 319.23438 344.2Q318.92188 343.9969 318.5 343.9969Q317.82812 343.9969 317.32812 344.4344Q316.84375 344.85626 316.84375 346.04376L316.84375 349.45L315.79688 349.45ZM327.04688 347.45L328.14062 347.575Q327.89062 348.52814 327.1875 349.0594Q326.48438 349.59064 325.40625 349.59064Q324.04688 349.59064 323.23438 348.7469Q322.4375 347.90314 322.4375 346.3875Q322.4375 344.825 323.25 343.96564Q324.0625 343.09064 325.34375 343.09064Q326.59375 343.09064 327.375 343.9344Q328.17188 344.77814 328.17188 346.325Q328.17188 346.41876 328.17188 346.60626L323.53125 346.60626Q323.59375 347.6375 324.10938 348.1844Q324.625 348.71564 325.40625 348.71564Q325.98438 348.71564 326.39062 348.41876Q326.8125 348.10626 327.04688 347.45ZM323.59375 345.7469L327.0625 345.7469Q327.0 344.95 326.67188 344.5594Q326.15625 343.95 325.35938 343.95Q324.625 343.95 324.125 344.4344Q323.64062 344.91876 323.59375 345.7469ZM333.85938 347.16876L334.89062 347.3094Q334.71875 348.3719 334.01562 348.98126Q333.3125 349.59064 332.29688 349.59064Q331.01562 349.59064 330.23438 348.7625Q329.46875 347.91876 329.46875 346.35626Q329.46875 345.35626 329.79688 344.60626Q330.14062 343.84064 330.8125 343.46564Q331.5 343.09064 332.3125 343.09064Q333.3125 343.09064 333.95312 343.60626Q334.60938 344.10626 334.79688 345.0594L333.76562 345.21564Q333.625 344.59064 333.25 344.27814Q332.875 343.95 332.34375 343.95Q331.54688 343.95 331.04688 344.52814Q330.54688 345.09064 330.54688 346.325Q330.54688 347.59064 331.03125 348.15314Q331.51562 348.71564 332.28125 348.71564Q332.90625 348.71564 333.3125 348.34064Q333.73438 347.96564 333.85938 347.16876ZM338.09375 348.5125L338.25 349.4344Q337.79688 349.52814 337.45312 349.52814Q336.875 349.52814 336.5625 349.35626Q336.25 349.16876 336.10938 348.8719Q335.98438 348.575 335.98438 347.6219L335.98438 344.04376L335.21875 344.04376L335.21875 343.23126L335.98438 343.23126L335.98438 341.6844L337.03125 341.0594L337.03125 343.23126L338.09375 343.23126L338.09375 344.04376L337.03125 344.04376L337.03125 347.6844Q337.03125 348.1375 337.07812 348.2625Q337.14062 348.3875 337.26562 348.46564Q337.39062 348.54376 337.625 348.54376Q337.8125 348.54376 338.09375 348.5125ZM338.79688 342.075L338.79688 340.85626L339.85938 340.85626L339.85938 342.075L338.79688 342.075ZM338.79688 349.45L338.79688 343.23126L339.85938 343.23126L339.85938 349.45L338.79688 349.45ZM341.40625 346.34064Q341.40625 344.60626 342.35938 343.77814Q343.15625 343.09064 344.3125 343.09064Q345.59375 343.09064 346.40625 343.9344Q347.23438 344.7625 347.23438 346.2469Q347.23438 347.45 346.875 348.1375Q346.51562 348.825 345.8125 349.21564Q345.125 349.59064 344.3125 349.59064Q343.01562 349.59064 342.20312 348.7625Q341.40625 347.91876 341.40625 346.34064ZM342.48438 346.34064Q342.48438 347.52814 343.0 348.1219Q343.53125 348.71564 344.3125 348.71564Q345.10938 348.71564 345.625 348.1219Q346.14062 347.52814 346.14062 346.3094Q346.14062 345.15314 345.60938 344.5594Q345.09375 343.96564 344.3125 343.96564Q343.53125 343.96564 343.0 344.5594Q342.48438 345.1375 342.48438 346.34064ZM348.79688 349.45L348.79688 343.23126L349.73438 343.23126L349.73438 344.10626Q350.42188 343.09064 351.71875 343.09064Q352.28125 343.09064 352.75 343.29376Q353.23438 343.4969 353.46875 343.825Q353.70312 344.15314 353.79688 344.59064Q353.84375 344.8875 353.84375 345.6219L353.84375 349.45L352.79688 349.45L352.79688 345.66876Q352.79688 345.0125 352.67188 344.7Q352.54688 344.3875 352.23438 344.2Q351.92188 343.9969 351.5 343.9969Q350.82812 343.9969 350.32812 344.4344Q349.84375 344.85626 349.84375 346.04376L349.84375 349.45L348.79688 349.45ZM355.375 347.59064L356.40625 347.4344Q356.5 348.0594 356.89062 348.3875Q357.29688 348.71564 358.03125 348.71564Q358.75 348.71564 359.09375 348.4344Q359.45312 348.1375 359.45312 347.73126Q359.45312 347.3719 359.14062 347.16876Q358.92188 347.02814 358.0625 346.8094Q356.90625 346.5125 356.45312 346.3094Q356.01562 346.09064 355.78125 345.71564Q355.54688 345.34064 355.54688 344.8719Q355.54688 344.46564 355.73438 344.10626Q355.92188 343.7469 356.25 343.5125Q356.5 343.34064 356.92188 343.21564Q357.34375 343.09064 357.84375 343.09064Q358.5625 343.09064 359.10938 343.3094Q359.67188 343.5125 359.9375 343.8719Q360.20312 344.23126 360.29688 344.825L359.26562 344.96564Q359.20312 344.4969 358.85938 344.23126Q358.53125 343.95 357.90625 343.95Q357.1875 343.95 356.875 344.2Q356.5625 344.4344 356.5625 344.7625Q356.5625 344.96564 356.6875 345.1219Q356.82812 345.29376 357.09375 345.40314Q357.25 345.46564 358.03125 345.66876Q359.15625 345.98126 359.59375 346.16876Q360.03125 346.35626 360.28125 346.71564Q360.53125 347.075 360.53125 347.6219Q360.53125 348.15314 360.21875 348.6219Q359.92188 349.075 359.34375 349.34064Q358.76562 349.59064 358.03125 349.59064Q356.8125 349.59064 356.17188 349.09064Q355.54688 348.575 355.375 347.59064Z" fill-rule="nonzero"/><path fill="#000000" d="M42.05 300.21564Q42.05 298.6844 42.3625 297.7625Q42.675 296.825 43.284374 296.325Q43.909374 295.825 44.846874 295.825Q45.534374 295.825 46.05 296.10626Q46.58125 296.3875 46.925 296.91876Q47.26875 297.4344 47.45625 298.1844Q47.64375 298.9344 47.64375 300.21564Q47.64375 301.73126 47.33125 302.65314Q47.034374 303.575 46.409374 304.09064Q45.8 304.59064 44.846874 304.59064Q43.6125 304.59064 42.89375 303.7Q42.05 302.6375 42.05 300.21564ZM43.128124 300.21564Q43.128124 302.325 43.628124 303.02814Q44.128124 303.73126 44.846874 303.73126Q45.58125 303.73126 46.065624 303.02814Q46.565624 302.325 46.565624 300.21564Q46.565624 298.09064 46.065624 297.40314Q45.58125 296.7 44.83125 296.7Q44.1125 296.7 43.675 297.3094Q43.128124 298.09064 43.128124 300.21564ZM49.6125 304.45L49.6125 303.2469L50.815624 303.2469L50.815624 304.45Q50.815624 305.10626 50.58125 305.5125Q50.346874 305.9344 49.846874 306.15314L49.55 305.7Q49.878124 305.5594 50.034374 305.2625Q50.190624 304.98126 50.221874 304.45L49.6125 304.45ZM52.05 300.21564Q52.05 298.6844 52.3625 297.7625Q52.675 296.825 53.284374 296.325Q53.909374 295.825 54.846874 295.825Q55.534374 295.825 56.05 296.10626Q56.58125 296.3875 56.925 296.91876Q57.26875 297.4344 57.45625 298.1844Q57.64375 298.9344 57.64375 300.21564Q57.64375 301.73126 57.33125 302.65314Q57.034374 303.575 56.409374 304.09064Q55.8 304.59064 54.846874 304.59064Q53.6125 304.59064 52.89375 303.7Q52.05 302.6375 52.05 300.21564ZM53.128124 300.21564Q53.128124 302.325 53.628124 303.02814Q54.128124 303.73126 54.846874 303.73126Q55.58125 303.73126 56.065624 303.02814Q56.565624 302.325 56.565624 300.21564Q56.565624 298.09064 56.065624 297.40314Q55.58125 296.7 54.83125 296.7Q54.1125 296.7 53.675 297.3094Q53.128124 298.09064 53.128124 300.21564ZM59.05 300.21564Q59.05 298.6844 59.3625 297.7625Q59.675 296.825 60.284374 296.325Q60.909374 295.825 61.846874 295.825Q62.534374 295.825 63.05 296.10626Q63.58125 296.3875 63.925 296.91876Q64.26875 297.4344 64.45625 298.1844Q64.64375 298.9344 64.64375 300.21564Q64.64375 301.73126 64.33125 302.65314Q64.03438 303.575 63.409374 304.09064Q62.8 304.59064 61.846874 304.59064Q60.6125 304.59064 59.89375 303.7Q59.05 302.6375 59.05 300.21564ZM60.128124 300.21564Q60.128124 302.325 60.628124 303.02814Q61.128124 303.73126 61.846874 303.73126Q62.58125 303.73126 63.065624 303.02814Q63.565624 302.325 63.565624 300.21564Q63.565624 298.09064 63.065624 297.40314Q62.58125 296.7 61.83125 296.7Q61.1125 296.7 60.675 297.3094Q60.128124 298.09064 60.128124 300.21564Z" fill-rule="nonzero"/><path fill="#000000" d="M28.05 249.15834L29.159374 249.06459Q29.284374 249.87709 29.721874 250.28334Q30.175 250.68959 30.815624 250.68959Q31.565624 250.68959 32.096874 250.11147Q32.628124 249.53334 32.628124 248.59584Q32.628124 247.68959 32.1125 247.17397Q31.6125 246.64272 30.784374 246.64272Q30.284374 246.64272 29.8625 246.87709Q29.45625 247.11147 29.221874 247.47084L28.2375 247.34584L29.065624 242.93959L33.346874 242.93959L33.346874 243.93959L29.909374 243.93959L29.45625 246.25209Q30.221874 245.70522 31.065624 245.70522Q32.190624 245.70522 32.95625 246.48647Q33.7375 247.26772 33.7375 248.50209Q33.7375 249.65834 33.065624 250.51772Q32.2375 251.54897 30.815624 251.54897Q29.64375 251.54897 28.89375 250.89272Q28.159374 250.23647 28.05 249.15834ZM35.05 247.17397Q35.05 245.64272 35.3625 244.72084Q35.675 243.78334 36.284374 243.28334Q36.909374 242.78334 37.846874 242.78334Q38.534374 242.78334 39.05 243.06459Q39.58125 243.34584 39.925 243.87709Q40.26875 244.39272 40.45625 245.14272Q40.64375 245.89272 40.64375 247.17397Q40.64375 248.68959 40.33125 249.61147Q40.034374 250.53334 39.409374 251.04897Q38.8 251.54897 37.846874 251.54897Q36.6125 251.54897 35.89375 250.65834Q35.05 249.59584 35.05 247.17397ZM36.128124 247.17397Q36.128124 249.28334 36.628124 249.98647Q37.128124 250.68959 37.846874 250.68959Q38.58125 250.68959 39.065624 249.98647Q39.565624 249.28334 39.565624 247.17397Q39.565624 245.04897 39.065624 244.36147Q38.58125 243.65834 37.83125 243.65834Q37.1125 243.65834 36.675 244.26772Q36.128124 245.04897 36.128124 247.17397ZM42.05 247.17397Q42.05 245.64272 42.3625 244.72084Q42.675 243.78334 43.284374 243.28334Q43.909374 242.78334 44.846874 242.78334Q45.534374 242.78334 46.05 243.06459Q46.58125 243.34584 46.925 243.87709Q47.26875 244.39272 47.45625 245.14272Q47.64375 245.89272 47.64375 247.17397Q47.64375 248.68959 47.33125 249.61147Q47.034374 250.53334 46.409374 251.04897Q45.8 251.54897 44.846874 251.54897Q43.6125 251.54897 42.89375 250.65834Q42.05 249.59584 42.05 247.17397ZM43.128124 247.17397Q43.128124 249.28334 43.628124 249.98647Q44.128124 250.68959 44.846874 250.68959Q45.58125 250.68959 46.065624 249.98647Q46.565624 249.28334 46.565624 247.17397Q46.565624 245.04897 46.065624 244.36147Q45.58125 243.65834 44.83125 243.65834Q44.1125 243.65834 43.675 244.26772Q43.128124 245.04897 43.128124 247.17397ZM49.6125 251.40834L49.6125 250.20522L50.815624 250.20522L50.815624 251.40834Q50.815624 252.06459 50.58125 252.47084Q50.346874 252.89272 49.846874 253.11147L49.55 252.65834Q49.878124 252.51772 50.034374 252.22084Q50.190624 251.93959 50.221874 251.40834L49.6125 251.40834ZM52.05 247.17397Q52.05 245.64272 52.3625 244.72084Q52.675 243.78334 53.284374 243.28334Q53.909374 242.78334 54.846874 242.78334Q55.534374 242.78334 56.05 243.06459Q56.58125 243.34584 56.925 243.87709Q57.26875 244.39272 57.45625 245.14272Q57.64375 245.89272 57.64375 247.17397Q57.64375 248.68959 57.33125 249.61147Q57.034374 250.53334 56.409374 251.04897Q55.8 251.54897 54.846874 251.54897Q53.6125 251.54897 52.89375 250.65834Q52.05 249.59584 52.05 247.17397ZM53.128124 247.17397Q53.128124 249.28334 53.628124 249.98647Q54.128124 250.68959 54.846874 250.68959Q55.58125 250.68959 56.065624 249.98647Q56.565624 249.28334 56.565624 247.17397Q56.565624 245.04897 56.065624 244.36147Q55.58125 243.65834 54.83125 243.65834Q54.1125 243.65834 53.675 244.26772Q53.128124 245.04897 53.128124 247.17397ZM59.05 247.17397Q59.05 245.64272 59.3625 244.72084Q59.675 243.78334 60.284374 243.28334Q60.909374 242.78334 61.846874 242.78334Q62.534374 242.78334 63.05 243.06459Q63.58125 243.34584 63.925 243.87709Q64.26875 244.39272 64.45625 245.14272Q64.64375 245.89272 64.64375 247.17397Q64.64375 248.68959 64.33125 249.61147Q64.03438 250.53334 63.409374 251.04897Q62.8 251.54897 61.846874 251.54897Q60.6125 251.54897 59.89375 250.65834Q59.05 249.59584 59.05 247.17397ZM60.128124 247.17397Q60.128124 249.28334 60.628124 249.98647Q61.128124 250.68959 61.846874 250.68959Q62.58125 250.68959 63.065624 249.98647Q63.565624 249.28334 63.565624 247.17397Q63.565624 245.04897 63.065624 244.36147Q62.58125 243.65834 61.83125 243.65834Q61.1125 243.65834 60.675 244.26772Q60.128124 245.04897 60.128124 247.17397Z" fill-rule="nonzero"/><path fill="#000000" d="M23.01875 198.36667L21.971874 198.36667L21.971874 191.64792Q21.58125 192.0073 20.95625 192.3823Q20.346874 192.74167 19.8625 192.91354L19.8625 191.89792Q20.7375 191.47604 21.39375 190.89792Q22.065624 190.30417 22.346874 189.74167L23.01875 189.74167L23.01875 198.36667ZM25.55 198.36667L25.55 198.36667ZM28.05 194.1323Q28.05 192.60104 28.3625 191.67917Q28.675 190.74167 29.284374 190.24167Q29.909374 189.74167 30.846874 189.74167Q31.534374 189.74167 32.05 190.02292Q32.58125 190.30417 32.925 190.83542Q33.26875 191.35104 33.45625 192.10104Q33.64375 192.85104 33.64375 194.1323Q33.64375 195.64792 33.33125 196.5698Q33.034374 197.49167 32.409374 198.0073Q31.8 198.5073 30.846874 198.5073Q29.6125 198.5073 28.89375 197.61667Q28.05 196.55417 28.05 194.1323ZM29.128124 194.1323Q29.128124 196.24167 29.628124 196.9448Q30.128124 197.64792 30.846874 197.64792Q31.58125 197.64792 32.065624 196.9448Q32.565624 196.24167 32.565624 194.1323Q32.565624 192.0073 32.065624 191.3198Q31.58125 190.61667 30.83125 190.61667Q30.1125 190.61667 29.675 191.22604Q29.128124 192.0073 29.128124 194.1323ZM35.05 194.1323Q35.05 192.60104 35.3625 191.67917Q35.675 190.74167 36.284374 190.24167Q36.909374 189.74167 37.846874 189.74167Q38.534374 189.74167 39.05 190.02292Q39.58125 190.30417 39.925 190.83542Q40.26875 191.35104 40.45625 192.10104Q40.64375 192.85104 40.64375 194.1323Q40.64375 195.64792 40.33125 196.5698Q40.034374 197.49167 39.409374 198.0073Q38.8 198.5073 37.846874 198.5073Q36.6125 198.5073 35.89375 197.61667Q35.05 196.55417 35.05 194.1323ZM36.128124 194.1323Q36.128124 196.24167 36.628124 196.9448Q37.128124 197.64792 37.846874 197.64792Q38.58125 197.64792 39.065624 196.9448Q39.565624 196.24167 39.565624 194.1323Q39.565624 192.0073 39.065624 191.3198Q38.58125 190.61667 37.83125 190.61667Q37.1125 190.61667 36.675 191.22604Q36.128124 192.0073 36.128124 194.1323ZM42.05 194.1323Q42.05 192.60104 42.3625 191.67917Q42.675 190.74167 43.284374 190.24167Q43.909374 189.74167 44.846874 189.74167Q45.534374 189.74167 46.05 190.02292Q46.58125 190.30417 46.925 190.83542Q47.26875 191.35104 47.45625 192.10104Q47.64375 192.85104 47.64375 194.1323Q47.64375 195.64792 47.33125 196.5698Q47.034374 197.49167 46.409374 198.0073Q45.8 198.5073 44.846874 198.5073Q43.6125 198.5073 42.89375 197.61667Q42.05 196.55417 42.05 194.1323ZM43.128124 194.1323Q43.128124 196.24167 43.628124 196.9448Q44.128124 197.64792 44.846874 197.64792Q45.58125 197.64792 46.065624 196.9448Q46.565624 196.24167 46.565624 194.1323Q46.565624 192.0073 46.065624 191.3198Q45.58125 190.61667 44.83125 190.61667Q44.1125 190.61667 43.675 191.22604Q43.128124 192.0073 43.128124 194.1323ZM49.6125 198.36667L49.6125 197.16354L50.815624 197.16354L50.815624 198.36667Q50.815624 199.02292 50.58125 199.42917Q50.346874 199.85104 49.846874 200.0698L49.55 199.61667Q49.878124 199.47604 50.034374 199.17917Q50.190624 198.89792 50.221874 198.36667L49.6125 198.36667ZM52.05 194.1323Q52.05 192.60104 52.3625 191.67917Q52.675 190.74167 53.284374 190.24167Q53.909374 189.74167 54.846874 189.74167Q55.534374 189.74167 56.05 190.02292Q56.58125 190.30417 56.925 190.83542Q57.26875 191.35104 57.45625 192.10104Q57.64375 192.85104 57.64375 194.1323Q57.64375 195.64792 57.33125 196.5698Q57.034374 197.49167 56.409374 198.0073Q55.8 198.5073 54.846874 198.5073Q53.6125 198.5073 52.89375 197.61667Q52.05 196.55417 52.05 194.1323ZM53.128124 194.1323Q53.128124 196.24167 53.628124 196.9448Q54.128124 197.64792 54.846874 197.64792Q55.58125 197.64792 56.065624 196.9448Q56.565624 196.24167 56.565624 194.1323Q56.565624 192.0073 56.065624 191.3198Q55.58125 190.61667 54.83125 190.61667Q54.1125 190.61667 53.675 191.22604Q53.128124 192.0073 53.128124 194.1323ZM59.05 194.1323Q59.05 192.60104 59.3625 191.67917Q59.675 190.74167 60.284374 190.24167Q60.909374 189.74167 61.846874 189.74167Q62.534374 189.74167 63.05 190.02292Q63.58125 190.30417 63.925 190.83542Q64.26875 191.35104 64.45625 192.10104Q64.64375 192.85104 64.64375 194.1323Q64.64375 195.64792 64.33125 196.5698Q64.03438 197.49167 63.409374 198.0073Q62.8 198.5073 61.846874 198.5073Q60.6125 198.5073 59.89375 197.61667Q59.05 196.55417 59.05 194.1323ZM60.128124 194.1323Q60.128124 196.24167 60.628124 196.9448Q61.128124 197.64792 61.846874 197.64792Q62.58125 197.64792 63.065624 196.9448Q63.565624 196.24167 63.565624 194.1323Q63.565624 192.0073 63.065624 191.3198Q62.58125 190.61667 61.83125 190.61667Q61.1125 190.61667 60.675 191.22604Q60.128124 192.0073 60.128124 194.1323Z" fill-rule="nonzero"/><path fill="#000000" d="M23.01875 145.325L21.971874 145.325L21.971874 138.60625Q21.58125 138.96562 20.95625 139.34062Q20.346874 139.7 19.8625 139.87187L19.8625 138.85625Q20.7375 138.43437 21.39375 137.85625Q22.065624 137.2625 22.346874 136.7L23.01875 136.7L23.01875 145.325ZM25.55 145.325L25.55 145.325ZM28.05 143.075L29.159374 142.98125Q29.284374 143.79375 29.721874 144.2Q30.175 144.60625 30.815624 144.60625Q31.565624 144.60625 32.096874 144.02812Q32.628124 143.45 32.628124 142.5125Q32.628124 141.60625 32.1125 141.09062Q31.6125 140.55937 30.784374 140.55937Q30.284374 140.55937 29.8625 140.79375Q29.45625 141.02812 29.221874 141.3875L28.2375 141.2625L29.065624 136.85625L33.346874 136.85625L33.346874 137.85625L29.909374 137.85625L29.45625 140.16875Q30.221874 139.62187 31.065624 139.62187Q32.190624 139.62187 32.95625 140.40312Q33.7375 141.18437 33.7375 142.41875Q33.7375 143.575 33.065624 144.43437Q32.2375 145.46562 30.815624 145.46562Q29.64375 145.46562 28.89375 144.80937Q28.159374 144.15312 28.05 143.075ZM35.05 141.09062Q35.05 139.55937 35.3625 138.6375Q35.675 137.7 36.284374 137.2Q36.909374 136.7 37.846874 136.7Q38.534374 136.7 39.05 136.98125Q39.58125 137.2625 39.925 137.79375Q40.26875 138.30937 40.45625 139.05937Q40.64375 139.80937 40.64375 141.09062Q40.64375 142.60625 40.33125 143.52812Q40.034374 144.45 39.409374 144.96562Q38.8 145.46562 37.846874 145.46562Q36.6125 145.46562 35.89375 144.575Q35.05 143.5125 35.05 141.09062ZM36.128124 141.09062Q36.128124 143.2 36.628124 143.90312Q37.128124 144.60625 37.846874 144.60625Q38.58125 144.60625 39.065624 143.90312Q39.565624 143.2 39.565624 141.09062Q39.565624 138.96562 39.065624 138.27812Q38.58125 137.575 37.83125 137.575Q37.1125 137.575 36.675 138.18437Q36.128124 138.96562 36.128124 141.09062ZM42.05 141.09062Q42.05 139.55937 42.3625 138.6375Q42.675 137.7 43.284374 137.2Q43.909374 136.7 44.846874 136.7Q45.534374 136.7 46.05 136.98125Q46.58125 137.2625 46.925 137.79375Q47.26875 138.30937 47.45625 139.05937Q47.64375 139.80937 47.64375 141.09062Q47.64375 142.60625 47.33125 143.52812Q47.034374 144.45 46.409374 144.96562Q45.8 145.46562 44.846874 145.46562Q43.6125 145.46562 42.89375 144.575Q42.05 143.5125 42.05 141.09062ZM43.128124 141.09062Q43.128124 143.2 43.628124 143.90312Q44.128124 144.60625 44.846874 144.60625Q45.58125 144.60625 46.065624 143.90312Q46.565624 143.2 46.565624 141.09062Q46.565624 138.96562 46.065624 138.27812Q45.58125 137.575 44.83125 137.575Q44.1125 137.575 43.675 138.18437Q43.128124 138.96562 43.128124 141.09062ZM49.6125 145.325L49.6125 144.12187L50.815624 144.12187L50.815624 145.325Q50.815624 145.98125 50.58125 146.3875Q50.346874 146.80937 49.846874 147.02812L49.55 146.575Q49.878124 146.43437 50.034374 146.1375Q50.190624 145.85625 50.221874 145.325L49.6125 145.325ZM52.05 141.09062Q52.05 139.55937 52.3625 138.6375Q52.675 137.7 53.284374 137.2Q53.909374 136.7 54.846874 136.7Q55.534374 136.7 56.05 136.98125Q56.58125 137.2625 56.925 137.79375Q57.26875 138.30937 57.45625 139.05937Q57.64375 139.80937 57.64375 141.09062Q57.64375 142.60625 57.33125 143.52812Q57.034374 144.45 56.409374 144.96562Q55.8 145.46562 54.846874 145.46562Q53.6125 145.46562 52.89375 144.575Q52.05 143.5125 52.05 141.09062ZM53.128124 141.09062Q53.128124 143.2 53.628124 143.90312Q54.128124 144.60625 54.846874 144.60625Q55.58125 144.60625 56.065624 143.90312Q56.565624 143.2 56.565624 141.09062Q56.565624 138.96562 56.065624 138.27812Q55.58125 137.575 54.83125 137.575Q54.1125 137.575 53.675 138.18437Q53.128124 138.96562 53.128124 141.09062ZM59.05 141.09062Q59.05 139.55937 59.3625 138.6375Q59.675 137.7 60.284374 137.2Q60.909374 136.7 61.846874 136.7Q62.534374 136.7 63.05 136.98125Q63.58125 137.2625 63.925 137.79375Q64.26875 138.30937 64.45625 139.05937Q64.64375 139.80937 64.64375 141.09062Q64.64375 142.60625 64.33125 143.52812Q64.03438 144.45 63.409374 144.96562Q62.8 145.46562 61.846874 145.46562Q60.6125 145.46562 59.89375 144.575Q59.05 143.5125 59.05 141.09062ZM60.128124 141.09062Q60.128124 143.2 60.628124 143.90312Q61.128124 144.60625 61.846874 144.60625Q62.58125 144.60625 63.065624 143.90312Q63.565624 143.2 63.565624 141.09062Q63.565624 138.96562 63.065624 138.27812Q62.58125 137.575 61.83125 137.575Q61.1125 137.575 60.675 138.18437Q60.128124 138.96562 60.128124 141.09062Z" fill-rule="nonzero"/><path fill="#000000" d="M24.596874 91.26771L24.596874 92.28333L18.909374 92.28333Q18.909374 91.90833 19.034374 91.54896Q19.253124 90.97083 19.721874 90.40833Q20.20625 89.84583 21.1125 89.11146Q22.51875 87.95521 23.003124 87.28333Q23.503124 86.61146 23.503124 86.01771Q23.503124 85.39271 23.05 84.97083Q22.596874 84.53333 21.878124 84.53333Q21.1125 84.53333 20.659374 84.98646Q20.20625 85.43958 20.190624 86.25208L19.1125 86.14271Q19.221874 84.92396 19.940624 84.29896Q20.675 83.65833 21.909374 83.65833Q23.14375 83.65833 23.8625 84.34583Q24.58125 85.03333 24.58125 86.04896Q24.58125 86.56458 24.3625 87.06458Q24.159374 87.54896 23.659374 88.11146Q23.175 88.65833 22.05 89.61146Q21.096874 90.40833 20.815624 90.70521Q20.55 90.98646 20.378124 91.26771L24.596874 91.26771ZM25.55 92.28333L25.55 92.28333ZM28.05 88.04896Q28.05 86.51771 28.3625 85.59583Q28.675 84.65833 29.284374 84.15833Q29.909374 83.65833 30.846874 83.65833Q31.534374 83.65833 32.05 83.93958Q32.58125 84.22083 32.925 84.75208Q33.26875 85.26771 33.45625 86.01771Q33.64375 86.76771 33.64375 88.04896Q33.64375 89.56458 33.33125 90.48646Q33.034374 91.40833 32.409374 91.92396Q31.8 92.42396 30.846874 92.42396Q29.6125 92.42396 28.89375 91.53333Q28.05 90.47083 28.05 88.04896ZM29.128124 88.04896Q29.128124 90.15833 29.628124 90.86146Q30.128124 91.56458 30.846874 91.56458Q31.58125 91.56458 32.065624 90.86146Q32.565624 90.15833 32.565624 88.04896Q32.565624 85.92396 32.065624 85.23646Q31.58125 84.53333 30.83125 84.53333Q30.1125 84.53333 29.675 85.14271Q29.128124 85.92396 29.128124 88.04896ZM35.05 88.04896Q35.05 86.51771 35.3625 85.59583Q35.675 84.65833 36.284374 84.15833Q36.909374 83.65833 37.846874 83.65833Q38.534374 83.65833 39.05 83.93958Q39.58125 84.22083 39.925 84.75208Q40.26875 85.26771 40.45625 86.01771Q40.64375 86.76771 40.64375 88.04896Q40.64375 89.56458 40.33125 90.48646Q40.034374 91.40833 39.409374 91.92396Q38.8 92.42396 37.846874 92.42396Q36.6125 92.42396 35.89375 91.53333Q35.05 90.47083 35.05 88.04896ZM36.128124 88.04896Q36.128124 90.15833 36.628124 90.86146Q37.128124 91.56458 37.846874 91.56458Q38.58125 91.56458 39.065624 90.86146Q39.565624 90.15833 39.565624 88.04896Q39.565624 85.92396 39.065624 85.23646Q38.58125 84.53333 37.83125 84.53333Q37.1125 84.53333 36.675 85.14271Q36.128124 85.92396 36.128124 88.04896ZM42.05 88.04896Q42.05 86.51771 42.3625 85.59583Q42.675 84.65833 43.284374 84.15833Q43.909374 83.65833 44.846874 83.65833Q45.534374 83.65833 46.05 83.93958Q46.58125 84.22083 46.925 84.75208Q47.26875 85.26771 47.45625 86.01771Q47.64375 86.76771 47.64375 88.04896Q47.64375 89.56458 47.33125 90.48646Q47.034374 91.40833 46.409374 91.92396Q45.8 92.42396 44.846874 92.42396Q43.6125 92.42396 42.89375 91.53333Q42.05 90.47083 42.05 88.04896ZM43.128124 88.04896Q43.128124 90.15833 43.628124 90.86146Q44.128124 91.56458 44.846874 91.56458Q45.58125 91.56458 46.065624 90.86146Q46.565624 90.15833 46.565624 88.04896Q46.565624 85.92396 46.065624 85.23646Q45.58125 84.53333 44.83125 84.53333Q44.1125 84.53333 43.675 85.14271Q43.128124 85.92396 43.128124 88.04896ZM49.6125 92.28333L49.6125 91.08021L50.815624 91.08021L50.815624 92.28333Q50.815624 92.93958 50.58125 93.34583Q50.346874 93.76771 49.846874 93.98646L49.55 93.53333Q49.878124 93.39271 50.034374 93.09583Q50.190624 92.81458 50.221874 92.28333L49.6125 92.28333ZM52.05 88.04896Q52.05 86.51771 52.3625 85.59583Q52.675 84.65833 53.284374 84.15833Q53.909374 83.65833 54.846874 83.65833Q55.534374 83.65833 56.05 83.93958Q56.58125 84.22083 56.925 84.75208Q57.26875 85.26771 57.45625 86.01771Q57.64375 86.76771 57.64375 88.04896Q57.64375 89.56458 57.33125 90.48646Q57.034374 91.40833 56.409374 91.92396Q55.8 92.42396 54.846874 92.42396Q53.6125 92.42396 52.89375 91.53333Q52.05 90.47083 52.05 88.04896ZM53.128124 88.04896Q53.128124 90.15833 53.628124 90.86146Q54.128124 91.56458 54.846874 91.56458Q55.58125 91.56458 56.065624 90.86146Q56.565624 90.15833 56.565624 88.04896Q56.565624 85.92396 56.065624 85.23646Q55.58125 84.53333 54.83125 84.53333Q54.1125 84.53333 53.675 85.14271Q53.128124 85.92396 53.128124 88.04896ZM59.05 88.04896Q59.05 86.51771 59.3625 85.59583Q59.675 84.65833 60.284374 84.15833Q60.909374 83.65833 61.846874 83.65833Q62.534374 83.65833 63.05 83.93958Q63.58125 84.22083 63.925 84.75208Q64.26875 85.26771 64.45625 86.01771Q64.64375 86.76771 64.64375 88.04896Q64.64375 89.56458 64.33125 90.48646Q64.03438 91.40833 63.409374 91.92396Q62.8 92.42396 61.846874 92.42396Q60.6125 92.42396 59.89375 91.53333Q59.05 90.47083 59.05 88.04896ZM60.128124 88.04896Q60.128124 90.15833 60.628124 90.86146Q61.128124 91.56458 61.846874 91.56458Q62.58125 91.56458 63.065624 90.86146Q63.565624 90.15833 63.565624 88.04896Q63.565624 85.92396 63.065624 85.23646Q62.58125 84.53333 61.83125 84.53333Q61.1125 84.53333 60.675 85.14271Q60.128124 85.92396 60.128124 88.04896Z" fill-rule="nonzero"/><path fill="#000000" d="M124.37697 312.79376Q123.72072 312.54376 123.39259 312.10626Q123.08009 311.65314 123.08009 311.04376Q123.08009 310.10626 123.75197 309.46564Q124.43947 308.825 125.54884 308.825Q126.67384 308.825 127.36134 309.48126Q128.04884 310.1375 128.04884 311.075Q128.04884 311.66876 127.73634 312.10626Q127.42384 312.54376 126.78322 312.79376Q127.58009 313.04376 127.98634 313.6219Q128.3926 314.2 128.3926 314.9969Q128.3926 316.09064 127.61134 316.84064Q126.84572 317.59064 125.56447 317.59064Q124.29884 317.59064 123.51759 316.84064Q122.73634 316.09064 122.73634 314.96564Q122.73634 314.1219 123.15822 313.5594Q123.59572 312.9969 124.37697 312.79376ZM124.15822 310.9969Q124.15822 311.60626 124.54884 311.9969Q124.95509 312.3875 125.58009 312.3875Q126.18947 312.3875 126.58009 312.0125Q126.97072 311.6219 126.97072 311.0594Q126.97072 310.48126 126.56447 310.09064Q126.15822 309.6844 125.56447 309.6844Q124.95509 309.6844 124.54884 310.075Q124.15822 310.46564 124.15822 310.9969ZM123.83009 314.96564Q123.83009 315.41876 124.03322 315.84064Q124.25197 316.2625 124.67384 316.4969Q125.09572 316.73126 125.58009 316.73126Q126.33009 316.73126 126.81447 316.2469Q127.31447 315.7625 127.31447 315.0125Q127.31447 314.2469 126.81447 313.7469Q126.31447 313.2469 125.54884 313.2469Q124.79884 313.2469 124.31447 313.7469Q123.83009 314.23126 123.83009 314.96564Z" fill-rule="nonzero"/><path fill="#000000" d="M203.51993 317.45L202.47305 317.45L202.47305 310.73126Q202.08243 311.09064 201.45743 311.46564Q200.84805 311.825 200.36368 311.9969L200.36368 310.98126Q201.23868 310.5594 201.89493 309.98126Q202.5668 309.3875 202.84805 308.825L203.51993 308.825L203.51993 317.45ZM212.01993 310.96564L210.97305 311.04376Q210.83243 310.41876 210.58243 310.1375Q210.14493 309.6844 209.51993 309.6844Q209.01993 309.6844 208.6293 309.96564Q208.14493 310.34064 207.84805 311.04376Q207.5668 311.73126 207.55118 313.0125Q207.92618 312.4344 208.47305 312.15314Q209.03555 311.8719 209.64493 311.8719Q210.6918 311.8719 211.42618 312.65314Q212.17618 313.4344 212.17618 314.65314Q212.17618 315.46564 211.8168 316.16876Q211.47305 316.85626 210.86368 317.23126Q210.2543 317.59064 209.48868 317.59064Q208.16055 317.59064 207.33243 316.6219Q206.5043 315.65314 206.5043 313.4344Q206.5043 310.9344 207.42618 309.8094Q208.22305 308.825 209.58243 308.825Q210.59805 308.825 211.23868 309.40314Q211.89493 309.96564 212.01993 310.96564ZM207.72305 314.66876Q207.72305 315.21564 207.9418 315.71564Q208.17618 316.2 208.58243 316.46564Q209.0043 316.73126 209.47305 316.73126Q210.1293 316.73126 210.61368 316.2Q211.09805 315.65314 211.09805 314.73126Q211.09805 313.84064 210.61368 313.325Q210.14493 312.8094 209.42618 312.8094Q208.70743 312.8094 208.20743 313.325Q207.72305 313.84064 207.72305 314.66876Z" fill-rule="nonzero"/><path fill="#000000" d="M279.8504 315.1844L280.9129 315.04376Q281.08478 315.9344 281.52228 316.34064Q281.95978 316.73126 282.58478 316.73126Q283.33478 316.73126 283.8504 316.21564Q284.36603 315.7 284.36603 314.9344Q284.36603 314.21564 283.88165 313.7469Q283.4129 313.2625 282.67853 313.2625Q282.38165 313.2625 281.92853 313.3875L282.05353 312.45Q282.1629 312.46564 282.2254 312.46564Q282.89728 312.46564 283.42853 312.1219Q283.9754 311.7625 283.9754 311.02814Q283.9754 310.45 283.58478 310.075Q283.19415 309.6844 282.56915 309.6844Q281.95978 309.6844 281.5379 310.075Q281.13165 310.46564 281.02228 311.23126L279.95978 311.04376Q280.14728 309.9969 280.83478 309.41876Q281.52228 308.825 282.5379 308.825Q283.24103 308.825 283.83478 309.1375Q284.42853 309.4344 284.74103 309.95Q285.05353 310.46564 285.05353 311.0594Q285.05353 311.60626 284.75665 312.075Q284.45978 312.52814 283.88165 312.79376Q284.63165 312.96564 285.05353 313.52814Q285.4754 314.075 285.4754 314.91876Q285.4754 316.04376 284.64728 316.825Q283.83478 317.60626 282.58478 317.60626Q281.45978 317.60626 280.70978 316.9344Q279.95978 316.2469 279.8504 315.1844ZM292.39728 316.4344L292.39728 317.45L286.70978 317.45Q286.70978 317.075 286.83478 316.71564Q287.05353 316.1375 287.52228 315.575Q288.00665 315.0125 288.9129 314.27814Q290.31915 313.1219 290.80353 312.45Q291.30353 311.77814 291.30353 311.1844Q291.30353 310.5594 290.8504 310.1375Q290.39728 309.7 289.67853 309.7Q288.9129 309.7 288.45978 310.15314Q288.00665 310.60626 287.99103 311.41876L286.9129 311.3094Q287.02228 310.09064 287.74103 309.46564Q288.4754 308.825 289.70978 308.825Q290.94415 308.825 291.6629 309.5125Q292.38165 310.2 292.38165 311.21564Q292.38165 311.73126 292.1629 312.23126Q291.95978 312.71564 291.45978 313.27814Q290.9754 313.825 289.8504 314.77814Q288.89728 315.575 288.61603 315.8719Q288.3504 316.15314 288.17853 316.4344L292.39728 316.4344Z" fill-rule="nonzero"/><path fill="#000000" d="M365.61835 310.96564L364.57147 311.04376Q364.43085 310.41876 364.18085 310.1375Q363.74335 309.6844 363.11835 309.6844Q362.61835 309.6844 362.22772 309.96564Q361.74335 310.34064 361.44647 311.04376Q361.16522 311.73126 361.1496 313.0125Q361.5246 312.4344 362.07147 312.15314Q362.63397 311.8719 363.24335 311.8719Q364.29022 311.8719 365.0246 312.65314Q365.7746 313.4344 365.7746 314.65314Q365.7746 315.46564 365.41522 316.16876Q365.07147 316.85626 364.4621 317.23126Q363.85272 317.59064 363.0871 317.59064Q361.75897 317.59064 360.93085 316.6219Q360.10272 315.65314 360.10272 313.4344Q360.10272 310.9344 361.0246 309.8094Q361.82147 308.825 363.18085 308.825Q364.19647 308.825 364.8371 309.40314Q365.49335 309.96564 365.61835 310.96564ZM361.32147 314.66876Q361.32147 315.21564 361.54022 315.71564Q361.7746 316.2 362.18085 316.46564Q362.60272 316.73126 363.07147 316.73126Q363.72772 316.73126 364.2121 316.2Q364.69647 315.65314 364.69647 314.73126Q364.69647 313.84064 364.2121 313.325Q363.74335 312.8094 363.0246 312.8094Q362.30585 312.8094 361.80585 313.325Q361.32147 313.84064 361.32147 314.66876ZM370.5246 317.45L370.5246 315.3875L366.80585 315.3875L366.80585 314.41876L370.72772 308.85626L371.5871 308.85626L371.5871 314.41876L372.74335 314.41876L372.74335 315.3875L371.5871 315.3875L371.5871 317.45L370.5246 317.45ZM370.5246 314.41876L370.5246 310.5594L367.8371 314.41876L370.5246 314.41876Z" fill-rule="nonzero"/><path fill="#000000" d="M440.91757 317.45L439.8707 317.45L439.8707 310.73126Q439.48007 311.09064 438.85507 311.46564Q438.2457 311.825 437.76132 311.9969L437.76132 310.98126Q438.63632 310.5594 439.29257 309.98126Q439.96445 309.3875 440.2457 308.825L440.91757 308.825L440.91757 317.45ZM449.4957 316.4344L449.4957 317.45L443.8082 317.45Q443.8082 317.075 443.9332 316.71564Q444.15195 316.1375 444.6207 315.575Q445.10507 315.0125 446.01132 314.27814Q447.41757 313.1219 447.90195 312.45Q448.40195 311.77814 448.40195 311.1844Q448.40195 310.5594 447.94882 310.1375Q447.4957 309.7 446.77695 309.7Q446.01132 309.7 445.5582 310.15314Q445.10507 310.60626 445.08945 311.41876L444.01132 311.3094Q444.1207 310.09064 444.83945 309.46564Q445.57382 308.825 446.8082 308.825Q448.04257 308.825 448.76132 309.5125Q449.48007 310.2 449.48007 311.21564Q449.48007 311.73126 449.26132 312.23126Q449.0582 312.71564 448.5582 313.27814Q448.07382 313.825 446.94882 314.77814Q445.9957 315.575 445.71445 315.8719Q445.44882 316.15314 445.27695 316.4344L449.4957 316.4344ZM452.57382 312.79376Q451.91757 312.54376 451.58945 312.10626Q451.27695 311.65314 451.27695 311.04376Q451.27695 310.10626 451.94882 309.46564Q452.63632 308.825 453.7457 308.825Q454.8707 308.825 455.5582 309.48126Q456.2457 310.1375 456.2457 311.075Q456.2457 311.66876 455.9332 312.10626Q455.6207 312.54376 454.98007 312.79376Q455.77695 313.04376 456.1832 313.6219Q456.58945 314.2 456.58945 314.9969Q456.58945 316.09064 455.8082 316.84064Q455.04257 317.59064 453.76132 317.59064Q452.4957 317.59064 451.71445 316.84064Q450.9332 316.09064 450.9332 314.96564Q450.9332 314.1219 451.35507 313.5594Q451.79257 312.9969 452.57382 312.79376ZM452.35507 310.9969Q452.35507 311.60626 452.7457 311.9969Q453.15195 312.3875 453.77695 312.3875Q454.38632 312.3875 454.77695 312.0125Q455.16757 311.6219 455.16757 311.0594Q455.16757 310.48126 454.76132 310.09064Q454.35507 309.6844 453.76132 309.6844Q453.15195 309.6844 452.7457 310.075Q452.35507 310.46564 452.35507 310.9969ZM452.02695 314.96564Q452.02695 315.41876 452.23007 315.84064Q452.44882 316.2625 452.8707 316.4969Q453.29257 316.73126 453.77695 316.73126Q454.52695 316.73126 455.01132 316.2469Q455.51132 315.7625 455.51132 315.0125Q455.51132 314.2469 455.01132 313.7469Q454.51132 313.2469 453.7457 313.2469Q452.9957 313.2469 452.51132 313.7469Q452.02695 314.23126 452.02695 314.96564Z" fill-rule="nonzero"/><path fill="#000000" d="M522.7949 316.4344L522.7949 317.45L517.1074 317.45Q517.1074 317.075 517.2324 316.71564Q517.4512 316.1375 517.9199 315.575Q518.4043 315.0125 519.31055 314.27814Q520.7168 313.1219 521.2012 312.45Q521.7012 311.77814 521.7012 311.1844Q521.7012 310.5594 521.24805 310.1375Q520.7949 309.7 520.0762 309.7Q519.31055 309.7 518.8574 310.15314Q518.4043 310.60626 518.3887 311.41876L517.31055 311.3094Q517.4199 310.09064 518.1387 309.46564Q518.87305 308.825 520.1074 308.825Q521.3418 308.825 522.06055 309.5125Q522.7793 310.2 522.7793 311.21564Q522.7793 311.73126 522.56055 312.23126Q522.3574 312.71564 521.8574 313.27814Q521.37305 313.825 520.24805 314.77814Q519.2949 315.575 519.0137 315.8719Q518.74805 316.15314 518.5762 316.4344L522.7949 316.4344ZM524.24805 315.2L525.3574 315.10626Q525.4824 315.91876 525.9199 316.325Q526.37305 316.73126 527.0137 316.73126Q527.7637 316.73126 528.2949 316.15314Q528.8262 315.575 528.8262 314.6375Q528.8262 313.73126 528.31055 313.21564Q527.81055 312.6844 526.9824 312.6844Q526.4824 312.6844 526.06055 312.91876Q525.6543 313.15314 525.4199 313.5125L524.43555 313.3875L525.2637 308.98126L529.5449 308.98126L529.5449 309.98126L526.1074 309.98126L525.6543 312.29376Q526.4199 311.7469 527.2637 311.7469Q528.3887 311.7469 529.1543 312.52814Q529.93555 313.3094 529.93555 314.54376Q529.93555 315.7 529.2637 316.5594Q528.43555 317.59064 527.0137 317.59064Q525.8418 317.59064 525.0918 316.9344Q524.3574 316.27814 524.24805 315.2ZM536.7168 310.96564L535.6699 311.04376Q535.5293 310.41876 535.2793 310.1375Q534.8418 309.6844 534.2168 309.6844Q533.7168 309.6844 533.3262 309.96564Q532.8418 310.34064 532.5449 311.04376Q532.2637 311.73126 532.24805 313.0125Q532.62305 312.4344 533.1699 312.15314Q533.7324 311.8719 534.3418 311.8719Q535.3887 311.8719 536.12305 312.65314Q536.87305 313.4344 536.87305 314.65314Q536.87305 315.46564 536.5137 316.16876Q536.1699 316.85626 535.56055 317.23126Q534.9512 317.59064 534.18555 317.59064Q532.8574 317.59064 532.0293 316.6219Q531.2012 315.65314 531.2012 313.4344Q531.2012 310.9344 532.12305 309.8094Q532.9199 308.825 534.2793 308.825Q535.2949 308.825 535.93555 309.40314Q536.5918 309.96564 536.7168 310.96564ZM532.4199 314.66876Q532.4199 315.21564 532.6387 315.71564Q532.87305 316.2 533.2793 316.46564Q533.7012 316.73126 534.1699 316.73126Q534.8262 316.73126 535.31055 316.2Q535.7949 315.65314 535.7949 314.73126Q535.7949 313.84064 535.31055 313.325Q534.8418 312.8094 534.12305 312.8094Q533.4043 312.8094 532.9043 313.325Q532.4199 313.84064 532.4199 314.66876Z" fill-rule="nonzero"/><path fill="#6db33f" d="M142.5 56.916668C142.5 56.364384 142.94771 55.916668 143.5 55.916668L153.5 55.916668C154.05229 55.916668 154.5 56.364384 154.5 56.916668L154.5 66.916664C154.5 67.46895 154.05229 67.916664 153.5 67.916664L143.5 67.916664C142.94771 67.916664 142.5 67.46895 142.5 66.916664Z" fill-rule="nonzero"/><path fill="#1a1a1a" d="M163.04688 63.15104L164.10938 63.05729Q164.1875 63.71354 164.46875 64.11979Q164.75 64.52604 165.32812 64.791664Q165.92188 65.041664 166.65625 65.041664Q167.29688 65.041664 167.79688 64.854164Q168.29688 64.65104 168.53125 64.322914Q168.78125 63.979164 168.78125 63.58854Q168.78125 63.18229 168.54688 62.885414Q168.3125 62.572914 167.78125 62.36979Q167.42188 62.229164 166.23438 61.947914Q165.0625 61.666664 164.59375 61.416664Q163.96875 61.08854 163.67188 60.61979Q163.375 60.135414 163.375 59.541664Q163.375 58.90104 163.73438 58.33854Q164.10938 57.760414 164.8125 57.479164Q165.53125 57.18229 166.39062 57.18229Q167.34375 57.18229 168.07812 57.49479Q168.8125 57.791664 169.20312 58.40104Q169.59375 58.99479 169.625 59.74479L168.53125 59.822914Q168.4375 59.010414 167.92188 58.604164Q167.42188 58.18229 166.4375 58.18229Q165.40625 58.18229 164.9375 58.55729Q164.46875 58.93229 164.46875 59.46354Q164.46875 59.93229 164.79688 60.229164Q165.125 60.52604 166.5 60.83854Q167.89062 61.15104 168.40625 61.385414Q169.15625 61.74479 169.51562 62.27604Q169.875 62.791664 169.875 63.49479Q169.875 64.18229 169.48438 64.791664Q169.09375 65.385414 168.35938 65.729164Q167.625 66.05729 166.70312 66.05729Q165.53125 66.05729 164.73438 65.729164Q163.95312 65.385414 163.5 64.697914Q163.0625 64.010414 163.04688 63.15104ZM171.29688 68.30729L171.29688 59.697914L172.25 59.697914L172.25 60.49479Q172.59375 60.02604 173.01562 59.791664Q173.45312 59.55729 174.0625 59.55729Q174.85938 59.55729 175.46875 59.96354Q176.07812 60.36979 176.375 61.11979Q176.6875 61.86979 176.6875 62.760414Q176.6875 63.71354 176.34375 64.479164Q176.01562 65.24479 175.35938 65.65104Q174.70312 66.05729 173.98438 66.05729Q173.45312 66.05729 173.03125 65.83854Q172.60938 65.604164 172.34375 65.27604L172.34375 68.30729L171.29688 68.30729ZM172.25 62.83854Q172.25 64.041664 172.73438 64.61979Q173.21875 65.18229 173.90625 65.18229Q174.60938 65.18229 175.10938 64.58854Q175.60938 63.99479 175.60938 62.74479Q175.60938 61.55729 175.125 60.979164Q174.64062 60.385414 173.95312 60.385414Q173.28125 60.385414 172.76562 61.010414Q172.25 61.635414 172.25 62.83854ZM178.28125 65.916664L178.28125 59.697914L179.23438 59.697914L179.23438 60.635414Q179.59375 59.979164 179.89062 59.77604Q180.20312 59.55729 180.57812 59.55729Q181.10938 59.55729 181.65625 59.885414L181.29688 60.86979Q180.90625 60.635414 180.53125 60.635414Q180.17188 60.635414 179.89062 60.854164Q179.625 61.05729 179.51562 61.43229Q179.32812 61.99479 179.32812 62.65104L179.32812 65.916664L178.28125 65.916664ZM182.29688 58.541664L182.29688 57.322914L183.35938 57.322914L183.35938 58.541664L182.29688 58.541664ZM182.29688 65.916664L182.29688 59.697914L183.35938 59.697914L183.35938 65.916664L182.29688 65.916664ZM185.29688 65.916664L185.29688 59.697914L186.23438 59.697914L186.23438 60.572914Q186.92188 59.55729 188.21875 59.55729Q188.78125 59.55729 189.25 59.760414Q189.73438 59.96354 189.96875 60.291664Q190.20312 60.61979 190.29688 61.05729Q190.34375 61.354164 190.34375 62.08854L190.34375 65.916664L189.29688 65.916664L189.29688 62.135414Q189.29688 61.479164 189.17188 61.166664Q189.04688 60.854164 188.73438 60.666664Q188.42188 60.46354 188.0 60.46354Q187.32812 60.46354 186.82812 60.90104Q186.34375 61.322914 186.34375 62.510414L186.34375 65.916664L185.29688 65.916664ZM192.09375 66.43229L193.125 66.58854Q193.1875 67.05729 193.48438 67.27604Q193.875 67.572914 194.54688 67.572914Q195.28125 67.572914 195.67188 67.27604Q196.07812 66.979164 196.21875 66.46354Q196.3125 66.135414 196.29688 65.104164Q195.60938 65.916664 194.57812 65.916664Q193.29688 65.916664 192.59375 64.99479Q191.89062 64.05729 191.89062 62.77604Q191.89062 61.885414 192.20312 61.135414Q192.53125 60.36979 193.14062 59.96354Q193.75 59.55729 194.57812 59.55729Q195.6875 59.55729 196.40625 60.447914L196.40625 59.697914L197.375 59.697914L197.375 65.072914Q197.375 66.52604 197.07812 67.135414Q196.78125 67.74479 196.14062 68.08854Q195.5 68.447914 194.5625 68.447914Q193.45312 68.447914 192.76562 67.947914Q192.07812 67.447914 192.09375 66.43229ZM192.96875 62.697914Q192.96875 63.916664 193.45312 64.479164Q193.9375 65.041664 194.67188 65.041664Q195.40625 65.041664 195.89062 64.479164Q196.39062 63.916664 196.39062 62.729164Q196.39062 61.58854 195.875 61.010414Q195.375 60.43229 194.65625 60.43229Q193.95312 60.43229 193.45312 61.010414Q192.96875 61.572914 192.96875 62.697914ZM202.375 65.916664L202.375 57.322914L205.60938 57.322914Q206.59375 57.322914 207.1875 57.58854Q207.78125 57.854164 208.10938 58.40104Q208.45312 58.93229 208.45312 59.52604Q208.45312 60.072914 208.15625 60.55729Q207.85938 61.041664 207.25 61.33854Q208.03125 61.572914 208.4375 62.135414Q208.85938 62.68229 208.85938 63.43229Q208.85938 64.02604 208.60938 64.55729Q208.35938 65.072914 207.98438 65.354164Q207.60938 65.635414 207.03125 65.77604Q206.46875 65.916664 205.65625 65.916664L202.375 65.916664ZM203.51562 60.93229L205.375 60.93229Q206.125 60.93229 206.45312 60.83854Q206.89062 60.71354 207.10938 60.416664Q207.32812 60.104164 207.32812 59.65104Q207.32812 59.229164 207.125 58.90104Q206.92188 58.572914 206.53125 58.46354Q206.15625 58.33854 205.23438 58.33854L203.51562 58.33854L203.51562 60.93229ZM203.51562 64.90104L205.65625 64.90104Q206.20312 64.90104 206.42188 64.854164Q206.82812 64.791664 207.07812 64.635414Q207.34375 64.46354 207.51562 64.15104Q207.6875 63.83854 207.6875 63.43229Q207.6875 62.947914 207.4375 62.58854Q207.20312 62.229164 206.76562 62.08854Q206.32812 61.947914 205.5 61.947914L203.51562 61.947914L203.51562 64.90104ZM209.90625 62.80729Q209.90625 61.072914 210.85938 60.24479Q211.65625 59.55729 212.8125 59.55729Q214.09375 59.55729 214.90625 60.40104Q215.73438 61.229164 215.73438 62.71354Q215.73438 63.916664 215.375 64.604164Q215.01562 65.291664 214.3125 65.68229Q213.625 66.05729 212.8125 66.05729Q211.51562 66.05729 210.70312 65.229164Q209.90625 64.385414 209.90625 62.80729ZM210.98438 62.80729Q210.98438 63.99479 211.5 64.58854Q212.03125 65.18229 212.8125 65.18229Q213.60938 65.18229 214.125 64.58854Q214.64062 63.99479 214.64062 62.77604Q214.64062 61.61979 214.10938 61.02604Q213.59375 60.43229 212.8125 60.43229Q212.03125 60.43229 211.5 61.02604Q210.98438 61.604164 210.98438 62.80729ZM216.90625 62.80729Q216.90625 61.072914 217.85938 60.24479Q218.65625 59.55729 219.8125 59.55729Q221.09375 59.55729 221.90625 60.40104Q222.73438 61.229164 222.73438 62.71354Q222.73438 63.916664 222.375 64.604164Q222.01562 65.291664 221.3125 65.68229Q220.625 66.05729 219.8125 66.05729Q218.51562 66.05729 217.70312 65.229164Q216.90625 64.385414 216.90625 62.80729ZM217.98438 62.80729Q217.98438 63.99479 218.5 64.58854Q219.03125 65.18229 219.8125 65.18229Q220.60938 65.18229 221.125 64.58854Q221.64062 63.99479 221.64062 62.77604Q221.64062 61.61979 221.10938 61.02604Q220.59375 60.43229 219.8125 60.43229Q219.03125 60.43229 218.5 61.02604Q217.98438 61.604164 217.98438 62.80729ZM226.59375 64.979164L226.75 65.90104Q226.29688 65.99479 225.95312 65.99479Q225.375 65.99479 225.0625 65.822914Q224.75 65.635414 224.60938 65.33854Q224.48438 65.041664 224.48438 64.08854L224.48438 60.510414L223.71875 60.510414L223.71875 59.697914L224.48438 59.697914L224.48438 58.15104L225.53125 57.52604L225.53125 59.697914L226.59375 59.697914L226.59375 60.510414L225.53125 60.510414L225.53125 64.15104Q225.53125 64.604164 225.57812 64.729164Q225.64062 64.854164 225.76562 64.93229Q225.89062 65.010414 226.125 65.010414Q226.3125 65.010414 226.59375 64.979164ZM234.45312 62.541664L234.45312 61.541664L238.07812 61.52604L238.07812 64.71354Q237.25 65.385414 236.35938 65.729164Q235.46875 66.05729 234.53125 66.05729Q233.26562 66.05729 232.21875 65.52604Q231.1875 64.979164 230.65625 63.96354Q230.14062 62.93229 230.14062 61.666664Q230.14062 60.40104 230.65625 59.322914Q231.1875 58.229164 232.17188 57.71354Q233.15625 57.18229 234.4375 57.18229Q235.375 57.18229 236.125 57.479164Q236.875 57.77604 237.29688 58.322914Q237.73438 58.854164 237.95312 59.729164L236.9375 60.010414Q236.73438 59.354164 236.4375 58.979164Q236.15625 58.604164 235.625 58.385414Q235.09375 58.15104 234.45312 58.15104Q233.67188 58.15104 233.09375 58.385414Q232.53125 58.61979 232.17188 59.010414Q231.82812 59.40104 231.64062 59.86979Q231.3125 60.666664 231.3125 61.58854Q231.3125 62.74479 231.70312 63.52604Q232.10938 64.291664 232.85938 64.666664Q233.60938 65.041664 234.46875 65.041664Q235.20312 65.041664 235.90625 64.760414Q236.60938 64.46354 236.96875 64.15104L236.96875 62.541664L234.45312 62.541664ZM239.28125 65.916664L239.28125 59.697914L240.23438 59.697914L240.23438 60.635414Q240.59375 59.979164 240.89062 59.77604Q241.20312 59.55729 241.57812 59.55729Q242.10938 59.55729 242.65625 59.885414L242.29688 60.86979Q241.90625 60.635414 241.53125 60.635414Q241.17188 60.635414 240.89062 60.854164Q240.625 61.05729 240.51562 61.43229Q240.32812 61.99479 240.32812 62.65104L240.32812 65.916664L239.28125 65.916664ZM247.35938 65.15104Q246.76562 65.65104 246.21875 65.854164Q245.6875 66.05729 245.0625 66.05729Q244.03125 66.05729 243.48438 65.55729Q242.9375 65.05729 242.9375 64.27604Q242.9375 63.822914 243.14062 63.447914Q243.34375 63.05729 243.6875 62.83854Q244.03125 62.604164 244.45312 62.49479Q244.75 62.40104 245.39062 62.322914Q246.65625 62.18229 247.26562 61.96354Q247.26562 61.74479 247.26562 61.697914Q247.26562 61.041664 246.96875 60.77604Q246.5625 60.43229 245.76562 60.43229Q245.03125 60.43229 244.67188 60.697914Q244.3125 60.947914 244.14062 61.604164L243.10938 61.46354Q243.25 60.80729 243.57812 60.40104Q243.90625 59.99479 244.51562 59.77604Q245.125 59.55729 245.92188 59.55729Q246.71875 59.55729 247.21875 59.74479Q247.71875 59.93229 247.95312 60.21354Q248.1875 60.49479 248.28125 60.93229Q248.32812 61.197914 248.32812 61.90104L248.32812 63.30729Q248.32812 64.77604 248.39062 65.166664Q248.46875 65.55729 248.67188 65.916664L247.5625 65.916664Q247.40625 65.58854 247.35938 65.15104ZM247.26562 62.791664Q246.6875 63.02604 245.54688 63.197914Q244.89062 63.291664 244.625 63.416664Q244.35938 63.52604 244.20312 63.74479Q244.0625 63.96354 244.0625 64.24479Q244.0625 64.666664 244.375 64.947914Q244.70312 65.229164 245.3125 65.229164Q245.92188 65.229164 246.39062 64.96354Q246.875 64.697914 247.09375 64.229164Q247.26562 63.86979 247.26562 63.18229L247.26562 62.791664ZM250.29688 68.30729L250.29688 59.697914L251.25 59.697914L251.25 60.49479Q251.59375 60.02604 252.01562 59.791664Q252.45312 59.55729 253.0625 59.55729Q253.85938 59.55729 254.46875 59.96354Q255.07812 60.36979 255.375 61.11979Q255.6875 61.86979 255.6875 62.760414Q255.6875 63.71354 255.34375 64.479164Q255.01562 65.24479 254.35938 65.65104Q253.70312 66.05729 252.98438 66.05729Q252.45312 66.05729 252.03125 65.83854Q251.60938 65.604164 251.34375 65.27604L251.34375 68.30729L250.29688 68.30729ZM251.25 62.83854Q251.25 64.041664 251.73438 64.61979Q252.21875 65.18229 252.90625 65.18229Q253.60938 65.18229 254.10938 64.58854Q254.60938 63.99479 254.60938 62.74479Q254.60938 61.55729 254.125 60.979164Q253.64062 60.385414 252.95312 60.385414Q252.28125 60.385414 251.76562 61.010414Q251.25 61.635414 251.25 62.83854ZM257.29688 65.916664L257.29688 57.322914L258.34375 57.322914L258.34375 60.40104Q259.07812 59.55729 260.20312 59.55729Q260.90625 59.55729 261.40625 59.83854Q261.92188 60.104164 262.14062 60.58854Q262.35938 61.05729 262.35938 61.979164L262.35938 65.916664L261.3125 65.916664L261.3125 61.979164Q261.3125 61.18229 260.96875 60.822914Q260.625 60.46354 260.0 60.46354Q259.53125 60.46354 259.10938 60.71354Q258.70312 60.947914 258.51562 61.36979Q258.34375 61.77604 258.34375 62.510414L258.34375 65.916664L257.29688 65.916664ZM270.9375 64.99479Q271.73438 65.541664 272.39062 65.791664L272.0625 66.58854Q271.14062 66.24479 270.21875 65.52604Q269.26562 66.05729 268.10938 66.05729Q266.9375 66.05729 265.98438 65.49479Q265.04688 64.93229 264.53125 63.916664Q264.01562 62.90104 264.01562 61.61979Q264.01562 60.354164 264.53125 59.30729Q265.04688 58.260414 266.0 57.71354Q266.95312 57.166664 268.125 57.166664Q269.3125 57.166664 270.26562 57.74479Q271.23438 58.30729 271.73438 59.322914Q272.23438 60.33854 272.23438 61.61979Q272.23438 62.68229 271.90625 63.52604Q271.59375 64.36979 270.9375 64.99479ZM268.4375 63.541664Q269.42188 63.822914 270.0625 64.36979Q271.0625 63.447914 271.0625 61.61979Q271.0625 60.572914 270.70312 59.791664Q270.34375 59.010414 269.65625 58.58854Q268.98438 58.15104 268.14062 58.15104Q266.85938 58.15104 266.01562 59.02604Q265.1875 59.885414 265.1875 61.61979Q265.1875 63.291664 266.01562 64.197914Q266.84375 65.08854 268.14062 65.08854Q268.75 65.08854 269.28125 64.854164Q268.75 64.510414 268.15625 64.36979L268.4375 63.541664ZM273.375 65.916664L273.375 57.322914L274.51562 57.322914L274.51562 64.90104L278.75 64.90104L278.75 65.916664L273.375 65.916664ZM282.84375 63.479164L283.875 63.33854Q283.90625 64.322914 284.23438 64.68229Q284.5625 65.041664 285.15625 65.041664Q285.57812 65.041664 285.89062 64.854164Q286.20312 64.65104 286.3125 64.322914Q286.4375 63.979164 286.4375 63.24479L286.4375 57.322914L287.5625 57.322914L287.5625 63.18229Q287.5625 64.260414 287.29688 64.854164Q287.04688 65.447914 286.48438 65.760414Q285.92188 66.05729 285.15625 66.05729Q284.03125 66.05729 283.42188 65.416664Q282.82812 64.760414 282.84375 63.479164ZM293.35938 65.15104Q292.76562 65.65104 292.21875 65.854164Q291.6875 66.05729 291.0625 66.05729Q290.03125 66.05729 289.48438 65.55729Q288.9375 65.05729 288.9375 64.27604Q288.9375 63.822914 289.14062 63.447914Q289.34375 63.05729 289.6875 62.83854Q290.03125 62.604164 290.45312 62.49479Q290.75 62.40104 291.39062 62.322914Q292.65625 62.18229 293.26562 61.96354Q293.26562 61.74479 293.26562 61.697914Q293.26562 61.041664 292.96875 60.77604Q292.5625 60.43229 291.76562 60.43229Q291.03125 60.43229 290.67188 60.697914Q290.3125 60.947914 290.14062 61.604164L289.10938 61.46354Q289.25 60.80729 289.57812 60.40104Q289.90625 59.99479 290.51562 59.77604Q291.125 59.55729 291.92188 59.55729Q292.71875 59.55729 293.21875 59.74479Q293.71875 59.93229 293.95312 60.21354Q294.1875 60.49479 294.28125 60.93229Q294.32812 61.197914 294.32812 61.90104L294.32812 63.30729Q294.32812 64.77604 294.39062 65.166664Q294.46875 65.55729 294.67188 65.916664L293.5625 65.916664Q293.40625 65.58854 293.35938 65.15104ZM293.26562 62.791664Q292.6875 63.02604 291.54688 63.197914Q290.89062 63.291664 290.625 63.416664Q290.35938 63.52604 290.20312 63.74479Q290.0625 63.96354 290.0625 64.24479Q290.0625 64.666664 290.375 64.947914Q290.70312 65.229164 291.3125 65.229164Q291.92188 65.229164 292.39062 64.96354Q292.875 64.697914 293.09375 64.229164Q293.26562 63.86979 293.26562 63.18229L293.26562 62.791664ZM298.01562 65.916664L295.65625 59.697914L296.76562 59.697914L298.10938 63.416664Q298.3125 64.02604 298.5 64.666664Q298.64062 64.18229 298.89062 63.49479L300.28125 59.697914L301.35938 59.697914L299.0 65.916664L298.01562 65.916664ZM306.35938 65.15104Q305.76562 65.65104 305.21875 65.854164Q304.6875 66.05729 304.0625 66.05729Q303.03125 66.05729 302.48438 65.55729Q301.9375 65.05729 301.9375 64.27604Q301.9375 63.822914 302.14062 63.447914Q302.34375 63.05729 302.6875 62.83854Q303.03125 62.604164 303.45312 62.49479Q303.75 62.40104 304.39062 62.322914Q305.65625 62.18229 306.26562 61.96354Q306.26562 61.74479 306.26562 61.697914Q306.26562 61.041664 305.96875 60.77604Q305.5625 60.43229 304.76562 60.43229Q304.03125 60.43229 303.67188 60.697914Q303.3125 60.947914 303.14062 61.604164L302.10938 61.46354Q302.25 60.80729 302.57812 60.40104Q302.90625 59.99479 303.51562 59.77604Q304.125 59.55729 304.92188 59.55729Q305.71875 59.55729 306.21875 59.74479Q306.71875 59.93229 306.95312 60.21354Q307.1875 60.49479 307.28125 60.93229Q307.32812 61.197914 307.32812 61.90104L307.32812 63.30729Q307.32812 64.77604 307.39062 65.166664Q307.46875 65.55729 307.67188 65.916664L306.5625 65.916664Q306.40625 65.58854 306.35938 65.15104ZM306.26562 62.791664Q305.6875 63.02604 304.54688 63.197914Q303.89062 63.291664 303.625 63.416664Q303.35938 63.52604 303.20312 63.74479Q303.0625 63.96354 303.0625 64.24479Q303.0625 64.666664 303.375 64.947914Q303.70312 65.229164 304.3125 65.229164Q304.92188 65.229164 305.39062 64.96354Q305.875 64.697914 306.09375 64.229164Q306.26562 63.86979 306.26562 63.18229L306.26562 62.791664Z" fill-rule="nonzero"/><path fill="#782b90" d="M324.5 56.916668C324.5 56.364384 324.94772 55.916668 325.5 55.916668L335.5 55.916668C336.05228 55.916668 336.5 56.364384 336.5 56.916668L336.5 66.916664C336.5 67.46895 336.05228 67.916664 335.5 67.916664L325.5 67.916664C324.94772 67.916664 324.5 67.46895 324.5 66.916664Z" fill-rule="nonzero"/><path fill="#1a1a1a" d="M347.875 65.916664L344.54688 57.322914L345.78125 57.322914L348.01562 63.572914Q348.28125 64.322914 348.46875 64.979164Q348.67188 64.27604 348.9375 63.572914L351.25 57.322914L352.40625 57.322914L349.04688 65.916664L347.875 65.916664ZM357.54688 63.916664L358.64062 64.041664Q358.39062 64.99479 357.6875 65.52604Q356.98438 66.05729 355.90625 66.05729Q354.54688 66.05729 353.73438 65.21354Q352.9375 64.36979 352.9375 62.854164Q352.9375 61.291664 353.75 60.43229Q354.5625 59.55729 355.84375 59.55729Q357.09375 59.55729 357.875 60.40104Q358.67188 61.24479 358.67188 62.791664Q358.67188 62.885414 358.67188 63.072914L354.03125 63.072914Q354.09375 64.104164 354.60938 64.65104Q355.125 65.18229 355.90625 65.18229Q356.48438 65.18229 356.89062 64.885414Q357.3125 64.572914 357.54688 63.916664ZM354.09375 62.21354L357.5625 62.21354Q357.5 61.416664 357.17188 61.02604Q356.65625 60.416664 355.85938 60.416664Q355.125 60.416664 354.625 60.90104Q354.14062 61.385414 354.09375 62.21354ZM360.28125 65.916664L360.28125 59.697914L361.23438 59.697914L361.23438 60.635414Q361.59375 59.979164 361.89062 59.77604Q362.20312 59.55729 362.57812 59.55729Q363.10938 59.55729 363.65625 59.885414L363.29688 60.86979Q362.90625 60.635414 362.53125 60.635414Q362.17188 60.635414 361.89062 60.854164Q361.625 61.05729 361.51562 61.43229Q361.32812 61.99479 361.32812 62.65104L361.32812 65.916664L360.28125 65.916664ZM366.59375 64.979164L366.75 65.90104Q366.29688 65.99479 365.95312 65.99479Q365.375 65.99479 365.0625 65.822914Q364.75 65.635414 364.60938 65.33854Q364.48438 65.041664 364.48438 64.08854L364.48438 60.510414L363.71875 60.510414L363.71875 59.697914L364.48438 59.697914L364.48438 58.15104L365.53125 57.52604L365.53125 59.697914L366.59375 59.697914L366.59375 60.510414L365.53125 60.510414L365.53125 64.15104Q365.53125 64.604164 365.57812 64.729164Q365.64062 64.854164 365.76562 64.93229Q365.89062 65.010414 366.125 65.010414Q366.3125 65.010414 366.59375 64.979164ZM367.59375 65.916664L367.59375 64.71354L368.79688 64.71354L368.79688 65.916664L367.59375 65.916664ZM369.59375 65.916664L371.85938 62.68229L369.76562 59.697914L371.07812 59.697914L372.03125 61.15104Q372.29688 61.572914 372.46875 61.854164Q372.71875 61.46354 372.9375 61.166664L373.98438 59.697914L375.25 59.697914L373.09375 62.61979L375.40625 65.916664L374.125 65.916664L372.84375 63.979164L372.5 63.46354L370.85938 65.916664L369.59375 65.916664ZM383.45312 62.541664L383.45312 61.541664L387.07812 61.52604L387.07812 64.71354Q386.25 65.385414 385.35938 65.729164Q384.46875 66.05729 383.53125 66.05729Q382.26562 66.05729 381.21875 65.52604Q380.1875 64.979164 379.65625 63.96354Q379.14062 62.93229 379.14062 61.666664Q379.14062 60.40104 379.65625 59.322914Q380.1875 58.229164 381.17188 57.71354Q382.15625 57.18229 383.4375 57.18229Q384.375 57.18229 385.125 57.479164Q385.875 57.77604 386.29688 58.322914Q386.73438 58.854164 386.95312 59.729164L385.9375 60.010414Q385.73438 59.354164 385.4375 58.979164Q385.15625 58.604164 384.625 58.385414Q384.09375 58.15104 383.45312 58.15104Q382.67188 58.15104 382.09375 58.385414Q381.53125 58.61979 381.17188 59.010414Q380.82812 59.40104 380.64062 59.86979Q380.3125 60.666664 380.3125 61.58854Q380.3125 62.74479 380.70312 63.52604Q381.10938 64.291664 381.85938 64.666664Q382.60938 65.041664 383.46875 65.041664Q384.20312 65.041664 384.90625 64.760414Q385.60938 64.46354 385.96875 64.15104L385.96875 62.541664L383.45312 62.541664ZM388.28125 65.916664L388.28125 59.697914L389.23438 59.697914L389.23438 60.635414Q389.59375 59.979164 389.89062 59.77604Q390.20312 59.55729 390.57812 59.55729Q391.10938 59.55729 391.65625 59.885414L391.29688 60.86979Q390.90625 60.635414 390.53125 60.635414Q390.17188 60.635414 389.89062 60.854164Q389.625 61.05729 389.51562 61.43229Q389.32812 61.99479 389.32812 62.65104L389.32812 65.916664L388.28125 65.916664ZM396.35938 65.15104Q395.76562 65.65104 395.21875 65.854164Q394.6875 66.05729 394.0625 66.05729Q393.03125 66.05729 392.48438 65.55729Q391.9375 65.05729 391.9375 64.27604Q391.9375 63.822914 392.14062 63.447914Q392.34375 63.05729 392.6875 62.83854Q393.03125 62.604164 393.45312 62.49479Q393.75 62.40104 394.39062 62.322914Q395.65625 62.18229 396.26562 61.96354Q396.26562 61.74479 396.26562 61.697914Q396.26562 61.041664 395.96875 60.77604Q395.5625 60.43229 394.76562 60.43229Q394.03125 60.43229 393.67188 60.697914Q393.3125 60.947914 393.14062 61.604164L392.10938 61.46354Q392.25 60.80729 392.57812 60.40104Q392.90625 59.99479 393.51562 59.77604Q394.125 59.55729 394.92188 59.55729Q395.71875 59.55729 396.21875 59.74479Q396.71875 59.93229 396.95312 60.21354Q397.1875 60.49479 397.28125 60.93229Q397.32812 61.197914 397.32812 61.90104L397.32812 63.30729Q397.32812 64.77604 397.39062 65.166664Q397.46875 65.55729 397.67188 65.916664L396.5625 65.916664Q396.40625 65.58854 396.35938 65.15104ZM396.26562 62.791664Q395.6875 63.02604 394.54688 63.197914Q393.89062 63.291664 393.625 63.416664Q393.35938 63.52604 393.20312 63.74479Q393.0625 63.96354 393.0625 64.24479Q393.0625 64.666664 393.375 64.947914Q393.70312 65.229164 394.3125 65.229164Q394.92188 65.229164 395.39062 64.96354Q395.875 64.697914 396.09375 64.229164Q396.26562 63.86979 396.26562 63.18229L396.26562 62.791664ZM399.29688 68.30729L399.29688 59.697914L400.25 59.697914L400.25 60.49479Q400.59375 60.02604 401.01562 59.791664Q401.45312 59.55729 402.0625 59.55729Q402.85938 59.55729 403.46875 59.96354Q404.07812 60.36979 404.375 61.11979Q404.6875 61.86979 404.6875 62.760414Q404.6875 63.71354 404.34375 64.479164Q404.01562 65.24479 403.35938 65.65104Q402.70312 66.05729 401.98438 66.05729Q401.45312 66.05729 401.03125 65.83854Q400.60938 65.604164 400.34375 65.27604L400.34375 68.30729L399.29688 68.30729ZM400.25 62.83854Q400.25 64.041664 400.73438 64.61979Q401.21875 65.18229 401.90625 65.18229Q402.60938 65.18229 403.10938 64.58854Q403.60938 63.99479 403.60938 62.74479Q403.60938 61.55729 403.125 60.979164Q402.64062 60.385414 401.95312 60.385414Q401.28125 60.385414 400.76562 61.010414Q400.25 61.635414 400.25 62.83854ZM406.29688 65.916664L406.29688 57.322914L407.34375 57.322914L407.34375 60.40104Q408.07812 59.55729 409.20312 59.55729Q409.90625 59.55729 410.40625 59.83854Q410.92188 60.104164 411.14062 60.58854Q411.35938 61.05729 411.35938 61.979164L411.35938 65.916664L410.3125 65.916664L410.3125 61.979164Q410.3125 61.18229 409.96875 60.822914Q409.625 60.46354 409.0 60.46354Q408.53125 60.46354 408.10938 60.71354Q407.70312 60.947914 407.51562 61.36979Q407.34375 61.77604 407.34375 62.510414L407.34375 65.916664L406.29688 65.916664ZM419.9375 64.99479Q420.73438 65.541664 421.39062 65.791664L421.0625 66.58854Q420.14062 66.24479 419.21875 65.52604Q418.26562 66.05729 417.10938 66.05729Q415.9375 66.05729 414.98438 65.49479Q414.04688 64.93229 413.53125 63.916664Q413.01562 62.90104 413.01562 61.61979Q413.01562 60.354164 413.53125 59.30729Q414.04688 58.260414 415.0 57.71354Q415.95312 57.166664 417.125 57.166664Q418.3125 57.166664 419.26562 57.74479Q420.23438 58.30729 420.73438 59.322914Q421.23438 60.33854 421.23438 61.61979Q421.23438 62.68229 420.90625 63.52604Q420.59375 64.36979 419.9375 64.99479ZM417.4375 63.541664Q418.42188 63.822914 419.0625 64.36979Q420.0625 63.447914 420.0625 61.61979Q420.0625 60.572914 419.70312 59.791664Q419.34375 59.010414 418.65625 58.58854Q417.98438 58.15104 417.14062 58.15104Q415.85938 58.15104 415.01562 59.02604Q414.1875 59.885414 414.1875 61.61979Q414.1875 63.291664 415.01562 64.197914Q415.84375 65.08854 417.14062 65.08854Q417.75 65.08854 418.28125 64.854164Q417.75 64.510414 417.15625 64.36979L417.4375 63.541664ZM422.375 65.916664L422.375 57.322914L423.51562 57.322914L423.51562 64.90104L427.75 64.90104L427.75 65.916664L422.375 65.916664ZM431.84375 63.479164L432.875 63.33854Q432.90625 64.322914 433.23438 64.68229Q433.5625 65.041664 434.15625 65.041664Q434.57812 65.041664 434.89062 64.854164Q435.20312 64.65104 435.3125 64.322914Q435.4375 63.979164 435.4375 63.24479L435.4375 57.322914L436.5625 57.322914L436.5625 63.18229Q436.5625 64.260414 436.29688 64.854164Q436.04688 65.447914 435.48438 65.760414Q434.92188 66.05729 434.15625 66.05729Q433.03125 66.05729 432.42188 65.416664Q431.82812 64.760414 431.84375 63.479164ZM442.35938 65.15104Q441.76562 65.65104 441.21875 65.854164Q440.6875 66.05729 440.0625 66.05729Q439.03125 66.05729 438.48438 65.55729Q437.9375 65.05729 437.9375 64.27604Q437.9375 63.822914 438.14062 63.447914Q438.34375 63.05729 438.6875 62.83854Q439.03125 62.604164 439.45312 62.49479Q439.75 62.40104 440.39062 62.322914Q441.65625 62.18229 442.26562 61.96354Q442.26562 61.74479 442.26562 61.697914Q442.26562 61.041664 441.96875 60.77604Q441.5625 60.43229 440.76562 60.43229Q440.03125 60.43229 439.67188 60.697914Q439.3125 60.947914 439.14062 61.604164L438.10938 61.46354Q438.25 60.80729 438.57812 60.40104Q438.90625 59.99479 439.51562 59.77604Q440.125 59.55729 440.92188 59.55729Q441.71875 59.55729 442.21875 59.74479Q442.71875 59.93229 442.95312 60.21354Q443.1875 60.49479 443.28125 60.93229Q443.32812 61.197914 443.32812 61.90104L443.32812 63.30729Q443.32812 64.77604 443.39062 65.166664Q443.46875 65.55729 443.67188 65.916664L442.5625 65.916664Q442.40625 65.58854 442.35938 65.15104ZM442.26562 62.791664Q441.6875 63.02604 440.54688 63.197914Q439.89062 63.291664 439.625 63.416664Q439.35938 63.52604 439.20312 63.74479Q439.0625 63.96354 439.0625 64.24479Q439.0625 64.666664 439.375 64.947914Q439.70312 65.229164 440.3125 65.229164Q440.92188 65.229164 441.39062 64.96354Q441.875 64.697914 442.09375 64.229164Q442.26562 63.86979 442.26562 63.18229L442.26562 62.791664ZM447.01562 65.916664L444.65625 59.697914L445.76562 59.697914L447.10938 63.416664Q447.3125 64.02604 447.5 64.666664Q447.64062 64.18229 447.89062 63.49479L449.28125 59.697914L450.35938 59.697914L448.0 65.916664L447.01562 65.916664ZM455.35938 65.15104Q454.76562 65.65104 454.21875 65.854164Q453.6875 66.05729 453.0625 66.05729Q452.03125 66.05729 451.48438 65.55729Q450.9375 65.05729 450.9375 64.27604Q450.9375 63.822914 451.14062 63.447914Q451.34375 63.05729 451.6875 62.83854Q452.03125 62.604164 452.45312 62.49479Q452.75 62.40104 453.39062 62.322914Q454.65625 62.18229 455.26562 61.96354Q455.26562 61.74479 455.26562 61.697914Q455.26562 61.041664 454.96875 60.77604Q454.5625 60.43229 453.76562 60.43229Q453.03125 60.43229 452.67188 60.697914Q452.3125 60.947914 452.14062 61.604164L451.10938 61.46354Q451.25 60.80729 451.57812 60.40104Q451.90625 59.99479 452.51562 59.77604Q453.125 59.55729 453.92188 59.55729Q454.71875 59.55729 455.21875 59.74479Q455.71875 59.93229 455.95312 60.21354Q456.1875 60.49479 456.28125 60.93229Q456.32812 61.197914 456.32812 61.90104L456.32812 63.30729Q456.32812 64.77604 456.39062 65.166664Q456.46875 65.55729 456.67188 65.916664L455.5625 65.916664Q455.40625 65.58854 455.35938 65.15104ZM455.26562 62.791664Q454.6875 63.02604 453.54688 63.197914Q452.89062 63.291664 452.625 63.416664Q452.35938 63.52604 452.20312 63.74479Q452.0625 63.96354 452.0625 64.24479Q452.0625 64.666664 452.375 64.947914Q452.70312 65.229164 453.3125 65.229164Q453.92188 65.229164 454.39062 64.96354Q454.875 64.697914 455.09375 64.229164Q455.26562 63.86979 455.26562 63.18229L455.26562 62.791664Z" fill-rule="nonzero"/><path fill="#757575" d="M18.51875 37.55L24.01875 23.2375L26.065624 23.2375L31.925 37.55L29.76875 37.55L28.096874 33.20625L22.1125 33.20625L20.534374 37.55L18.51875 37.55ZM22.659374 31.675L27.503124 31.675L26.01875 27.70625Q25.33125 25.89375 25.003124 24.7375Q24.721874 26.1125 24.221874 27.471874L22.659374 31.675ZM32.83125 37.55L32.83125 23.2375L34.58125 23.2375L34.58125 37.55L32.83125 37.55ZM36.83125 37.55L36.83125 23.2375L38.58125 23.2375L38.58125 37.55L36.83125 37.55ZM46.8625 41.51875L46.8625 27.175L48.471874 27.175L48.471874 28.51875Q49.034374 27.7375 49.7375 27.346874Q50.45625 26.940624 51.471874 26.940624Q52.8 26.940624 53.815624 27.628124Q54.83125 28.315624 55.346874 29.565624Q55.878124 30.8 55.878124 32.284374Q55.878124 33.878124 55.3 35.159374Q54.7375 36.425 53.64375 37.1125Q52.55 37.784374 51.346874 37.784374Q50.471874 37.784374 49.76875 37.409374Q49.08125 37.034374 48.628124 36.471874L48.628124 41.51875L46.8625 41.51875ZM48.45625 32.425Q48.45625 34.425 49.26875 35.378124Q50.08125 36.33125 51.2375 36.33125Q52.409374 36.33125 53.2375 35.346874Q54.08125 34.3625 54.08125 32.26875Q54.08125 30.3 53.253124 29.315624Q52.440624 28.315624 51.315624 28.315624Q50.190624 28.315624 49.315624 29.378124Q48.45625 30.425 48.45625 32.425ZM57.221874 32.3625Q57.221874 29.4875 58.815624 28.096874Q60.159374 26.940624 62.08125 26.940624Q64.22188 26.940624 65.56563 28.346874Q66.925 29.753124 66.925 32.221874Q66.925 34.221874 66.33125 35.378124Q65.7375 36.51875 64.58125 37.159374Q63.440624 37.784374 62.08125 37.784374Q59.89375 37.784374 58.55 36.39375Q57.221874 34.9875 57.221874 32.3625ZM59.01875 32.3625Q59.01875 34.3625 59.878124 35.346874Q60.753124 36.33125 62.08125 36.33125Q63.39375 36.33125 64.25313 35.346874Q65.12813 34.346874 65.12813 32.3Q65.12813 30.378124 64.25313 29.39375Q63.378124 28.39375 62.08125 28.39375Q60.753124 28.39375 59.878124 29.39375Q59.01875 30.378124 59.01875 32.3625ZM68.15938 34.45625L69.90938 34.175Q70.05 35.221874 70.72188 35.784374Q71.39375 36.33125 72.59688 36.33125Q73.8 36.33125 74.37813 35.846874Q74.97188 35.346874 74.97188 34.690624Q74.97188 34.096874 74.45625 33.753124Q74.09688 33.51875 72.65938 33.159374Q70.72188 32.659374 69.97188 32.315624Q69.2375 31.95625 68.84688 31.33125Q68.45625 30.690624 68.45625 29.925Q68.45625 29.2375 68.76875 28.64375Q69.09688 28.05 69.64375 27.659374Q70.05 27.3625 70.75313 27.159374Q71.47188 26.940624 72.28438 26.940624Q73.50313 26.940624 74.425 27.3Q75.34688 27.64375 75.78438 28.253124Q76.22188 28.846874 76.39375 29.846874L74.675 30.08125Q74.55 29.284374 73.9875 28.846874Q73.425 28.39375 72.40938 28.39375Q71.19063 28.39375 70.675 28.8Q70.15938 29.190624 70.15938 29.721874Q70.15938 30.065624 70.37813 30.346874Q70.58125 30.628124 71.05 30.815624Q71.31563 30.909374 72.59688 31.253124Q74.47188 31.753124 75.20625 32.08125Q75.94063 32.39375 76.3625 33.003124Q76.78438 33.596874 76.78438 34.503124Q76.78438 35.378124 76.26875 36.159374Q75.75313 36.940624 74.78438 37.3625Q73.81563 37.784374 72.59688 37.784374Q70.58125 37.784374 69.51875 36.940624Q68.45625 36.096874 68.15938 34.45625ZM82.70625 35.971874L82.95625 37.534374Q82.22188 37.690624 81.62813 37.690624Q80.675 37.690624 80.14375 37.39375Q79.62813 37.08125 79.40938 36.596874Q79.19063 36.096874 79.19063 34.51875L79.19063 28.55L77.90938 28.55L77.90938 27.175L79.19063 27.175L79.19063 24.6125L80.94063 23.55L80.94063 27.175L82.70625 27.175L82.70625 28.55L80.94063 28.55L80.94063 34.6125Q80.94063 35.3625 81.03438 35.58125Q81.12813 35.784374 81.33125 35.925Q81.55 36.05 81.94063 36.05Q82.22188 36.05 82.70625 35.971874ZM84.15938 34.45625L85.90938 34.175Q86.05 35.221874 86.72188 35.784374Q87.39375 36.33125 88.59688 36.33125Q89.8 36.33125 90.37813 35.846874Q90.97188 35.346874 90.97188 34.690624Q90.97188 34.096874 90.45625 33.753124Q90.09688 33.51875 88.65938 33.159374Q86.72188 32.659374 85.97188 32.315624Q85.2375 31.95625 84.84688 31.33125Q84.45625 30.690624 84.45625 29.925Q84.45625 29.2375 84.76875 28.64375Q85.09688 28.05 85.64375 27.659374Q86.05 27.3625 86.75313 27.159374Q87.47188 26.940624 88.28438 26.940624Q89.50313 26.940624 90.425 27.3Q91.34688 27.64375 91.78438 28.253124Q92.22188 28.846874 92.39375 29.846874L90.675 30.08125Q90.55 29.284374 89.9875 28.846874Q89.425 28.39375 88.40938 28.39375Q87.19063 28.39375 86.675 28.8Q86.15938 29.190624 86.15938 29.721874Q86.15938 30.065624 86.37813 30.346874Q86.58125 30.628124 87.05 30.815624Q87.31563 30.909374 88.59688 31.253124Q90.47188 31.753124 91.20625 32.08125Q91.94063 32.39375 92.3625 33.003124Q92.78438 33.596874 92.78438 34.503124Q92.78438 35.378124 92.26875 36.159374Q91.75313 36.940624 90.78438 37.3625Q89.81563 37.784374 88.59688 37.784374Q86.58125 37.784374 85.51875 36.940624Q84.45625 36.096874 84.15938 34.45625ZM100.19063 33.253124L100.19063 31.4875L105.58125 31.4875L105.58125 33.253124L100.19063 33.253124ZM114.09688 37.55L114.09688 23.2375L119.01875 23.2375Q120.69063 23.2375 121.58125 23.440624Q122.8 23.721874 123.675 24.45625Q124.8 25.425 125.3625 26.909374Q125.925 28.39375 125.925 30.315624Q125.925 31.940624 125.55 33.20625Q125.175 34.45625 124.56563 35.284374Q123.97188 36.1125 123.26875 36.596874Q122.56563 37.065624 121.56563 37.315624Q120.56563 37.55 119.25313 37.55L114.09688 37.55ZM115.9875 35.8625L119.05 35.8625Q120.45625 35.8625 121.25313 35.596874Q122.06563 35.33125 122.55 34.846874Q123.22188 34.175 123.59688 33.05Q123.97188 31.909374 123.97188 30.284374Q123.97188 28.034374 123.2375 26.83125Q122.50313 25.628124 121.44063 25.221874Q120.69063 24.925 119.00313 24.925L115.9875 24.925L115.9875 35.8625ZM134.97188 34.20625L136.78438 34.440624Q136.3625 36.01875 135.19063 36.909374Q134.03438 37.784374 132.22188 37.784374Q129.95625 37.784374 128.6125 36.39375Q127.28438 34.9875 127.28438 32.45625Q127.28438 29.83125 128.62813 28.39375Q129.97188 26.940624 132.12813 26.940624Q134.20625 26.940624 135.51875 28.3625Q136.84688 29.76875 136.84688 32.346874Q136.84688 32.503124 136.83125 32.815624L129.09688 32.815624Q129.19063 34.51875 130.06563 35.425Q130.94063 36.33125 132.2375 36.33125Q133.20625 36.33125 133.87813 35.83125Q134.56563 35.315624 134.97188 34.20625ZM129.19063 31.3625L134.9875 31.3625Q134.87813 30.065624 134.33125 29.409374Q133.4875 28.39375 132.14375 28.39375Q130.94063 28.39375 130.1125 29.20625Q129.28438 30.003124 129.19063 31.3625ZM138.15938 34.45625L139.90938 34.175Q140.05 35.221874 140.72188 35.784374Q141.39375 36.33125 142.59688 36.33125Q143.8 36.33125 144.37813 35.846874Q144.97188 35.346874 144.97188 34.690624Q144.97188 34.096874 144.45625 33.753124Q144.09688 33.51875 142.65938 33.159374Q140.72188 32.659374 139.97188 32.315624Q139.2375 31.95625 138.84688 31.33125Q138.45625 30.690624 138.45625 29.925Q138.45625 29.2375 138.76875 28.64375Q139.09688 28.05 139.64375 27.659374Q140.05 27.3625 140.75313 27.159374Q141.47188 26.940624 142.28438 26.940624Q143.50313 26.940624 144.425 27.3Q145.34688 27.64375 145.78438 28.253124Q146.22188 28.846874 146.39375 29.846874L144.675 30.08125Q144.55 29.284374 143.9875 28.846874Q143.425 28.39375 142.40938 28.39375Q141.19063 28.39375 140.675 28.8Q140.15938 29.190624 140.15938 29.721874Q140.15938 30.065624 140.37813 30.346874Q140.58125 30.628124 141.05 30.815624Q141.31563 30.909374 142.59688 31.253124Q144.47188 31.753124 145.20625 32.08125Q145.94063 32.39375 146.3625 33.003124Q146.78438 33.596874 146.78438 34.503124Q146.78438 35.378124 146.26875 36.159374Q145.75313 36.940624 144.78438 37.3625Q143.81563 37.784374 142.59688 37.784374Q140.58125 37.784374 139.51875 36.940624Q138.45625 36.096874 138.15938 34.45625ZM148.87813 37.55L148.87813 23.2375L150.64375 23.2375L150.64375 31.39375L154.8 27.175L157.06563 27.175L153.1125 31.01875L157.47188 37.55L155.3 37.55L151.87813 32.253124L150.64375 33.440624L150.64375 37.55L148.87813 37.55ZM162.70625 35.971874L162.95625 37.534374Q162.22188 37.690624 161.62813 37.690624Q160.675 37.690624 160.14375 37.39375Q159.62813 37.08125 159.40938 36.596874Q159.19063 36.096874 159.19063 34.51875L159.19063 28.55L157.90938 28.55L157.90938 27.175L159.19063 27.175L159.19063 24.6125L160.94063 23.55L160.94063 27.175L162.70625 27.175L162.70625 28.55L160.94063 28.55L160.94063 34.6125Q160.94063 35.3625 161.03438 35.58125Q161.12813 35.784374 161.33125 35.925Q161.55 36.05 161.94063 36.05Q162.22188 36.05 162.70625 35.971874ZM164.22188 32.3625Q164.22188 29.4875 165.81563 28.096874Q167.15938 26.940624 169.08125 26.940624Q171.22188 26.940624 172.56563 28.346874Q173.925 29.753124 173.925 32.221874Q173.925 34.221874 173.33125 35.378124Q172.7375 36.51875 171.58125 37.159374Q170.44063 37.784374 169.08125 37.784374Q166.89375 37.784374 165.55 36.39375Q164.22188 34.9875 164.22188 32.3625ZM166.01875 32.3625Q166.01875 34.3625 166.87813 35.346874Q167.75313 36.33125 169.08125 36.33125Q170.39375 36.33125 171.25313 35.346874Q172.12813 34.346874 172.12813 32.3Q172.12813 30.378124 171.25313 29.39375Q170.37813 28.39375 169.08125 28.39375Q167.75313 28.39375 166.87813 29.39375Q166.01875 30.378124 166.01875 32.3625ZM175.8625 41.51875L175.8625 27.175L177.47188 27.175L177.47188 28.51875Q178.03438 27.7375 178.7375 27.346874Q179.45625 26.940624 180.47188 26.940624Q181.8 26.940624 182.81563 27.628124Q183.83125 28.315624 184.34688 29.565624Q184.87813 30.8 184.87813 32.284374Q184.87813 33.878124 184.3 35.159374Q183.7375 36.425 182.64375 37.1125Q181.55 37.784374 180.34688 37.784374Q179.47188 37.784374 178.76875 37.409374Q178.08125 37.034374 177.62813 36.471874L177.62813 41.51875L175.8625 41.51875ZM177.45625 32.425Q177.45625 34.425 178.26875 35.378124Q179.08125 36.33125 180.2375 36.33125Q181.40938 36.33125 182.2375 35.346874Q183.08125 34.3625 183.08125 32.26875Q183.08125 30.3 182.25313 29.315624Q181.44063 28.315624 180.31563 28.315624Q179.19063 28.315624 178.31563 29.378124Q177.45625 30.425 177.45625 32.425ZM187.3625 29.175L187.3625 27.175L189.3625 27.175L189.3625 29.175L187.3625 29.175ZM187.3625 37.55L187.3625 35.55L189.3625 35.55L189.3625 37.55L187.3625 37.55ZM202.7375 37.55L202.7375 24.925L198.01875 24.925L198.01875 23.2375L209.3625 23.2375L209.3625 24.925L204.62813 24.925L204.62813 37.55L202.7375 37.55ZM210.8625 37.55L210.8625 23.2375L212.62813 23.2375L212.62813 28.3625Q213.8625 26.940624 215.7375 26.940624Q216.87813 26.940624 217.72188 27.39375Q218.58125 27.846874 218.94063 28.659374Q219.31563 29.45625 219.31563 30.971874L219.31563 37.55L217.56563 37.55L217.56563 30.971874Q217.56563 29.659374 216.9875 29.065624Q216.40938 28.45625 215.37813 28.45625Q214.59688 28.45625 213.89375 28.8625Q213.20625 29.26875 212.90938 29.971874Q212.62813 30.659374 212.62813 31.878124L212.62813 37.55L210.8625 37.55ZM221.84688 37.55L221.84688 27.175L223.425 27.175L223.425 28.753124Q224.03438 27.64375 224.55 27.3Q225.06563 26.940624 225.675 26.940624Q226.56563 26.940624 227.4875 27.503124L226.87813 29.14375Q226.2375 28.753124 225.59688 28.753124Q225.01875 28.753124 224.55 29.1125Q224.09688 29.45625 223.89375 30.065624Q223.6125 31.003124 223.6125 32.1125L223.6125 37.55L221.84688 37.55ZM228.22188 32.3625Q228.22188 29.4875 229.81563 28.096874Q231.15938 26.940624 233.08125 26.940624Q235.22188 26.940624 236.56563 28.346874Q237.925 29.753124 237.925 32.221874Q237.925 34.221874 237.33125 35.378124Q236.7375 36.51875 235.58125 37.159374Q234.44063 37.784374 233.08125 37.784374Q230.89375 37.784374 229.55 36.39375Q228.22188 34.9875 228.22188 32.3625ZM230.01875 32.3625Q230.01875 34.3625 230.87813 35.346874Q231.75313 36.33125 233.08125 36.33125Q234.39375 36.33125 235.25313 35.346874Q236.12813 34.346874 236.12813 32.3Q236.12813 30.378124 235.25313 29.39375Q234.37813 28.39375 233.08125 28.39375Q231.75313 28.39375 230.87813 29.39375Q230.01875 30.378124 230.01875 32.3625ZM246.65938 37.55L246.65938 36.01875Q245.45625 37.784374 243.37813 37.784374Q242.45625 37.784374 241.65938 37.440624Q240.8625 37.08125 240.47188 36.55Q240.09688 36.01875 239.94063 35.2375Q239.83125 34.721874 239.83125 33.596874L239.83125 27.175L241.58125 27.175L241.58125 32.925Q241.58125 34.3 241.69063 34.784374Q241.8625 35.471874 242.39375 35.878124Q242.94063 36.26875 243.72188 36.26875Q244.51875 36.26875 245.20625 35.8625Q245.90938 35.45625 246.19063 34.76875Q246.4875 34.065624 246.4875 32.7375L246.4875 27.175L248.2375 27.175L248.2375 37.55L246.65938 37.55ZM250.55 38.409374L252.25313 38.659374Q252.3625 39.45625 252.84688 39.815624Q253.50313 40.3 254.64375 40.3Q255.8625 40.3 256.51874 39.815624Q257.1906 39.33125 257.425 38.45625Q257.5656 37.909374 257.55 36.190624Q256.39374 37.55 254.675 37.55Q252.53438 37.55 251.3625 36.003124Q250.19063 34.45625 250.19063 32.3Q250.19063 30.815624 250.72188 29.565624Q251.26875 28.315624 252.28438 27.628124Q253.31563 26.940624 254.69063 26.940624Q256.51874 26.940624 257.72186 28.425L257.72186 27.175L259.33124 27.175L259.33124 36.14375Q259.33124 38.565624 258.83124 39.565624Q258.34686 40.58125 257.26874 41.159374Q256.20624 41.753124 254.64375 41.753124Q252.8 41.753124 251.64375 40.925Q250.50313 40.096874 250.55 38.409374ZM252.00313 32.175Q252.00313 34.221874 252.81563 35.159374Q253.62813 36.096874 254.84688 36.096874Q256.05 36.096874 256.8625 35.159374Q257.6906 34.221874 257.6906 32.2375Q257.6906 30.33125 256.84686 29.3625Q256.0031 28.39375 254.81563 28.39375Q253.64375 28.39375 252.81563 29.346874Q252.00313 30.3 252.00313 32.175ZM261.8625 37.55L261.8625 23.2375L263.6281 23.2375L263.6281 28.3625Q264.8625 26.940624 266.7375 26.940624Q267.8781 26.940624 268.72186 27.39375Q269.58124 27.846874 269.9406 28.659374Q270.3156 29.45625 270.3156 30.971874L270.3156 37.55L268.5656 37.55L268.5656 30.971874Q268.5656 29.659374 267.9875 29.065624Q267.40936 28.45625 266.3781 28.45625Q265.59686 28.45625 264.89374 28.8625Q264.20624 29.26875 263.90936 29.971874Q263.6281 30.659374 263.6281 31.878124L263.6281 37.55L261.8625 37.55ZM272.8625 41.51875L272.8625 27.175L274.47186 27.175L274.47186 28.51875Q275.03436 27.7375 275.7375 27.346874Q276.45624 26.940624 277.47186 26.940624Q278.8 26.940624 279.8156 27.628124Q280.83124 28.315624 281.34686 29.565624Q281.8781 30.8 281.8781 32.284374Q281.8781 33.878124 281.3 35.159374Q280.7375 36.425 279.64374 37.1125Q278.55 37.784374 277.34686 37.784374Q276.47186 37.784374 275.76874 37.409374Q275.08124 37.034374 274.6281 36.471874L274.6281 41.51875L272.8625 41.51875ZM274.45624 32.425Q274.45624 34.425 275.26874 35.378124Q276.08124 36.33125 277.2375 36.33125Q278.40936 36.33125 279.2375 35.346874Q280.08124 34.3625 280.08124 32.26875Q280.08124 30.3 279.2531 29.315624Q278.4406 28.315624 277.3156 28.315624Q276.1906 28.315624 275.3156 29.378124Q274.45624 30.425 274.45624 32.425ZM290.65936 37.55L290.65936 36.01875Q289.45624 37.784374 287.3781 37.784374Q286.45624 37.784374 285.65936 37.440624Q284.8625 37.08125 284.47186 36.55Q284.09686 36.01875 283.9406 35.2375Q283.83124 34.721874 283.83124 33.596874L283.83124 27.175L285.58124 27.175L285.58124 32.925Q285.58124 34.3 285.6906 34.784374Q285.8625 35.471874 286.39374 35.878124Q286.9406 36.26875 287.72186 36.26875Q288.51874 36.26875 289.20624 35.8625Q289.90936 35.45625 290.1906 34.76875Q290.4875 34.065624 290.4875 32.7375L290.4875 27.175L292.2375 27.175L292.2375 37.55L290.65936 37.55ZM298.70624 35.971874L298.95624 37.534374Q298.22186 37.690624 297.6281 37.690624Q296.675 37.690624 296.14374 37.39375Q295.6281 37.08125 295.40936 36.596874Q295.1906 36.096874 295.1906 34.51875L295.1906 28.55L293.90936 28.55L293.90936 27.175L295.1906 27.175L295.1906 24.6125L296.9406 23.55L296.9406 27.175L298.70624 27.175L298.70624 28.55L296.9406 28.55L296.9406 34.6125Q296.9406 35.3625 297.03436 35.58125Q297.1281 35.784374 297.33124 35.925Q297.55 36.05 297.9406 36.05Q298.22186 36.05 298.70624 35.971874ZM310.22186 41.753124Q308.76874 39.925 307.76874 37.471874Q306.76874 35.003124 306.76874 32.3625Q306.76874 30.034374 307.51874 27.909374Q308.39374 25.440624 310.22186 22.9875L311.4875 22.9875Q310.3 25.01875 309.925 25.89375Q309.33124 27.2375 308.9875 28.70625Q308.5656 30.534374 308.5656 32.378124Q308.5656 37.065624 311.4875 41.753124L310.22186 41.753124ZM313.84686 37.55L313.84686 27.175L315.425 27.175L315.425 28.753124Q316.03436 27.64375 316.55 27.3Q317.0656 26.940624 317.675 26.940624Q318.5656 26.940624 319.4875 27.503124L318.8781 29.14375Q318.2375 28.753124 317.59686 28.753124Q317.01874 28.753124 316.55 29.1125Q316.09686 29.45625 315.89374 30.065624Q315.6125 31.003124 315.6125 32.1125L315.6125 37.55L313.84686 37.55ZM327.97186 34.20625L329.78436 34.440624Q329.3625 36.01875 328.1906 36.909374Q327.03436 37.784374 325.22186 37.784374Q322.95624 37.784374 321.6125 36.39375Q320.28436 34.9875 320.28436 32.45625Q320.28436 29.83125 321.6281 28.39375Q322.97186 26.940624 325.1281 26.940624Q327.20624 26.940624 328.51874 28.3625Q329.84686 29.76875 329.84686 32.346874Q329.84686 32.503124 329.83124 32.815624L322.09686 32.815624Q322.1906 34.51875 323.0656 35.425Q323.9406 36.33125 325.2375 36.33125Q326.20624 36.33125 326.8781 35.83125Q327.5656 35.315624 327.97186 34.20625ZM322.1906 31.3625L327.9875 31.3625Q327.8781 30.065624 327.33124 29.409374Q326.4875 28.39375 325.14374 28.39375Q323.9406 28.39375 323.1125 29.20625Q322.28436 30.003124 322.1906 31.3625ZM338.4875 41.51875L338.4875 36.440624Q338.0656 37.01875 337.33124 37.409374Q336.59686 37.784374 335.76874 37.784374Q333.925 37.784374 332.58124 36.315624Q331.2531 34.83125 331.2531 32.26875Q331.2531 30.70625 331.78436 29.471874Q332.33124 28.221874 333.3625 27.58125Q334.39374 26.940624 335.6281 26.940624Q337.55 26.940624 338.65936 28.565624L338.65936 27.175L340.2375 27.175L340.2375 41.51875L338.4875 41.51875ZM333.0656 32.33125Q333.0656 34.33125 333.89374 35.33125Q334.7375 36.33125 335.90936 36.33125Q337.03436 36.33125 337.84686 35.39375Q338.65936 34.440624 338.65936 32.4875Q338.65936 30.425 337.8 29.378124Q336.9406 28.33125 335.8 28.33125Q334.65936 28.33125 333.8625 29.3Q333.0656 30.26875 333.0656 32.33125ZM341.55 37.8L345.70624 22.9875L347.1125 22.9875L342.97186 37.8L341.55 37.8ZM348.15936 34.45625L349.90936 34.175Q350.05 35.221874 350.72186 35.784374Q351.39374 36.33125 352.59686 36.33125Q353.8 36.33125 354.3781 35.846874Q354.97186 35.346874 354.97186 34.690624Q354.97186 34.096874 354.45624 33.753124Q354.09686 33.51875 352.65936 33.159374Q350.72186 32.659374 349.97186 32.315624Q349.2375 31.95625 348.84686 31.33125Q348.45624 30.690624 348.45624 29.925Q348.45624 29.2375 348.76874 28.64375Q349.09686 28.05 349.64374 27.659374Q350.05 27.3625 350.7531 27.159374Q351.47186 26.940624 352.28436 26.940624Q353.5031 26.940624 354.425 27.3Q355.34686 27.64375 355.78436 28.253124Q356.22186 28.846874 356.39374 29.846874L354.675 30.08125Q354.55 29.284374 353.9875 28.846874Q353.425 28.39375 352.40936 28.39375Q351.1906 28.39375 350.675 28.8Q350.15936 29.190624 350.15936 29.721874Q350.15936 30.065624 350.3781 30.346874Q350.58124 30.628124 351.05 30.815624Q351.3156 30.909374 352.59686 31.253124Q354.47186 31.753124 355.20624 32.08125Q355.9406 32.39375 356.3625 33.003124Q356.78436 33.596874 356.78436 34.503124Q356.78436 35.378124 356.26874 36.159374Q355.7531 36.940624 354.78436 37.3625Q353.8156 37.784374 352.59686 37.784374Q350.58124 37.784374 349.51874 36.940624Q348.45624 36.096874 348.15936 34.45625ZM365.97186 34.20625L367.78436 34.440624Q367.3625 36.01875 366.1906 36.909374Q365.03436 37.784374 363.22186 37.784374Q360.95624 37.784374 359.6125 36.39375Q358.28436 34.9875 358.28436 32.45625Q358.28436 29.83125 359.6281 28.39375Q360.97186 26.940624 363.1281 26.940624Q365.20624 26.940624 366.51874 28.3625Q367.84686 29.76875 367.84686 32.346874Q367.84686 32.503124 367.83124 32.815624L360.09686 32.815624Q360.1906 34.51875 361.0656 35.425Q361.9406 36.33125 363.2375 36.33125Q364.20624 36.33125 364.8781 35.83125Q365.5656 35.315624 365.97186 34.20625ZM360.1906 31.3625L365.9875 31.3625Q365.8781 30.065624 365.33124 29.409374Q364.4875 28.39375 363.14374 28.39375Q361.9406 28.39375 361.1125 29.20625Q360.28436 30.003124 360.1906 31.3625ZM376.64374 33.753124L378.3625 33.971874Q378.08124 35.76875 376.90936 36.784374Q375.7531 37.784374 374.05 37.784374Q371.925 37.784374 370.6281 36.39375Q369.33124 35.003124 369.33124 32.409374Q369.33124 30.721874 369.8781 29.471874Q370.4406 28.20625 371.58124 27.58125Q372.72186 26.940624 374.0656 26.940624Q375.7531 26.940624 376.8156 27.8Q377.89374 28.659374 378.20624 30.221874L376.4875 30.4875Q376.2531 29.440624 375.6281 28.925Q375.0031 28.39375 374.1281 28.39375Q372.8 28.39375 371.97186 29.346874Q371.14374 30.3 371.14374 32.346874Q371.14374 34.440624 371.9406 35.39375Q372.7375 36.33125 374.03436 36.33125Q375.0656 36.33125 375.7531 35.70625Q376.45624 35.065624 376.64374 33.753124ZM381.01874 41.753124L379.76874 41.753124Q382.675 37.065624 382.675 32.378124Q382.675 30.534374 382.26874 28.7375Q381.925 27.26875 381.33124 25.925Q380.95624 25.034374 379.76874 22.9875L381.01874 22.9875Q382.8625 25.440624 383.7375 27.909374Q384.4875 30.034374 384.4875 32.3625Q384.4875 35.003124 383.47186 37.471874Q382.47186 39.925 381.01874 41.753124Z" fill-rule="nonzero"/></svg>